<svg xmlns="http://www.w3.org/2000/svg" width="940" height="470" viewBox="0 0 940 470">
  <title>Featured Typeface</title>
  <g>
    <rect width="940" height="470" fill="#17475e"/>
    <g>
      <path d="M254.548,182.468a87,87,0,0,1-8.962-.848,26.4,26.4,0,0,1-.242-6.9h31.73a18.369,18.369,0,0,1-.242,6.782,103.229,103.229,0,0,1-11.143.969v68.548h30.035a108.9,108.9,0,0,1,1.332-12.111,32.705,32.705,0,0,1,7.872-.848v20.71H243.648a29.02,29.02,0,0,1,1.454-6.419,69.808,69.808,0,0,1,9.446-1.574Z" fill="#1f849f"/>
      <path d="M312.075,208.021a14,14,0,0,1,2.18-6.418,35.507,35.507,0,0,1,10.9-1.7,25.635,25.635,0,0,1,6.3.728v50.623a56.087,56.087,0,0,1,9.567,1.7,17.159,17.159,0,0,1,.363,3.755,11.749,11.749,0,0,1-.121,2.059H311.469a16.826,16.826,0,0,1,1.7-5.45,44.842,44.842,0,0,1,7.751-2.3V208.021ZM333.268,179.8c0,4.6-2.785,7.146-6.781,7.146-4.481,0-6.9-2.423-6.9-7.146,0-4,2.906-6.661,6.9-6.661S333.268,175.564,333.268,179.8Z" fill="#1f849f"/>
      <path d="M379.775,206.932a19.625,19.625,0,0,0-7.146-1.453c-6.3,0-9.932,2.906-9.932,7.388,0,13.564,28.219,9.446,28.219,30.52,0,12.6-10.536,17.439-21.8,17.439a36.887,36.887,0,0,1-18.529-4.6,26.8,26.8,0,0,1-.605-5.813,35,35,0,0,1,1.211-8.6,35.113,35.113,0,0,1,8.72,1.09v8.356a19.128,19.128,0,0,0,10.173,2.785c6.056,0,10.174-3.633,10.174-9.083,0-14.412-28.461-9.2-28.461-30.641,0-8.841,8.114-15.139,20.1-15.139a46.8,46.8,0,0,1,17.076,3.149,18.345,18.345,0,0,1,.242,3.754,40.008,40.008,0,0,1-1.332,9.81,17.769,17.769,0,0,1-8.114-1.816Z" fill="#1f849f"/>
      <path d="M435.727,251.621c-3.148,5.935-9.688,9.2-16.955,9.2-8.841,0-17.2-5.086-17.2-16.229,0-12.474,10.536-18.893,22.526-18.893a30.1,30.1,0,0,1,11.263,2.059v-6.54c0-8.962-3.875-13.564-11.5-13.564-5.208,0-13.443,3.028-17.683,5.935a10.549,10.549,0,0,1-.605-4.117,13.593,13.593,0,0,1,1.332-6.056c4-2.3,13.322-4.239,19.741-4.239,13.2,0,19.014,6.419,19.014,23.011v23.5c0,2.423.605,5.329,1.575,6.3a37.915,37.915,0,0,0,8.356-1.453,5.43,5.43,0,0,1,.121,1.332,12.89,12.89,0,0,1-1.211,5.45c-2.665,1.7-8.963,3.512-13.08,3.512-2.422-1.453-4.724-5.328-5.087-9.2Zm-.242-18.529a39.557,39.557,0,0,0-8.478-.969c-9.446,0-14.775,4.238-14.775,10.657,0,6.661,5.208,9.688,11.021,9.688,4.723,0,9.81-2.3,12.231-5.935Z" fill="#1f849f"/>
      <path d="M499.428,202.814a83.569,83.569,0,0,1-8.477-.848,19.874,19.874,0,0,1-.121-6.54c8.719-.484,18.65-.848,27.371-.848,16.229,0,26.521,5.449,26.521,18.893,0,14.412-11.625,20.347-23.494,20.347-3.633,0-7.268-.242-11.021-.605v17.561a73.325,73.325,0,0,1,11.506,1.938,19.926,19.926,0,0,1,.363,6.056H489.982a19.985,19.985,0,0,1,1.7-5.813,29.131,29.131,0,0,1,7.75-2.543Zm10.779,23.5c3.027.242,6.66.363,9.932.363,8.355,0,13.322-3.271,13.322-12.232,0-7.751-6.3-12.595-15.986-12.595-1.818,0-5.451.121-7.268.242Z" fill="#1f849f"/>
      <path d="M584.2,194.7c15.867,0,27.25,5.57,27.25,17.8,0,9.688-6.418,15.623-14.049,17.924,6.178,10.9,13.2,22.042,14.412,22.405l7.025-.484a7.562,7.562,0,0,1,.121,1.453,13.217,13.217,0,0,1-1.453,5.692,79.911,79.911,0,0,1-11.869,1.7c-3.148-1.453-9.084-12.837-17.561-29.429a106.72,106.72,0,0,1-10.779-.485v19.62a43.294,43.294,0,0,1,8.6,1.7,25.337,25.337,0,0,1,.242,6.177H557.076a19.985,19.985,0,0,1,1.7-5.813,29.131,29.131,0,0,1,7.75-2.543V202.693c-2.543-.121-6.3-.484-8.477-.848a19.874,19.874,0,0,1-.121-6.54C566.279,194.821,575.848,194.7,584.2,194.7Zm-6.9,30.156c3.27.242,6.539.242,9.689.242,8.477,0,13.2-3.149,13.2-11.869,0-7.63-6.783-11.263-16.715-11.263-1.574,0-4.6,0-6.176.121Z" fill="#1f849f"/>
      <path d="M692.719,226.552c0,22.042-12.475,34.637-31.73,34.637-20.711,0-32.094-11.989-32.094-34.637,0-20.347,13.807-32.941,32.094-32.941C680,193.61,692.719,205.357,692.719,226.552ZM660.988,253.8c13.443,0,20.346-10.415,20.346-27.249,0-14.654-8.113-25.675-20.346-25.675-13.443,0-20.711,10.294-20.711,25.675C640.277,243.022,648.029,253.8,660.988,253.8Z" fill="#1f849f"/>
      <path d="M371.884,294.9a9.789,9.789,0,0,1,.159-2.416c3.01-.237,6.417-.4,9.388-.4,5.109,0,9.229,2.219,9.229,6.893,0,4.437-3.05,7.289-6.615,8.4,1.9,4.832,4.317,9.744,4.872,10.18l2.337-.158a6.991,6.991,0,0,1-.555,2.614,25.694,25.694,0,0,1-4.277.674c-.911-.674-3.09-5.665-5.7-12.914a28.2,28.2,0,0,1-3.685-.2l-.831,9.863a21.742,21.742,0,0,1,2.971.356,6.959,6.959,0,0,1-.079,2.219H369.033a10.076,10.076,0,0,1,.594-2.1,22.655,22.655,0,0,1,3.011-.515l2.1-22.381C373.865,295.017,372.676,294.977,371.884,294.9Zm5.269,10.537c1.308.119,2.693.119,3.882.119,3.446,0,6.1-2.021,6.1-6.22,0-3.327-2.812-4.793-6.655-4.793-.673,0-1.7.04-2.416.119Z" fill="#d6846e"/>
      <path d="M397.553,311.813V313c0,3.249,1.109,4.833,3.287,4.833a12.269,12.269,0,0,0,5.942-1.861,5.344,5.344,0,0,1-.476,2.179,10.7,10.7,0,0,1-6.893,2.535c-3.525,0-5.387-2.5-5.387-6.734,0-3.486.792-7.328,2.971-9.942a8.927,8.927,0,0,1,6.853-3.288c2.813,0,4.556,1.664,4.556,4.357C408.407,308.247,406.426,311.455,397.553,311.813Zm1.545-6.457a11.14,11.14,0,0,0-1.308,4.159c6.536-.237,7.407-2.258,7.407-4.238,0-1.347-.594-2.417-2.06-2.417A4.8,4.8,0,0,0,399.1,305.355Z" fill="#d6846e"/>
      <path d="M427.419,293.63a9.918,9.918,0,0,0-2.853-.4c-4.04,0-6.14,1.822-6.733,6.813l-.158,1.348h4.911a8.894,8.894,0,0,1-.118,2.3h-4.952l-2.337,22.262a13.7,13.7,0,0,1-1.98.159,5.772,5.772,0,0,1-1.545-.159l2.733-22.262h-3.05a6.124,6.124,0,0,1,.752-2.06,14.824,14.824,0,0,1,2.535-.674l.079-.713c.713-6.3,4.041-9.15,9.9-9.15a20.006,20.006,0,0,1,6.021,1.03l-2.139,19.291a35.967,35.967,0,0,0,8.2-7.209,1.76,1.76,0,0,0-.119-.595l-2.812.119a3.932,3.932,0,0,1,.832-2.219,22.763,22.763,0,0,1,4.437-.436,6.867,6.867,0,0,1,1.029,2.535,26.174,26.174,0,0,1-6.932,7.17,39.773,39.773,0,0,0,4.437,7.288l2.337-.436a5.586,5.586,0,0,1-.476,2.219,12.946,12.946,0,0,1-3.763,1.069c-1.268-1.308-3.327-5.229-4.912-8.754a26.054,26.054,0,0,1-2.456,1.347l-.673,6.417a12.7,12.7,0,0,1-1.9.158,5.167,5.167,0,0,1-1.466-.158Z" fill="#d6846e"/>
      <path d="M443.066,303.89a4.441,4.441,0,0,1,.713-2.021,8.815,8.815,0,0,1,3.922-.911,10.285,10.285,0,0,1,1.624.159l-1.98,16.082a2.543,2.543,0,0,0,.2.674l3.09-.317a5.491,5.491,0,0,1-.634,2.219,17.388,17.388,0,0,1-4.714.911,5.925,5.925,0,0,1-1.386-2.932l2.06-14.181Zm7.605-9.705a2.116,2.116,0,0,1-2.14,2.337c-1.426,0-2.178-.792-2.178-2.337a2.124,2.124,0,0,1,2.178-2.179A2.008,2.008,0,0,1,450.671,294.185Z" fill="#d6846e"/>
      <path d="M480.26,309.237a39.77,39.77,0,0,1-4.99-.4,11.415,11.415,0,0,1-.238-2.337h12.082a19.926,19.926,0,0,1-.555,2.416,23.488,23.488,0,0,1-2.971.317l-.832,9.665a32.155,32.155,0,0,1-9.467,1.9c-6.932,0-10.538-4.4-10.538-11.526,0-10.7,5.863-17.549,15.014-17.549a12.55,12.55,0,0,1,7.367,2.061,39.11,39.11,0,0,1-1.109,6.179,8.387,8.387,0,0,1-2.693-.634l.4-3.882a8.186,8.186,0,0,0-4.557-1.268c-6.139,0-10.734,5.149-10.734,14.419,0,6.338,3.367,9.467,8.16,9.467a24.425,24.425,0,0,0,4.912-.594Z" fill="#d6846e"/>
      <path d="M501.215,317.635a6.877,6.877,0,0,1-6.141,3.051c-2.258,0-4.555-1.07-4.555-4.833a115.129,115.129,0,0,1,1.584-12.279l-2.891.316a4.43,4.43,0,0,1,.713-2.021,8.809,8.809,0,0,1,3.922-.911,10.272,10.272,0,0,1,1.623.159c-.555,4.2-1.465,11.923-1.465,13.508,0,2.06.752,3.366,2.771,3.366a5.706,5.706,0,0,0,4.754-2.971l1.506-11.447-2.734.316a4.6,4.6,0,0,1,.713-2.06,7.993,7.993,0,0,1,3.764-.872,9.748,9.748,0,0,1,1.584.159l-1.822,15.963a3,3,0,0,0,.2.753l2.971-.277a5.476,5.476,0,0,1-.635,2.219,17.742,17.742,0,0,1-4.674.911,8.667,8.667,0,0,1-.99-3.051Z" fill="#d6846e"/>
      <path d="M516.939,304.325a6.555,6.555,0,0,1,6.1-3.6c2.377,0,4.6.951,4.6,4.912,0,2.377-1.229,9.744-1.467,11.566a2.156,2.156,0,0,0,.2.674l3.049-.317a5.5,5.5,0,0,1-.633,2.219,16.237,16.237,0,0,1-4.674.911,5.911,5.911,0,0,1-1.387-2.932,104.54,104.54,0,0,0,1.545-11.012c0-2.061-.793-3.407-2.693-3.407-2.18,0-4.08,1.98-4.834,3.565l-1.465,13.032a12.686,12.686,0,0,1-1.9.158,5.164,5.164,0,0,1-1.465-.158l2.178-16.359-2.891.316a4.43,4.43,0,0,1,.713-2.021,7.492,7.492,0,0,1,3.645-.911,4.81,4.81,0,0,1,1.346.159l-.355,3.208Z" fill="#d6846e"/>
      <path d="M529.613,327.7A19.2,19.2,0,0,0,534.8,317l1.625-13.428-2.893.316a4.452,4.452,0,0,1,.713-2.021,8.822,8.822,0,0,1,3.922-.911,10.3,10.3,0,0,1,1.625.159l-1.586,14.854c-.594,5.466-3.484,9.744-7.01,13.111A3.4,3.4,0,0,1,529.613,327.7Zm11.172-33.512a2.117,2.117,0,0,1-2.139,2.337c-1.428,0-2.18-.792-2.18-2.337a2.125,2.125,0,0,1,2.18-2.179A2.008,2.008,0,0,1,540.785,294.185Z" fill="#d6846e"/>
      <path d="M543.637,303.89a4.452,4.452,0,0,1,.713-2.021,8.822,8.822,0,0,1,3.922-.911,10.3,10.3,0,0,1,1.625.159l-1.98,16.082a2.507,2.507,0,0,0,.2.674l3.09-.317a5.476,5.476,0,0,1-.635,2.219,17.388,17.388,0,0,1-4.713.911,5.928,5.928,0,0,1-1.387-2.932l2.061-14.181Zm7.605-9.705a2.116,2.116,0,0,1-2.139,2.337c-1.426,0-2.18-.792-2.18-2.337a2.125,2.125,0,0,1,2.18-2.179A2.008,2.008,0,0,1,551.242,294.185Z" fill="#d6846e"/>
      <path d="M566.057,303.612a4.126,4.126,0,0,0-2.02-.594,5.145,5.145,0,0,0-4.318,2.535,13.031,13.031,0,0,0-1.623,7.011c0,3.724,1.227,5.229,3.6,5.229a14.705,14.705,0,0,0,5.822-1.742,6.524,6.524,0,0,1-.553,2.337,11.737,11.737,0,0,1-6.576,2.3c-3.961,0-5.863-2.733-5.863-7.21a15.294,15.294,0,0,1,2.734-9.071,9.3,9.3,0,0,1,7.287-3.684,7.081,7.081,0,0,1,4.438,1.426,12.1,12.1,0,0,1-1.029,4.793,4.9,4.9,0,0,1-2.18-.515Zm-2.1-4.516a4.621,4.621,0,0,1-1.584-1.861l4.951-6.18a7,7,0,0,1,3.09,1.466Z" fill="#d6846e"/>
    </g>
    <g>
      <path d="M420.184,141.244a18.6,18.6,0,0,1,2.574.364,6.8,6.8,0,0,1,.13,2.392H413.4a9.145,9.145,0,0,1,.624-2.314,16.515,16.515,0,0,1,2.158-.442V128.01h-2.887a18.646,18.646,0,0,1-.338,2.106,10.168,10.168,0,0,1-3.016.364v-4.914h16.511v4.992a11.612,11.612,0,0,1-3.043-.364,14.782,14.782,0,0,1-.363-2.184h-2.86Z" fill="#eae2d2"/>
      <path d="M442.856,141.27a9.491,9.491,0,0,1,1.872.52,7.247,7.247,0,0,1,.13,1.43,5.753,5.753,0,0,1-.052.78h-7.384a10.136,10.136,0,0,1,.363-2.054,5.881,5.881,0,0,1,1.274-.754v-3.068h-5.435v3.146a7.9,7.9,0,0,1,1.69.52,7.032,7.032,0,0,1,.078,2.21h-7.488a8.3,8.3,0,0,1,.442-2.054,6.12,6.12,0,0,1,1.481-.754v-8.71a7.686,7.686,0,0,1-1.689-.39,7.73,7.73,0,0,1-.078-2.185h7.254a9.1,9.1,0,0,1-.078,2.21,7.012,7.012,0,0,1-1.612.364v3.224h5.435v-3.224a5.652,5.652,0,0,1-1.378-.39,8.808,8.808,0,0,1-.052-2.185h7.1a7.813,7.813,0,0,1-.078,2.21,8.75,8.75,0,0,1-1.794.364Z" fill="#eae2d2"/>
      <path d="M457.961,141.53a5.916,5.916,0,0,1,.469-1.4,11.684,11.684,0,0,1,2.781-.234V144H448a8.3,8.3,0,0,1,.442-2.054,6.12,6.12,0,0,1,1.481-.754v-8.71a7.686,7.686,0,0,1-1.689-.39,7.73,7.73,0,0,1-.078-2.185h12.688v3.979a11.718,11.718,0,0,1-2.73-.338,4.723,4.723,0,0,1-.546-1.222H453.8v3.38h2.73a2.512,2.512,0,0,1,.6-.806,8.827,8.827,0,0,1,2.133-.286v4.55a7.159,7.159,0,0,1-2.288-.156,3.111,3.111,0,0,1-.391-.962H453.8v3.484Z" fill="#eae2d2"/>
      <path d="M482.35,135.758a13.149,13.149,0,0,1,1.326,3.874h.312V128.27a12.831,12.831,0,0,1-1.95-.312,8.226,8.226,0,0,1-.025-2.392h6.63a4.6,4.6,0,0,1,.078.962,6.869,6.869,0,0,1-.13,1.43,9.041,9.041,0,0,1-1.742.286v15.965h-4.03l-6.37-11.311a13.41,13.41,0,0,1-1.326-3.744h-.312v12.091a10.807,10.807,0,0,1,1.949.364,7.443,7.443,0,0,1,.1,2.392h-7.28a10.64,10.64,0,0,1,.468-2.34,10.728,10.728,0,0,1,1.639-.416V128.27a10.165,10.165,0,0,1-1.717-.312,8.226,8.226,0,0,1-.025-2.392h6.708Z" fill="#eae2d2"/>
      <path d="M501.122,141.53a5.959,5.959,0,0,1,.468-1.4,11.7,11.7,0,0,1,2.782-.234V144H491.163a8.388,8.388,0,0,1,.442-2.054,6.127,6.127,0,0,1,1.482-.754v-8.71a7.682,7.682,0,0,1-1.69-.39,7.767,7.767,0,0,1-.078-2.185h12.688v3.979a11.71,11.71,0,0,1-2.729-.338,4.758,4.758,0,0,1-.547-1.222h-3.77v3.38h2.729a2.53,2.53,0,0,1,.6-.806,8.819,8.819,0,0,1,2.132-.286v4.55a7.161,7.161,0,0,1-2.288-.156,3.109,3.109,0,0,1-.39-.962h-2.782v3.484Z" fill="#eae2d2"/>
      <path d="M512.639,134.614l.807,3.588a19.346,19.346,0,0,1,.468,2.86h.312a14.38,14.38,0,0,1,.416-2.886l2.133-8.138,3.978-.39,1.977,8.554a16.316,16.316,0,0,1,.39,2.86h.313a17.546,17.546,0,0,1,.468-2.808l.858-3.51a7.062,7.062,0,0,1,.806-1.924,4.768,4.768,0,0,1-1.17-.494,7.988,7.988,0,0,1-.338-2.418h6.006a9.4,9.4,0,0,1-.494,2.6,5.82,5.82,0,0,1-1.248.312L524.7,144.078l-3.9.39-1.872-7.9a16.793,16.793,0,0,1-.391-3.2h-.312a17.19,17.19,0,0,1-.442,3.2l-1.95,7.515-4.108.39-3.483-11.622a3.714,3.714,0,0,1-1.145-.624,9.072,9.072,0,0,1-.312-2.314h6.89a9.277,9.277,0,0,1-.416,2.5,6.108,6.108,0,0,1-1.378.442A7.712,7.712,0,0,1,512.639,134.614Z" fill="#eae2d2"/>
    </g>
  </g>
</svg>
