<svg xmlns="http://www.w3.org/2000/svg" xmlns:xlink="http://www.w3.org/1999/xlink" width="617" height="773" viewBox="0 0 617 773">
  <defs>
    <radialGradient id="a" data-name="Unbenannter Verlauf 5" cx="308.5" cy="309" r="308.51" gradientUnits="userSpaceOnUse">
      <stop offset="0" stop-color="#fff"/>
      <stop offset="1" stop-color="#ddbe0c"/>
    </radialGradient>
    <radialGradient id="b" data-name="Unbenannter Verlauf 3" cx="-623.152" cy="379.119" r="716.03" gradientTransform="translate(686.654 355.505) scale(0.607 0.607)" gradientUnits="userSpaceOnUse">
      <stop offset="0.512" stop-opacity="0"/>
      <stop offset="1" stop-opacity="0.7"/>
    </radialGradient>
  </defs>
  <title>Samba</title>
  <g style="isolation: isolate">
    <g>
      <rect width="617" height="309" fill="#fddc12"/>
      <g>
        <path d="M86.694,218.5c25.684,0,33.159-15.525,32.967-28.75-.192-24.341-62.484-24.149-63.058-63.44-.384-21.085,13.607-37.758,48.874-37.758,12.074,0,29.134,4.407,29.324,18.209.192,8.239-6.132,13.223-15.14,13.607a16.351,16.351,0,0,1-4.983-.767,48.788,48.788,0,0,0,3.64-20.7V95.831c0-.192-4.6-2.107-10.541-2.107-23.956,0-30.665,15.333-30.473,26.066.382,21.465,63.056,19.165,63.056,62.866,0,19.742-12.841,41.017-50.6,41.017-14.566,0-30.473-3.835-30.665-18.017-.192-10.541,7.665-15.525,14.374-15.525a14.547,14.547,0,0,1,7.667,2.3c-3.643,6.517-6.9,12.649-7.475,22.423C73.661,215.046,78.645,218.5,86.694,218.5Z" fill="#c86e01"/>
        <path d="M194.219,172.881a151.852,151.852,0,0,0,.959-16.676c-.384-14.758-4.025-27.407-16.676-27.407a32.588,32.588,0,0,0-15.907,4.025,27.04,27.04,0,0,0-.384,5.558c.192,7.667,4.025,16.866,4.409,17.824,0,0-2.684,2.11-9.775,2.11-8.434,0-13.225-4.6-13.417-10.926-.192-13.033,20.126-22.041,37.566-22.041,20.126,0,36.61,8.434,36.992,28.173,0,3.643-.192,9.008-3.833,36.225a37.7,37.7,0,0,0-.384,8.05c.192,10.541,3.643,14.184,6.9,15.525a34.079,34.079,0,0,0,8.432-8.242c.192.192.769.767.959,2.684,0,6.324-7.091,15.717-19.165,15.717-14.184,0-17.442-16.484-17.634-27.6-1.915,11.882-10.923,27.6-26.258,27.6-13.033,0-22.231-14.376-22.616-28.558-.192-17.824,9.967-27.984,30.475-27.984C185.4,166.939,191.153,170.389,194.219,172.881Zm-.192,3.448a18.949,18.949,0,0,0-13.8-5.366c-8.05,0-15.333,9.2-15.14,18.783.192,9.2,4.983,15.717,12.459,15.717C188.087,205.463,192.494,189.939,194.027,176.329Z" fill="#c86e01"/>
        <path d="M287.752,134.356c-11.308,0-26.066,33.157-26.066,61.525.192,15.14,5.176,22.808,5.176,22.808a15.931,15.931,0,0,1-11.5,4.983c-9.775,0-13.225-5.368-13.8-20.126,0-10.733.767-51.94,1.533-66.7-1.917,0-9.2,2.874-12.459,5.558-.382,0-.767-.574-.959-1.725a5.761,5.761,0,0,1,1.533-3.64c7.093-8.242,23.767-12.267,29.709-12.267,2.876,0,4.983,1.723,4.983,4.407.192,1.343-.767,2.876-3.833,36.607,3.833-12.074,12.074-40.44,33.541-40.44,10.541,0,18.975,8.05,19.165,23.574.192,6.517-.382,10.733-.959,16.866,3.835-12.074,12.077-40.44,33.541-40.44,10.544,0,18.975,8.05,19.167,23.574.384,15.14-3.45,28.176-3.258,44.083.192,10.541,3.833,18.783,7.091,20.124a34.114,34.114,0,0,0,8.434-8.239c.192.19.767.767.959,2.682,0,6.327-8.242,15.909-20.316,15.909-16.1,0-17.442-19.357-17.634-30.475-.192-13.992,7.86-58.649-2.3-58.649-11.308,0-26.066,33.157-26.066,61.525.192,15.14,5.176,22.808,5.176,22.808a15.931,15.931,0,0,1-11.5,4.983c-9.775,0-16.1-5.176-16.676-19.934C290.244,189.746,297.911,134.356,287.752,134.356Z" fill="#c86e01"/>
        <path d="M421.728,223.48c-15.909,0-29.327-3.066-29.327-14.758V156.589c0-6.517-.19-25.684-.19-43.126,0-11.69.19-22.616.382-28.558-1.917,0-8.624,2.876-11.692,5.558-.382,0-.956-.574-.956-1.723,0-10.351,26.066-15.909,32.583-15.909a4.527,4.527,0,0,1,4.6,4.983l-4.791,87.207c4.6-21.083,17.25-38.715,30.475-38.715,18.017,0,28.366,15.715,28.366,38.907C471.176,206.23,442.234,223.48,421.728,223.48Zm17.44-89.124c-9.583,0-25.682,25.682-26.64,45.041.192,1.341-.384,8.432-.384,27.984,0,5.558.384,11.5,10.541,11.5,11.884,0,26.643-17.44,26.643-57.882C449.327,146.43,446.835,134.356,439.168,134.356Z" fill="#c86e01"/>
        <path d="M528.1,172.881a151.852,151.852,0,0,0,.959-16.676c-.384-14.758-4.025-27.407-16.676-27.407a32.576,32.576,0,0,0-15.907,4.025,27.04,27.04,0,0,0-.384,5.558c.192,7.667,4.025,16.866,4.409,17.824,0,0-2.684,2.11-9.775,2.11-8.434,0-13.225-4.6-13.417-10.926-.192-13.033,20.124-22.041,37.566-22.041,20.124,0,36.607,8.434,36.992,28.173,0,3.643-.192,9.008-3.833,36.225a37.7,37.7,0,0,0-.384,8.05c.192,10.541,3.643,14.184,6.9,15.525a34.079,34.079,0,0,0,8.432-8.242c.192.192.767.767.959,2.684,0,6.324-7.091,15.717-19.165,15.717-14.184,0-17.442-16.484-17.634-27.6-1.917,11.882-10.926,27.6-26.258,27.6-13.033,0-22.234-14.376-22.616-28.558-.192-17.824,9.967-27.984,30.475-27.984C519.283,166.939,525.033,170.389,528.1,172.881Zm-.192,3.448a18.949,18.949,0,0,0-13.8-5.366c-8.05,0-15.333,9.2-15.14,18.783.19,9.2,4.981,15.717,12.456,15.717C521.965,205.463,526.374,189.939,527.907,176.329Z" fill="#c86e01"/>
      </g>
      <g>
        <path d="M329,247.879l-.055-4.663s-.25.028-.556.028c-.582,0-1.331-.055-1.386-.666,0,0,2.8-1.665,3.829-1.665a1.291,1.291,0,0,1,1.388,1.3c0,.805-.055,1.694-.11,2.776-.083.028-.055,11.187-.055,11.27a7.28,7.28,0,0,0,.611,3.609,13.91,13.91,0,0,0,1.526-.972c.055,0,.306.139.306.583,0,.972-1.8,2.415-3.3,2.415s-1.942-1.61-2.053-3.192c-.584,1.277-2.443,3.192-4.332,3.192-3.192,0-5.079-2.637-5.079-6.3,0-5.357,3.608-7.883,7.3-7.883A10.611,10.611,0,0,1,329,247.879Zm.112,9.66L329,249.35c-.471-.749-1.97-.749-2.027-.749-2.553,0-3.969,3.331-3.969,6.412,0,3.72,1.333,5,2.693,5C327.282,260.009,328.477,258.456,329.116,257.539Z" fill="#323304"/>
        <path d="M341.633,255.929a5.115,5.115,0,0,1-2.5-.583c.138,1.665.582,4.8,3.8,4.8,2.693,0,4.442-2.359,4.5-2.359.2,0,.471.083.471.388a6.38,6.38,0,0,1-5.746,3.72c-3.275,0-6.412-2.249-6.412-7.161,0-4.858,3.054-7.051,6.69-7.051,4.164,0,4.831,2.471,4.858,3.414C347.3,254.125,344.853,255.818,341.633,255.929Zm-2.583-1.638a4.156,4.156,0,0,0,2.082.639c2.25,0,3.165-1.8,3.165-3.747,0-1.721-.666-2.665-2.11-2.665-2.526,0-3.165,3.83-3.165,5.746Z" fill="#323304"/>
        <path d="M361.228,261.731c0,4.441-1.416,6.884-5.109,6.884-1.082,0-1.747-.445-1.747-1.082v-.223h.444c3.47,0,3.47-2.387,3.441-5.634l-.083-17.544a5.472,5.472,0,0,1-1.138.111c-1.36,0-1.305-.888-1.305-1.027a23.259,23.259,0,0,1,4.332-.944,1.181,1.181,0,0,1,1.276,1.278c0,.8-.055,1.859-.055,2.942-.083,3.082-.055,6.468-.055,8.467Z" fill="#323304"/>
        <path d="M375.356,252.959l-.193,4.385a5.952,5.952,0,0,0,.609,2.527,13.968,13.968,0,0,0,1.528-.972c.055,0,.306.139.306.583,0,.972-1.694,2.415-3.192,2.415-1.333,0-2.027-1.971-2.055-3.692a4.863,4.863,0,0,1-4.3,3.692c-2.165,0-3.332-2.11-3.332-4.192,0-3.164,2.082-4,4.748-4a6.347,6.347,0,0,1,2.942.8l.028-2.026c0-1.61-.388-3.942-2.636-3.942a8.412,8.412,0,0,0-2.415.444l.527,2.888a2.076,2.076,0,0,1-1.581.527,1.688,1.688,0,0,1-1.556-1.748c0-1.305,1.25-2.97,5.747-2.97C374.8,247.685,375.523,249.961,375.356,252.959Zm-3,2.609a4.475,4.475,0,0,0-2.583-.916c-.943,0-1.942.361-1.942,2.332,0,1.249.5,2.5,1.859,2.5C371.3,259.482,372.276,257.1,372.359,255.568Z" fill="#323304"/>
        <path d="M387.957,247.685c2.471,0,3.025,2.72,2.97,4.718l-.223,4.941a4.723,4.723,0,0,0,.611,2.527,13.91,13.91,0,0,0,1.526-.972c.057,0,.306.139.306.583,0,.972-1.692,2.415-3.192,2.415-1.3,0-2-1.86-2.053-3.553,0-1.416.028-3.608.028-5.08,0-1.638-.25-3-1.721-3-1.666,0-3.3,2.637-3.332,2.637l-.11,5.885a11.806,11.806,0,0,0,.361,2.443s-.055.639-1.471.666c-1.25.028-1.942-.5-1.942-1.5,0,0,.221-3.165.193-4.8l-.223-5.607s-.249.028-.554.028c-.584,0-1.333-.055-1.388-.666,0,0,2.8-1.665,3.831-1.665a1.292,1.292,0,0,1,1.388,1.3c0,1.166-.14,2.721-.14,2.721C383.71,250.322,385.181,247.685,387.957,247.685Z" fill="#323304"/>
        <path d="M400.169,255.929a5.115,5.115,0,0,1-2.5-.583c.14,1.665.584,4.8,3.8,4.8,2.692,0,4.44-2.359,4.5-2.359.2,0,.473.083.473.388a6.382,6.382,0,0,1-5.746,3.72c-3.277,0-6.412-2.249-6.412-7.161,0-4.858,3.052-7.051,6.688-7.051,4.164,0,4.831,2.471,4.858,3.414C405.832,254.125,403.389,255.818,400.169,255.929Zm-2.581-1.638a4.156,4.156,0,0,0,2.082.639c2.248,0,3.165-1.8,3.165-3.747,0-1.721-.666-2.665-2.11-2.665-2.526,0-3.165,3.83-3.165,5.746Z" fill="#323304"/>
        <path d="M408.939,249.989s-.25.028-.556.028c-.582,0-1.331-.055-1.388-.666,0,0,2.8-1.665,3.831-1.665a1.291,1.291,0,0,1,1.388,1.3c0,.805-.11,2.332-.333,7.828,0,2.527.528,3.054.528,3.054a13.91,13.91,0,0,0,1.526-.972c.055,0,.306.139.306.583,0,.972-1.694,2.415-3.192,2.415-1.611,0-2.082-1.86-2.082-3.553,0-1.221.055-3,.055-4.414v-.666Zm3.137-5.829a1.892,1.892,0,0,1-1.889,2.027,1.584,1.584,0,0,1-1.5-1.721,1.886,1.886,0,0,1,1.859-2.027A1.574,1.574,0,0,1,412.076,244.16Z" fill="#323304"/>
        <path d="M419.93,252.876l-.028,5.912a11.806,11.806,0,0,0,.361,2.443c0-.028-.055.666-1.471.666-1.25,0-1.942-.5-1.942-1.5.028,0,.193-3.165.193-4.8l-.223-5.607s-.249.028-.554.028c-.584,0-1.333-.055-1.388-.666,0,0,2.8-1.665,3.831-1.665a1.292,1.292,0,0,1,1.388,1.3c0,.888-.085,2-.112,2.471.722-1.777,2.194-3.775,3.665-3.775.943,0,1.664.444,1.664,1.5a2.553,2.553,0,0,1-1.221,2.055c-.388-.249-.86-.722-1.388-.722C421.513,250.516,420.624,251.349,419.93,252.876Z" fill="#323304"/>
        <path d="M432.06,261.953c-3.664,0-6.329-2.692-6.329-7.079,0-3.969,2.3-7.189,6.607-7.189,3.664,0,6.3,2.5,6.3,6.94C438.638,259.094,435.864,261.953,432.06,261.953Zm.11-13.379c-1.942,0-3,2.11-3,6.218,0,4,1.082,6.107,3.025,6.107s3-2.054,3-6.162C435.2,250.794,434.142,248.573,432.171,248.573Z" fill="#323304"/>
      </g>
      <rect width="617" height="309" opacity="0.6" fill="url(#a)" style="mix-blend-mode: multiply"/>
      <path d="M2.935,314.153A9.545,9.545,0,0,1,0,313.658V316.2a15.645,15.645,0,0,0,4.252.591c6.528-.225,11.831-2.927,13.938-7.786H10.468A7.556,7.556,0,0,1,2.935,314.153Z" fill="#151019"/>
      <rect y="309.001" width="617" height="155" fill="#615491"/>
      <path d="M184.582,464.14a8.762,8.762,0,0,1-1.545-.143H186.2A9.66,9.66,0,0,1,184.582,464.14ZM544.822,464h-3.164a8.76,8.76,0,0,0,1.545.143A9.665,9.665,0,0,0,544.822,464ZM0,372.859m0,15.574M138.878,464h.989c-.14-.45-.283-.91-.433-1.393Q139.159,463.3,138.878,464Zm-56.3,0h.154l-.154-.076ZM20.789,322.713c0-.8-.732-1.024-1.244-1.024-.147,0-4.756,6.22-11.854,6.22A8.43,8.43,0,0,1,0,323.835V331.6a17.772,17.772,0,0,0,5.642.919C15.667,332.519,20.862,323.665,20.789,322.713Zm21.439,9.879c9.585,0,13.463-8.122,13.463-9a1.178,1.178,0,0,0-1.39-1.1c.146-.219-3.586,5.561-10.391,5.561-7.024,0-10.025-6.732-10.244-15.146A34.414,34.414,0,0,1,33.9,309H25.822a26,26,0,0,0-.5,5.079C25.326,326.738,33.3,332.592,42.229,332.592Zm21.439-9.439c.146,4.464,1.1,9.366,5.488,9.366,3.952,0,8.415-3.805,8.415-6.366,0-1.171-.659-1.537-.8-1.537a36.669,36.669,0,0,1-4.024,2.561s-1.391-1.391-1.391-8.049L71.733,309H63.795l.019.762C63.887,313.64,63.668,319.421,63.668,323.153Zm22.83,5.414c0,3.074,2.269,3.952,5.78,3.952,4.39,0,3.952-1.9,3.952-1.9-.879-1.1-1.171-4.976-1.171-10.171,0-6,0-4.171.147-10.757V309H87.414c-.019,2.67-.038,5.336-.038,6.689C87.376,320.006,86.5,328.567,86.5,328.567Zm26.342-5.414c.147,4.464,1.1,9.366,5.488,9.366,3.951,0,8.415-3.805,8.415-6.366,0-1.171-.659-1.537-.8-1.537a36.7,36.7,0,0,1-4.025,2.561s-1.39-1.391-1.39-8.049L120.905,309h-7.938l.019.762C113.06,313.64,112.84,319.421,112.84,323.153Zm35.2,9.439c9.585,0,13.464-8.122,13.464-9a1.178,1.178,0,0,0-1.391-1.1c.147-.219-3.585,5.561-10.391,5.561-7.024,0-10.024-6.732-10.244-15.146A34.4,34.4,0,0,1,139.7,309H131.63a26,26,0,0,0-.5,5.079C131.133,326.738,139.11,332.592,148.036,332.592Zm38.636-19.538.055-4.055h7.7l-.511,11.518a15.653,15.653,0,0,0,1.61,6.659,36.669,36.669,0,0,0,4.024-2.561c.147,0,.805.366.805,1.537,0,2.561-4.464,6.366-8.415,6.366-3.513,0-5.342-5.2-5.415-9.732-1.1,4.61-5.78,9.732-11.342,9.732-5.707,0-8.781-5.561-8.781-11.049,0-8.341,5.488-10.537,12.513-10.537A16.724,16.724,0,0,1,186.672,313.055Zm-.147,2.78a11.8,11.8,0,0,0-6.8-2.414c-2.488,0-5.122.951-5.122,6.146,0,3.293,1.317,6.586,4.9,6.586C183.745,326.153,186.306,319.86,186.526,315.835Zm63.221-6.073c0,3.878-.073,9.659-.073,13.391,0,4.464,2.122,9.366,5.415,9.366,3.951,0,8.415-3.805,8.415-6.366,0-1.171-.659-1.537-.805-1.537a36.669,36.669,0,0,1-4.024,2.561,12.457,12.457,0,0,1-1.61-6.659L257.581,309h-7.842Q249.746,309.377,249.746,309.762Zm-21.074,0c0,5.488-.878,19.537-.878,19.318,0,2.2.878,3.439,4.61,3.439,4.464,0,4.83-1.171,4.83-1.537,0,0-1.244-2.415-1.244-10.464l.5-11.518h-7.826Q228.672,309.377,228.672,309.762Zm-21.659,18.8c0,2.635,1.829,3.952,5.122,3.952,3.732,0,3.879-1.829,3.879-1.757a31.193,31.193,0,0,1-.951-6.439L215.351,309h-8.1l.274,6.908C207.526,320.226,207.086,328.567,207.014,328.567Zm77.052,3.952c10.025,0,15.22-8.854,15.146-9.806,0-.8-.731-1.024-1.244-1.024-.146,0-4.756,6.22-11.854,6.22-8.488,0-9.659-8.269-10.025-12.659a13.474,13.474,0,0,0,6.586,1.537c6.528-.225,11.831-2.927,13.938-7.786h-7.722a7.557,7.557,0,0,1-7.533,5.153,10.949,10.949,0,0,1-5.488-1.683l-.073-.073a28.9,28.9,0,0,1,.215-3.4h-8.448a26.059,26.059,0,0,0-.4,4.64C267.163,326.592,275.431,332.519,284.066,332.519Zm44.561-22.757c0,3.878-.073,9.659-.073,13.391.146,4.464,1.975,9.366,5.414,9.366,3.952,0,8.415-3.805,8.415-6.366,0-1.171-.659-1.537-.8-1.537a36.669,36.669,0,0,1-4.024,2.561,12.457,12.457,0,0,1-1.61-6.659L336.462,309h-7.843Q328.627,309.377,328.627,309.762Zm-21.659,18.8c0,2.635,1.829,4.025,5.122,3.952,3.732-.073,3.879-1.757,3.879-1.757a31.193,31.193,0,0,1-.951-6.439L315.307,309h-8.1l.274,6.908C307.554,320.226,306.969,328.567,306.969,328.567Zm49.83,3.952c8.488,0,12.073-8.415,12-9.22,0-.8-.731-1.024-1.244-1.024-.146,0-3.219,4.244-8.487,5.048-1.757-1.463-2.049-7.171-2.049-11.415v-1.391c0-.658-.073-1.609-.073-2.853,0-.8,0-1.7.013-2.665H349.3q.026,5.19.033,11.958C349.335,326.592,350.725,332.519,356.8,332.519Zm32.2,0c10.025,0,15.22-8.854,15.146-9.806,0-.8-.731-1.024-1.244-1.024-.146,0-4.756,6.22-11.854,6.22-8.488,0-9.659-8.269-10.025-12.659a13.474,13.474,0,0,0,6.586,1.537c6.528-.225,11.831-2.927,13.938-7.786H393.82a7.557,7.557,0,0,1-7.533,5.153,10.949,10.949,0,0,1-5.488-1.683l-.073-.073a28.9,28.9,0,0,1,.215-3.4h-8.448a26.059,26.059,0,0,0-.4,4.64C372.091,326.592,380.359,332.519,388.994,332.519Zm39.074,1.317c.073,4.317-.512,12.658-.512,12.658,0,2.635,1.829,4.024,5.122,3.951,3.733-.073,3.879-1.756,3.879-1.756a35.689,35.689,0,0,1-.951-6.659l.073-10.025a38.19,38.19,0,0,0,5.342.366c9.732,0,19.244-6.658,19.244-20.781,0-.891-.056-1.75-.14-2.591h-8.748a32.055,32.055,0,0,1,.254,4.128c0,8.122-3.732,16.9-10.464,16.9-.146,0-4.244,0-5.488-2.049L435.813,309h-8.057l.019.762C427.848,313.64,428.068,330.1,428.068,333.836Zm58.1-20.782.055-4.055h7.7l-.511,11.518a15.653,15.653,0,0,0,1.61,6.659,36.669,36.669,0,0,0,4.024-2.561c.147,0,.805.366.805,1.537,0,2.561-4.464,6.366-8.415,6.366-3.513,0-5.342-5.2-5.415-9.732-1.1,4.61-5.78,9.732-11.342,9.732-5.707,0-8.78-5.561-8.78-11.049,0-8.341,5.488-10.537,12.512-10.537A16.724,16.724,0,0,1,486.168,313.055Zm-.147,2.78a11.8,11.8,0,0,0-6.8-2.414c-2.488,0-5.122.951-5.122,6.146,0,3.293,1.317,6.586,4.9,6.586C483.241,326.153,485.8,319.86,486.021,315.835Zm20.488,12.732c0,2.635,1.829,3.952,5.122,3.952,3.732,0,3.879-1.829,3.879-1.757a31.193,31.193,0,0,1-.951-6.439L514.63,309h-7.883l.274,6.908C507.021,320.226,506.582,328.567,506.509,328.567ZM552.9,313.055l.055-4.055h7.7l-.511,11.518a15.653,15.653,0,0,0,1.61,6.659,36.669,36.669,0,0,0,4.024-2.561c.147,0,.805.366.805,1.537,0,2.561-4.464,6.366-8.415,6.366-3.513,0-5.342-5.2-5.415-9.732-1.1,4.61-5.78,9.732-11.342,9.732-5.707,0-8.781-5.561-8.781-11.049,0-8.341,5.488-10.537,12.513-10.537A16.724,16.724,0,0,1,552.9,313.055Zm-.147,2.78a11.8,11.8,0,0,0-6.8-2.414c-2.488,0-5.122.951-5.122,6.146,0,3.293,1.317,6.586,4.9,6.586C549.973,326.153,552.534,319.86,552.754,315.835Zm49.9,16.684c7.691,0,12.535-5.208,14.343-8.065v-2.709a1.807,1.807,0,0,0-.44-.056c-.146,0-4.756,6.22-11.854,6.22-8.488,0-9.659-8.269-10.025-12.659a13.474,13.474,0,0,0,6.586,1.537C607.8,316.561,613.1,313.86,615.2,309h-7.722a7.557,7.557,0,0,1-7.533,5.153,10.949,10.949,0,0,1-5.488-1.683l-.073-.073a28.885,28.885,0,0,1,.215-3.4h-8.448a26.064,26.064,0,0,0-.4,4.64C585.754,326.592,594.022,332.519,602.657,332.519ZM13.483,398.145c0-.805-.732-1.025-1.244-1.025-.147,0-4.756,6.22-11.854,6.22-.135,0-.253-.02-.385-.024v4.547C8.933,406.963,13.551,399.042,13.483,398.145ZM3.97,379.7c0,3.6-1.2,7.015-3.97,8.729v3.484c6.931-1.154,11.873-5.444,11.873-12.432C11.8,377.069,10.143,370.861,0,370.5v2.356C2.7,373.492,3.97,375.859,3.97,379.7Zm35.2-9.219c-3.878,0-7.756,5.268-9.659,9.951.073-1.244.293-4.171.293-6.512a3.405,3.405,0,0,0-3.658-3.439c-2.707,0-10.1,4.39-10.1,4.39.146,1.61,2.122,1.756,3.658,1.756.8,0,1.463-.073,1.463-.073l.585,14.78c0,4.318-.439,12.658-.512,12.658,0,2.635,1.829,3.952,5.122,3.952,3.733,0,3.879-1.829,3.879-1.756a31.2,31.2,0,0,1-.951-6.44l.073-15.585c1.829-4.025,4.171-6.22,7.317-6.22,1.391,0,2.635,1.244,3.659,1.9a6.734,6.734,0,0,0,3.219-5.414C43.555,371.655,41.654,370.485,39.165,370.485ZM77.8,398.145c.073.951-5.122,9.8-15.147,9.8-8.634,0-16.9-5.927-16.9-18.879,0-12.805,8.049-18.585,17.635-18.585,10.976,0,12.732,6.512,12.805,9,0,7.976-6.44,12.439-14.927,12.733a13.481,13.481,0,0,1-6.586-1.537c.365,4.39,1.537,12.658,10.025,12.658,7.1,0,11.707-6.22,11.854-6.22C77.07,397.12,77.8,397.339,77.8,398.145ZM54.459,387.9a10.95,10.95,0,0,0,5.488,1.683c5.927,0,8.341-4.756,8.341-9.879,0-4.536-1.756-7.024-5.561-7.024-6.659,0-8.341,10.1-8.341,15.147Zm86.782,12.147a36.689,36.689,0,0,1-4.024,2.56,12.453,12.453,0,0,1-1.61-6.659l.585-13.025v-.732c0-5.122-1.609-11.707-7.829-11.707-6.586,0-12.147,8.415-13.318,10.171-.293-4.756-2.2-10.171-7.756-10.171-7.317,0-11.2,6.952-13.536,10.61,0,0,.365-4.1.365-7.171a3.405,3.405,0,0,0-3.658-3.439c-2.707,0-10.1,4.39-10.1,4.39.146,1.61,2.122,1.756,3.658,1.756.8,0,1.463-.073,1.463-.073l.585,14.78c0,4.318-.439,12.658-.512,12.658,0,2.635,1.829,3.952,5.122,3.952,3.733,0,3.879-1.829,3.879-1.756a31.2,31.2,0,0,1-.951-6.44l.293-15.512c.073,0,4.39-6.951,8.781-6.951,3.878,0,4.536,3.585,4.536,7.9,0,5.488-.878,19.537-.878,19.318,0,2.2.878,3.439,4.61,3.439,4.464,0,4.83-1.171,4.83-1.537,0,0-1.244-2.415-1.244-10.464l.512-11.78c.659-.951,4.61-6.878,8.707-6.878,3.879,0,4.537,3.585,4.537,7.9,0,3.878-.073,9.659-.073,13.391,0,4.464,2.122,9.366,5.415,9.366,3.951,0,8.415-3.805,8.415-6.366C142.046,400.412,141.388,400.047,141.241,400.047Zm38.49-11.269c0,11.781-7.318,19.318-17.342,19.318-9.66,0-16.684-7.1-16.684-18.66,0-10.463,6.074-18.951,17.415-18.951C172.779,370.485,179.731,377.071,179.731,388.779Zm-9.073.292c0-10.39-2.78-16.244-7.975-16.244-5.122,0-7.9,5.562-7.9,16.391,0,10.537,2.854,16.1,7.975,16.1S170.658,399.9,170.658,389.07Zm51.661,10.977a36.689,36.689,0,0,1-4.024,2.56,12.453,12.453,0,0,1-1.61-6.659l.585-13.025c.147-5.268-1.317-12.439-7.83-12.439-7.318,0-11.2,6.952-13.537,10.61,0,0,.366-4.1.366-7.171a3.405,3.405,0,0,0-3.658-3.439c-2.707,0-10.1,4.39-10.1,4.39.147,1.61,2.122,1.756,3.659,1.756.8,0,1.463-.073,1.463-.073l.585,14.78c.073,4.318-.512,12.658-.512,12.658,0,2.635,1.829,4.025,5.122,3.952,3.732-.073,3.879-1.756,3.879-1.756a31.2,31.2,0,0,1-.951-6.44l.293-15.512c.073,0,4.39-6.951,8.781-6.951,3.878,0,4.536,3.585,4.536,7.9,0,3.878-.073,9.659-.073,13.391.146,4.464,1.975,9.366,5.414,9.366,3.952,0,8.415-3.805,8.415-6.366C223.123,400.412,222.465,400.047,222.319,400.047Zm21.219,0a36.689,36.689,0,0,1-4.024,2.56s-1.391-1.39-1.391-8.049c.585-14.489.878-18.513.878-20.635a3.405,3.405,0,0,0-3.658-3.439c-2.707,0-10.1,4.39-10.1,4.39.147,1.61,2.122,1.756,3.659,1.756.8,0,1.463-.073,1.463-.073l.219,8.634v1.756c0,3.733-.146,8.415-.146,11.635,0,4.464,1.244,9.366,5.488,9.366,3.951,0,8.415-3.805,8.415-6.366C244.343,400.412,243.684,400.047,243.538,400.047Zm-9.879-33.514c2.854,0,4.976-2.194,4.976-5.341,0-2.488-1.537-4.536-4.024-4.536-2.854,0-4.9,2.268-4.9,5.342C229.708,364.339,231.171,366.533,233.659,366.533ZM283.2,401.584c0,2.56-4.464,6.366-8.415,6.366-3.513,0-5.342-5.195-5.415-9.732-1.1,4.61-5.78,9.732-11.342,9.732-5.707,0-8.78-5.561-8.78-11.049,0-8.341,5.488-10.537,12.512-10.537a16.724,16.724,0,0,1,7.757,2.122l.073-5.342c0-4.244-1.024-10.39-6.951-10.39a22.176,22.176,0,0,0-6.366,1.171l1.391,7.61s-1.171,1.39-4.171,1.39c-2.854,0-4.1-2.854-4.1-4.61,0-3.439,3.292-7.83,15.147-7.83,11.268,0,13.17,6,12.732,13.9l-.513,11.56a15.653,15.653,0,0,0,1.61,6.659,36.689,36.689,0,0,0,4.024-2.56C282.539,400.047,283.2,400.412,283.2,401.584Zm-13.83-10.317a11.792,11.792,0,0,0-6.8-2.415c-2.488,0-5.122.951-5.122,6.146,0,3.293,1.317,6.586,4.9,6.586C266.587,401.584,269.149,395.291,269.368,391.266Zm68.855-4.245c0,14.123-9.512,20.781-19.244,20.781a38.19,38.19,0,0,1-5.342-.366l-.073,10.026a35.706,35.706,0,0,0,.951,6.659s-.146,1.682-3.879,1.756c-3.292.073-5.122-1.317-5.122-3.952,0,0,.585-8.341.512-12.658,0-3.732-.219-20.2-.293-24.074l-.219-8.634s-.659.073-1.463.073c-1.537,0-3.513-.146-3.659-1.756,0,0,7.391-4.39,10.1-4.39a3.405,3.405,0,0,1,3.658,3.439c0,1.025-.073,2.341-.146,3.805,1.975-3.22,6.366-7.317,10.829-7.317C333.247,370.412,338.223,377.363,338.223,387.022Zm-8.634,1.537c0-9.806-3.513-13.17-7.1-13.17-3.952,0-6.952,3.585-8.708,6v1.537l-.146,20.488c1.244,2.049,5.342,2.049,5.488,2.049C325.857,405.461,329.589,396.681,329.589,388.558Zm48.148.22c0,11.781-7.318,19.318-17.342,19.318-9.66,0-16.684-7.1-16.684-18.66,0-10.463,6.074-18.951,17.415-18.951C370.785,370.485,377.737,377.071,377.737,388.779Zm-9.073.292c0-10.39-2.78-16.244-7.975-16.244-5.122,0-7.9,5.562-7.9,16.391,0,10.537,2.854,16.1,7.975,16.1S368.663,399.9,368.663,389.07Zm34.977-18.585c-3.878,0-7.756,5.268-9.659,9.951.073-1.244.293-4.171.293-6.512a3.405,3.405,0,0,0-3.658-3.439c-2.707,0-10.1,4.39-10.1,4.39.147,1.61,2.123,1.756,3.659,1.756.8,0,1.463-.073,1.463-.073l.585,14.78c0,4.318-.439,12.658-.512,12.658,0,2.635,1.829,3.952,5.122,3.952,3.732,0,3.879-1.829,3.879-1.756a31.2,31.2,0,0,1-.951-6.44l.073-15.585c1.829-4.025,4.17-6.22,7.317-6.22,1.391,0,2.635,1.244,3.658,1.9a6.735,6.735,0,0,0,3.22-5.414C408.03,371.655,406.128,370.485,403.64,370.485Zm55.831,27.66c.073.951-5.122,9.8-15.146,9.8-8.635,0-16.9-5.927-16.9-18.879,0-12.805,8.049-18.585,17.634-18.585,10.976,0,12.733,6.512,12.805,9,0,7.976-6.439,12.439-14.927,12.733a13.485,13.485,0,0,1-6.586-1.537c.366,4.39,1.537,12.658,10.025,12.658,7.1,0,11.708-6.22,11.854-6.22C458.739,397.12,459.471,397.339,459.471,398.145ZM436.129,387.9a10.949,10.949,0,0,0,5.488,1.683c5.928,0,8.342-4.756,8.342-9.879,0-4.536-1.757-7.024-5.561-7.024-6.659,0-8.342,10.1-8.342,15.147Zm43.464,12.293a36.669,36.669,0,0,1-4.024,2.561,25.835,25.835,0,0,1-1.391-8.049l.366-29.489v-9a3.113,3.113,0,0,0-3.292-3.439c-2.708,0-10.1,4.39-10.1,4.39.147,1.611,2.122,1.757,3.658,1.757.805,0,1.464-.073,1.464-.073l.219,8.634c.073,3.879.147,27.294.147,31.026.146,4.463.585,9.585,5.341,9.585,3.952,0,8.415-3.805,8.415-6.366C480.4,400.559,479.739,400.193,479.593,400.193Zm52.978-2.048c.073.951-5.122,9.8-15.146,9.8-8.635,0-16.9-5.927-16.9-18.879,0-12.805,8.049-18.585,17.634-18.585,10.976,0,12.733,6.512,12.805,9,0,7.976-6.439,12.439-14.927,12.733a13.485,13.485,0,0,1-6.586-1.537c.366,4.39,1.537,12.658,10.025,12.658,7.1,0,11.708-6.22,11.854-6.22C531.839,397.12,532.57,397.339,532.57,398.145ZM509.228,387.9a10.95,10.95,0,0,0,5.488,1.683c5.927,0,8.341-4.756,8.341-9.879,0-4.536-1.757-7.024-5.561-7.024-6.659,0-8.342,10.1-8.342,15.147Zm40.757-3.292c-4.39-1.683-5.708-3.439-5.708-5.78,0-1.464.585-6.074,7.244-6.074a12.758,12.758,0,0,1,5.342,1.171l-1.391,7.61s1.171,1.39,4.171,1.39c2.854,0,4.1-2.854,4.1-4.61,0-3.439-1.9-7.83-12.367-7.83-8.268,0-14.268,4.1-14.268,9.732,0,5.488,3,8.268,6.878,9.8,9.073,3.586,12.658,5.122,12.658,8.415,0,3.073-2.341,7.244-7.975,7.244a13.63,13.63,0,0,1-4.683-.8l1.39-7.976s-.8-1.537-3.8-1.537a4.437,4.437,0,0,0-4.464,4.684c0,2.78,1.317,7.9,12.366,7.9,7.757,0,15.293-3.805,15.293-11.781C564.766,389.29,556.424,387.022,549.985,384.607Zm41.488,13.1c-.146,0-3.219,4.245-8.487,5.049-1.757-1.464-2.049-7.172-2.049-11.415v-1.39c0-.659-.073-1.61-.073-2.854,0-3.22.073-8.049.147-12.439.366,0,.659.073.951.073h1.244c6.512,0,7.39-1.024,7.39-3.658,0,0-2.78.294-5.927.294h-.951l-2.707.073c.073-4.024.219-7.025.219-7.025,0-2.122-.8-4.024-4.976-4.024-3,0-3.951,1.025-3.951,1.611a42.584,42.584,0,0,1,.878,6.512v2.926h-.8c-3.732.147-4.756,1.1-4.756,2.2a2.322,2.322,0,0,0,.293,1.171c1.025,0,3.073-.074,5.268-.147,0,4.829.073,12.073.073,21.732,0,5.634,1.39,11.561,7.464,11.561,8.488,0,12.073-8.415,12-9.219C592.717,397.925,591.986,397.705,591.473,397.705Zm18.878,3.513c-3.879,0-4.9-3.586-4.9-7.9l.146-10.391c.073-2.854.513-6.878.513-9a3.114,3.114,0,0,0-3.293-3.439c-2.707,0-10.1,4.39-10.1,4.39.146,1.61,2.122,1.756,3.658,1.756.8,0,1.463-.073,1.463-.073l.219,8.634c.073,3.878-.146,6.659-.146,10.39-.147,5.269,1.317,12.44,7.83,12.44,5.339,0,8.842-3.7,11.258-7.123v-3.867C615.318,398.972,612.848,401.218,610.351,401.218ZM15.7,445.041c-7.84,0-13.159,4.059-15.7,10.019V464H7.36c0-.076,0-.146,0-.223,0-10.829,2.78-16.391,7.9-16.391,5.2,0,7.976,5.854,7.976,16.244,0,.127-.005.244-.006.369h9.054c.005-.222.026-.436.026-.661C32.308,451.627,25.357,445.041,15.7,445.041Zm38.489,2.269a9.758,9.758,0,0,1,5.342,1.244l-1.39,7.609s1.171,1.391,4.17,1.391c2.854,0,4.1-3,4.1-4.756,0-3.147-2.78-7.757-12.147-7.757-10.15,0-17.165,7.144-17.193,18.955h8.392c-.021-.365-.043-.729-.052-1.1C45.407,458.213,46.5,447.31,54.187,447.31ZM94.281,464H82.732l-.154-.076V464H75.008l-.552-30.736s-.658.073-1.463.073c-1.537,0-3.513-.147-3.658-1.757,0,0,7.39-4.39,10.1-4.39a3.4,3.4,0,0,1,3.658,3.439c0,4.316-.513,11.268-.513,21v4.17c3.074-7.024,9-10.756,13.318-10.756,3.658,0,7.975,2.561,7.975,7.171C103.872,458.358,98.964,462.169,94.281,464Zm1.688-9.3c0-2.707-1.025-4.61-3.22-4.61-3.146,0-7.244,3-10.172,10.829v.073a10.572,10.572,0,0,0,5.927,1.976C92.75,462.969,95.969,458.8,95.969,454.7Zm47.563-6.658a3.859,3.859,0,0,0-3.732-3,6.268,6.268,0,0,0-5.634,3.439,55.108,55.108,0,0,1,3.073,6.952l.366,1.171A62.689,62.689,0,0,1,135.377,464h3.5q.28-.7.556-1.393c.15.483.293.943.433,1.393h8.276C146.982,459.936,145.475,454.709,143.532,448.042Zm-22.464,0a3.6,3.6,0,0,0-3.658-3c-2.708,0-9.66,4.171-9.66,4.171.147,1.609,2.123,1.756,3.659,1.756a17.681,17.681,0,0,0,1.9-.147c1.865,5.48,3.34,9.774,4.52,13.175h8.007C124.585,459.936,123.011,454.709,121.068,448.042Zm41.415-3c-2.707,0-8.049,3.292-8.049,3.292.147,1.611,2.122,1.757,3.658,1.757.805,0,2.854-.22,2.854-.22,0,4.3-1.549,9.435-3.416,14.126h3.56c2.635-6.123,4.978-12.371,4.978-15.223A3.578,3.578,0,0,0,162.484,445.041Zm38.342,9c-.073-2.488-1.829-9-12.805-9-9.585,0-17.634,5.78-17.634,18.585,0,.127.013.243.015.369h12.636a11.384,11.384,0,0,1-3.944-1.54l-.073-.073c0-5.05,1.683-15.147,8.342-15.147,3.8,0,5.561,2.488,5.561,7.024,0,4.625-1.978,8.938-6.722,9.736h9.367A11.43,11.43,0,0,0,200.826,454.042Zm16.683-23.269a3.113,3.113,0,0,0-3.292-3.439c-2.708,0-10.1,4.39-10.1,4.39.147,1.611,2.122,1.757,3.658,1.757.805,0,1.464-.073,1.464-.073l.219,8.634c.048,2.563.1,13.648.124,21.956h7.624l.3-24.223Zm20.782,0A3.113,3.113,0,0,0,235,427.334c-2.708,0-10.1,4.39-10.1,4.39.147,1.611,2.122,1.757,3.658,1.757.805,0,1.464-.073,1.464-.073l.219,8.634c.048,2.563.1,13.648.124,21.956h7.624l.3-24.223Zm59.636,27.22c-3.732.073-3.878,1.756-3.878,1.756a18.016,18.016,0,0,1,.989,4.247h7.878c.076-1.243.133-2.052.133-2.052C303.049,459.311,301.219,457.92,297.926,457.993ZM273.633,456.6c0-12.659,4.83-23.342,15-23.342,5.195,0,7.39,2.048,7.317,2.048l-2.853,8.415a9.094,9.094,0,0,0,5.414,2.342c3.732,0,5.049-4.464,5.049-6.147,0-4.024-4.171-9.219-15.878-9.219-13.537,0-24.147,10.464-24.147,26.269a39.241,39.241,0,0,0,.6,7.028h10.212A37.484,37.484,0,0,1,273.633,456.6Zm54.514-4.1c1.391,0,2.635,1.244,3.658,1.9a6.735,6.735,0,0,0,3.22-5.414c0-2.781-1.9-3.952-4.39-3.952-3.878,0-7.756,5.268-9.659,9.951.073-1.244.293-4.171.293-6.512a3.405,3.405,0,0,0-3.658-3.439c-2.707,0-10.1,4.39-10.1,4.39.147,1.61,2.122,1.756,3.659,1.756.8,0,1.463-.073,1.463-.073l.51,12.881h7.661l.025-5.271C322.66,454.7,325,452.5,328.147,452.5Zm26.489-7.464c-11.341,0-17.415,8.488-17.415,18.951v0H346.3c0-.076,0-.146,0-.223,0-10.829,2.78-16.391,7.9-16.391,5.195,0,7.975,5.854,7.975,16.244,0,.127-.005.244-.006.369h9.054c.005-.222.026-.436.026-.661C371.247,451.627,364.3,445.041,354.637,445.041Zm30.952,12.439c.073-2.854.513-6.878.513-9a3.114,3.114,0,0,0-3.293-3.439c-2.707,0-10.1,4.39-10.1,4.39.146,1.61,2.122,1.756,3.658,1.756.8,0,1.463-.073,1.463-.073l.219,8.634c.029,1.548.011,2.919-.02,4.247H385.5Zm21.879-8.415c0-2.635-1.829-4.024-5.122-3.951-3.732.073-3.586,1.756-3.586,1.756a31.209,31.209,0,0,1,.951,6.439l-.4,10.687h7.517l.057-2.272C406.956,457.554,407.467,449.066,407.467,449.066Zm32.489-4.1c-4.464,0-8.854,4.1-10.829,7.317.073-1.464.146-2.78.146-3.805a3.405,3.405,0,0,0-3.658-3.439c-2.707,0-10.1,4.39-10.1,4.39.147,1.61,2.123,1.756,3.659,1.756.8,0,1.463-.073,1.463-.073l.219,8.634c.017.873.04,2.387.068,4.247h7.935l.046-6.516v-1.537c1.757-2.414,4.756-6,8.708-6,3.585,0,7.1,3.365,7.1,13.17,0,.293-.006.587-.016.881h8.55c.064-.781.1-1.585.1-2.418C453.347,451.92,448.371,444.969,439.956,444.969Zm70.172,0c-4.464,0-8.854,4.1-10.829,7.317.073-1.464.146-2.78.146-3.805a3.405,3.405,0,0,0-3.658-3.439c-2.707,0-10.1,4.39-10.1,4.39.147,1.61,2.123,1.756,3.659,1.756.8,0,1.463-.073,1.463-.073l.219,8.634c.017.873.04,2.387.068,4.247h7.935l.046-6.516v-1.537c1.757-2.414,4.756-6,8.708-6,3.585,0,7.1,3.365,7.1,13.17,0,.293-.006.587-.016.881h8.55c.064-.781.1-1.585.1-2.418C523.519,451.92,518.544,444.969,510.129,444.969Zm49.318,9.073c-.073-2.488-1.829-9-12.805-9-9.585,0-17.634,5.78-17.634,18.585,0,.127.013.243.015.369h12.636a11.384,11.384,0,0,1-3.943-1.54l-.073-.073c0-5.05,1.683-15.147,8.342-15.147,3.8,0,5.561,2.488,5.561,7.024,0,4.625-1.978,8.938-6.722,9.736h9.368A11.43,11.43,0,0,0,559.446,454.042Zm24.805-1.537c1.391,0,2.635,1.244,3.658,1.9a6.735,6.735,0,0,0,3.22-5.414c0-2.781-1.9-3.952-4.39-3.952-3.878,0-7.756,5.268-9.659,9.951.073-1.244.293-4.171.293-6.512a3.405,3.405,0,0,0-3.658-3.439c-2.707,0-10.1,4.39-10.1,4.39.147,1.61,2.123,1.756,3.659,1.756.8,0,1.463-.073,1.463-.073l.51,12.881h7.661l.025-5.271C578.764,454.7,581.1,452.5,584.251,452.5Zm21.147-3.292c.366,0,.659.073.951.073h1.244c6.512,0,7.39-1.024,7.39-3.658,0,0-2.78.294-5.927.294h-.951l-2.707.073c.073-4.024.219-7.025.219-7.025,0-2.122-.8-4.024-4.976-4.024-3,0-3.951,1.025-3.951,1.611a42.584,42.584,0,0,1,.878,6.512v2.926h-.8c-3.732.147-4.756,1.1-4.756,2.2a2.322,2.322,0,0,0,.293,1.171c1.025,0,3.073-.074,5.268-.147,0,3.591.041,8.521.061,14.784h7.684c-.02-.61-.063-1.389-.063-2.345C605.251,458.432,605.325,453.6,605.4,449.213Z" fill="#151019"/>
      <rect y="464" width="617" height="309" fill="#f5f5f5"/>
      <g>
        <path d="M104.478,680.857c.872,15.1,2.324,23.524,3.776,25.557,0,2.033-.581,6.68-15.392,6.971H90.828c-12.488,0-18.3-2.614-18.3-14.231,0,0,1.453-22.943,1.453-40.659,0-4.357,0-8.423-.291-51.115-.29-28.171-2.323-87.127-2.323-87.127s-2.614.29-5.809.29c-4.938,0-11.327-2.323-13.359-6.1-1.162-2.033-1.162-5.228-1.162-6.971,0,0,29.333-13.649,40.078-13.649,8.423,0,14.231,5.809,14.231,13.359v82.481c6.389-6.97,28.462-25.267,49.953-25.267,29.333,0,40.369,23.525,39.788,43.854L193.058,667.5c0,13.65,4.356,22.654,4.356,22.654,4.357-.581,16.554-4.647,16.554-4.647s3.195,2.9,3.195,6.389c0,13.94-20.91,21.2-37.174,21.2-15.392,0-18.3-16.554-18.587-35.432.581-14.231,1.743-40.079,1.743-54.891,0-17.135-4.938-30.2-30.786-30.2-14.23,0-25.557,9.294-27.009,10.455Z" fill="#abbf9f"/>
        <g opacity="0.1" style="mix-blend-mode: multiply">
          <path d="M91.118,494.823c7.667,0,13.231,5.2,13.231,12.359v85.051l1.737-1.9a93.739,93.739,0,0,1,19.093-15.067c7.448-4.505,18.721-9.875,30.122-9.875s20.647,3.566,27.482,10.6c7.549,7.768,11.67,19.514,11.307,32.221L192.058,667.5c0,13.722,4.274,22.713,4.456,23.089l.315.651.717-.1c3.9-.52,13.622-3.664,16.148-4.494.788.849,2.469,2.931,2.469,5.245,0,13.781-21.586,20.2-36.174,20.2-6.655,0-11.245-3.277-14.033-10.019-2.25-5.444-3.38-13.2-3.554-24.4l.233-5.631c.6-14.431,1.509-36.24,1.509-49.273,0-10.362-1.828-17.2-5.929-22.164-5.022-6.083-13.479-9.04-25.857-9.04-12.932,0-23.573,7.416-27.548,10.605l-.086.069-.37.3-.005.474-.872,77.835v.034l0,.034c.468,8.111,1.573,22.022,3.768,25.782a3.711,3.711,0,0,1-1.724,3.047c-2.243,1.631-6.51,2.52-12.662,2.641H90.828c-13.242,0-17.289-3.085-17.3-13.2.062-.989,1.453-23.449,1.453-40.69,0-4.333,0-8.426-.291-51.125-.287-27.861-2.3-86.562-2.324-87.151l-.037-1.078-1.072.119c-.026,0-2.6.284-5.7.284-4.558,0-10.626-2.131-12.491-5.595-.907-1.587-1.015-4.134-1.028-5.834,4.161-1.9,29.494-13.29,39.077-13.29m0-1c-10.746,0-40.078,13.649-40.078,13.649,0,1.743,0,4.938,1.162,6.971,2.033,3.776,8.422,6.1,13.359,6.1,3.195,0,5.809-.29,5.809-.29s2.033,58.956,2.323,87.127c.291,42.692.291,46.758.291,51.115,0,17.716-1.453,40.659-1.453,40.659,0,11.617,5.809,14.231,18.3,14.231h2.033c14.811-.291,15.392-4.938,15.392-6.971-1.452-2.033-2.9-10.456-3.776-25.557l.872-77.835c1.452-1.161,12.779-10.455,27.009-10.455,25.848,0,30.786,13.069,30.786,30.2,0,14.811-1.162,40.659-1.743,54.891.291,18.877,3.195,35.432,18.587,35.432,16.264,0,37.174-7.261,37.174-21.2,0-3.485-3.195-6.389-3.195-6.389s-12.2,4.066-16.554,4.647c0,0-4.356-9-4.356-22.654l2.033-59.246c.581-20.329-10.456-43.854-39.788-43.854-21.491,0-43.564,18.3-49.953,25.267V507.182c0-7.551-5.809-13.359-14.231-13.359Z" fill="#295d19"/>
        </g>
      </g>
      <g>
        <path d="M344.657,564.687c25.848,0,31.657,28.461,31.076,49.372l-2.324,51.7c0,17.135,6.39,26.429,6.39,26.429,3.776-1.452,15.973-10.165,15.973-10.165.581,0,3.195,1.453,3.195,6.1,0,10.165-17.716,25.267-33.4,25.267-13.65,0-20.911-19.459-21.492-37.174,0-14.812.291-37.755.291-53.148,0-17.135-2.614-31.367-18.006-31.367-17.426,0-34.561,27.591-34.851,27.591l-1.162,61.57c.872,15.682,3.776,25.557,3.776,25.557s-.581,6.68-15.392,6.971c-13.069.29-20.33-5.228-20.33-15.683,0,0,2.324-33.109,2.033-50.244L258.11,517.928s-2.614.291-5.809.291c-6.1,0-13.94-.581-14.521-6.971,0,0,29.333-17.425,40.078-17.425,8.714,0,13.069,5.809,13.069,13.649,0,28.172.871,64.475,0,99.326C300.222,592.277,315.614,564.687,344.657,564.687Z" fill="#abbf9f"/>
        <g opacity="0.1" style="mix-blend-mode: multiply">
          <path d="M277.859,494.823c7.557,0,12.069,4.729,12.069,12.649,0,8.9.087,18.584.178,28.835.2,21.862.417,46.64-.178,70.466l-.09,3.582,1.931-3.018c.6-.939,1.227-1.932,1.88-2.968,4.826-7.655,10.833-17.182,19.125-25.007,9.752-9.2,20.18-13.675,31.881-13.675,7.517,0,13.77,2.51,18.584,7.459,11.081,11.393,11.728,32.387,11.493,40.868l-2.325,51.741c0,17.248,6.3,26.606,6.566,27l.447.65.736-.283c3.495-1.344,13.573-8.425,15.781-9.99.668.393,2.028,1.775,2.028,4.991,0,4.575-4,10.575-10.438,15.66-6.824,5.389-15.033,8.607-21.96,8.607-7.413,0-12.116-6.2-14.755-11.4-3.345-6.589-5.436-15.632-5.737-24.778,0-7.331.073-16.86.143-26.075.073-9.488.148-19.3.148-27.073,0-16.005-2.258-32.367-19.006-32.367-10.437,0-22.518,9.343-34.935,27.017-.147.209-.29.413-.4.573h-.493l-.019.981-1.162,61.57v.037l0,.037a129.122,129.122,0,0,0,3.753,25.565c-.4,2.046-3.832,5.7-14.394,5.908-.319.007-.636.011-.948.011-15.149,0-18.349-7.963-18.36-14.66.088-1.26,2.317-33.562,2.033-50.3L259.11,517.91l-.02-1.1-1.091.121c-.026,0-2.6.285-5.7.285-6.161,0-12.514-.664-13.439-5.446,4.133-2.411,29.457-16.95,39-16.95m0-1c-10.746,0-40.078,17.425-40.078,17.425.581,6.39,8.423,6.971,14.521,6.971,3.195,0,5.809-.291,5.809-.291l2.323,129.53c.291,17.135-2.033,50.244-2.033,50.244,0,10.195,6.9,15.694,19.36,15.694.319,0,.644,0,.97-.011,14.811-.291,15.392-6.971,15.392-6.971s-2.9-9.875-3.776-25.557l1.162-61.57c.29,0,17.425-27.591,34.851-27.591,15.392,0,18.006,14.231,18.006,31.367,0,15.392-.291,38.335-.291,53.148.581,17.715,7.842,37.174,21.492,37.174,15.682,0,33.4-15.1,33.4-25.267,0-4.647-2.614-6.1-3.195-6.1,0,0-12.2,8.714-15.973,10.165,0,0-6.39-9.294-6.39-26.429l2.324-51.7c.581-20.911-5.228-49.372-31.076-49.372-29.043,0-44.435,27.59-53.729,42.111.871-34.851,0-71.154,0-99.326,0-7.841-4.356-13.649-13.069-13.649Z" fill="#295d19"/>
        </g>
      </g>
      <g>
        <path d="M438.464,503.406c-2.9,0-13.94,4.357-19.168,8.423-.291,0-.871-.871-.871-2.614a9.965,9.965,0,0,1,2.033-5.518c11.036-12.488,36.593-18.587,48.21-18.587,4.357,0,6.971,3.485,6.971,7.551,0,2.033-3.776,82.19-8.423,133.305,6.1-18.3,19.458-61.279,51.986-61.279,15.973,0,28.462,12.2,28.462,35.722,0,22.944-6.1,42.693-6.1,66.8,0,15.973,5.228,28.462,10.165,30.495A58.065,58.065,0,0,0,564.8,685.213c.29.291,1.162,1.162,1.162,4.066,0,9.585-12.779,24.106-31.076,24.106-24.4,0-25.848-29.334-25.848-46.178,0-21.2,13.359-88.87-2.033-88.87-17.135,0-40.369,50.244-40.95,93.227-.29,22.943,6.971,34.561,6.971,34.561a24.14,24.14,0,0,1-17.425,7.551c-14.812,0-20.04-8.132-20.33-30.495Z" fill="#abbf9f"/>
        <g opacity="0.1" style="mix-blend-mode: multiply">
          <path d="M468.667,486.11c4.1,0,5.971,3.4,5.971,6.551,0,1.712-3.688,81.182-8.419,133.215l-.78,8.581,2.725-8.174.513-1.545c6.362-19.167,19.6-59.051,50.524-59.051a24.782,24.782,0,0,1,19.461,8.689c5.234,6.125,8,15.127,8,26.033,0,11.26-1.449,21.54-2.983,32.424-1.532,10.867-3.116,22.1-3.116,34.374,0,16.664,5.6,29.284,10.784,31.419l.508.209.449-.317a57.62,57.62,0,0,0,12.367-11.562,7.8,7.8,0,0,1,.288,2.322c0,9.3-12.629,23.106-30.076,23.106-10.3,0-17.212-5.27-21.132-16.112-3.294-9.11-3.716-20.319-3.716-29.066,0-5.87,1.022-15.227,2.2-26.061,2.774-25.4,5.918-54.2-.91-61.811a5.632,5.632,0,0,0-4.328-2c-8.571,0-18.888,11.621-27.6,31.086-8.717,19.486-14.083,43.085-14.354,63.128-.255,20.17,5.195,31.608,6.733,34.427a23.45,23.45,0,0,1-16.188,6.7c-14.166,0-19.044-7.446-19.33-29.477l3.195-179.773.018-1.018h-1.018c-2.956,0-13.18,3.927-18.915,7.991a5.107,5.107,0,0,1-.124-1.182,9.083,9.083,0,0,1,1.817-4.895C432,492.2,457.434,486.11,468.667,486.11m0-1c-11.617,0-37.174,6.1-48.21,18.587a9.965,9.965,0,0,0-2.033,5.518c0,1.743.58,2.614.871,2.614,5.228-4.066,16.263-8.423,19.168-8.423L435.269,683.18c.29,22.363,5.518,30.495,20.33,30.495a24.14,24.14,0,0,0,17.425-7.551s-7.261-11.617-6.971-34.561c.581-42.983,23.815-93.227,40.95-93.227,15.392,0,2.033,67.669,2.033,88.87,0,16.844,1.452,46.178,25.848,46.178,18.3,0,31.076-14.521,31.076-24.106,0-2.9-.872-3.775-1.162-4.066A58.064,58.064,0,0,1,551.729,697.7c-4.937-2.033-10.165-14.521-10.165-30.495,0-24.1,6.1-43.854,6.1-66.8,0-23.524-12.488-35.722-28.462-35.722-32.528,0-45.887,42.982-51.986,61.279,4.647-51.115,8.423-131.272,8.423-133.305,0-4.066-2.614-7.551-6.971-7.551Z" fill="#295d19"/>
        </g>
      </g>
      <g>
        <path d="M94.57,751.479v-1.535a6.632,6.632,0,0,0,2.472.6,1.812,1.812,0,0,0,1.133-.32,1.041,1.041,0,0,0,.414-.87,1.082,1.082,0,0,0-.26-.734,3.961,3.961,0,0,0-.985-.71l-.6-.332a5.879,5.879,0,0,1-1.7-1.3,2.248,2.248,0,0,1-.5-1.447,2.188,2.188,0,0,1,.813-1.776,3.267,3.267,0,0,1,2.148-.671,10.837,10.837,0,0,1,2.41.309v1.432a6.663,6.663,0,0,0-2.169-.514,1.622,1.622,0,0,0-.988.275.858.858,0,0,0-.371.722.913.913,0,0,0,.26.646,4.344,4.344,0,0,0,.979.684l.641.356a6.275,6.275,0,0,1,1.783,1.335,2.514,2.514,0,0,1-.436,3.438,4.105,4.105,0,0,1-2.55.707A12.293,12.293,0,0,1,94.57,751.479Z" fill="#e27942"/>
        <path d="M105.394,750.844a2.728,2.728,0,0,1-1.916.864,1.938,1.938,0,0,1-1.414-.532,1.843,1.843,0,0,1-.544-1.378,1.925,1.925,0,0,1,.88-1.694,4.467,4.467,0,0,1,2.517-.6h.478v-.6q0-1.033-1.179-1.033a4.348,4.348,0,0,0-2.115.593V745.23a6.759,6.759,0,0,1,2.405-.46q2.6,0,2.6,2.073v2.937q0,.779.5.779a1.452,1.452,0,0,0,.235-.024l.042,1a3.558,3.558,0,0,1-1,.17,1.337,1.337,0,0,1-1.414-.864Zm0-.961v-1.348h-.423q-1.734,0-1.734,1.088a.856.856,0,0,0,.87.87A1.932,1.932,0,0,0,105.394,749.883Z" fill="#e27942"/>
        <path d="M109.418,751.557v-6.635h1.716v1.251a2.45,2.45,0,0,1,2.235-1.4,1.975,1.975,0,0,1,1.233.369,1.556,1.556,0,0,1,.592,1.033,2.679,2.679,0,0,1,2.248-1.4q1.819,0,1.818,2.007v4.779h-1.716v-4.193q0-1.179-.785-1.179-.8,0-1.565,1.16v4.212h-1.716v-4.193q0-1.185-.792-1.185t-1.553,1.166v4.212Z" fill="#e27942"/>
        <path d="M121.418,751.557v-9.541h1.788v4.157a2.413,2.413,0,0,1,4.052-.526,3.822,3.822,0,0,1,.686,2.411,4.211,4.211,0,0,1-.773,2.656,2.487,2.487,0,0,1-2.066.994,2.529,2.529,0,0,1-1.9-.822l-.332.671Zm1.788-1.734a1.877,1.877,0,0,0,1.39.726,1.191,1.191,0,0,0,1.052-.638,3.219,3.219,0,0,0,.393-1.7q0-2.036-1.311-2.036a1.982,1.982,0,0,0-1.523,1.021Z" fill="#e27942"/>
        <path d="M132.869,750.844a2.728,2.728,0,0,1-1.916.864,1.938,1.938,0,0,1-1.414-.532A1.843,1.843,0,0,1,129,749.8a1.925,1.925,0,0,1,.88-1.694,4.467,4.467,0,0,1,2.517-.6h.478v-.6q0-1.033-1.179-1.033a4.348,4.348,0,0,0-2.115.593V745.23a6.759,6.759,0,0,1,2.405-.46q2.6,0,2.6,2.073v2.937q0,.779.5.779a1.452,1.452,0,0,0,.235-.024l.042,1a3.558,3.558,0,0,1-1,.17,1.337,1.337,0,0,1-1.414-.864Zm0-.961v-1.348h-.423q-1.734,0-1.734,1.088a.856.856,0,0,0,.87.87A1.932,1.932,0,0,0,132.869,749.883Z" fill="#e27942"/>
        <path d="M140.471,751.479v-1.535a6.632,6.632,0,0,0,2.472.6,1.812,1.812,0,0,0,1.133-.32,1.041,1.041,0,0,0,.414-.87,1.082,1.082,0,0,0-.26-.734,3.961,3.961,0,0,0-.985-.71l-.6-.332a5.879,5.879,0,0,1-1.7-1.3,2.248,2.248,0,0,1-.5-1.447,2.188,2.188,0,0,1,.813-1.776,3.267,3.267,0,0,1,2.148-.671,10.837,10.837,0,0,1,2.41.309v1.432a6.663,6.663,0,0,0-2.169-.514,1.622,1.622,0,0,0-.988.275.858.858,0,0,0-.371.722.913.913,0,0,0,.26.646,4.344,4.344,0,0,0,.979.684l.641.356a6.275,6.275,0,0,1,1.783,1.335,2.514,2.514,0,0,1-.436,3.438,4.105,4.105,0,0,1-2.55.707A12.293,12.293,0,0,1,140.471,751.479Z" fill="#e27942"/>
        <path d="M148.042,751.557v-6.635h1.716v1.251a2.45,2.45,0,0,1,2.235-1.4,1.975,1.975,0,0,1,1.233.369,1.556,1.556,0,0,1,.592,1.033,2.679,2.679,0,0,1,2.248-1.4q1.819,0,1.818,2.007v4.779h-1.716v-4.193q0-1.179-.785-1.179-.8,0-1.565,1.16v4.212H152.1v-4.193q0-1.185-.792-1.185t-1.553,1.166v4.212Z" fill="#e27942"/>
        <path d="M163.294,750.844a2.728,2.728,0,0,1-1.916.864,1.938,1.938,0,0,1-1.414-.532,1.843,1.843,0,0,1-.544-1.378,1.925,1.925,0,0,1,.88-1.694,4.467,4.467,0,0,1,2.517-.6h.478v-.6q0-1.033-1.179-1.033a4.348,4.348,0,0,0-2.115.593V745.23a6.759,6.759,0,0,1,2.405-.46q2.6,0,2.6,2.073v2.937q0,.779.5.779a1.452,1.452,0,0,0,.235-.024l.042,1a3.558,3.558,0,0,1-1,.17,1.337,1.337,0,0,1-1.414-.864Zm0-.961v-1.348h-.423q-1.734,0-1.734,1.088a.856.856,0,0,0,.87.87A1.932,1.932,0,0,0,163.294,749.883Z" fill="#e27942"/>
        <path d="M167.318,751.557v-9.541h1.788v9.541Z" fill="#e27942"/>
        <path d="M171.343,751.557v-9.541h1.788v9.541Z" fill="#e27942"/>
      </g>
      <g>
        <path d="M278.283,751.479v-1.535a6.632,6.632,0,0,0,2.472.6,1.812,1.812,0,0,0,1.133-.32,1.041,1.041,0,0,0,.414-.87,1.082,1.082,0,0,0-.26-.734,3.961,3.961,0,0,0-.985-.71l-.6-.332a5.879,5.879,0,0,1-1.7-1.3,2.248,2.248,0,0,1-.5-1.447,2.188,2.188,0,0,1,.813-1.776,3.267,3.267,0,0,1,2.148-.671,10.837,10.837,0,0,1,2.41.309v1.432a6.663,6.663,0,0,0-2.169-.514,1.622,1.622,0,0,0-.988.275.858.858,0,0,0-.371.722.913.913,0,0,0,.26.646,4.344,4.344,0,0,0,.979.684l.641.356a6.275,6.275,0,0,1,1.783,1.335,2.514,2.514,0,0,1-.436,3.438,4.105,4.105,0,0,1-2.55.707A12.293,12.293,0,0,1,278.283,751.479Z" fill="#e27942"/>
        <path d="M289.106,750.844a2.728,2.728,0,0,1-1.916.864,1.938,1.938,0,0,1-1.414-.532,1.843,1.843,0,0,1-.544-1.378,1.925,1.925,0,0,1,.88-1.694,4.467,4.467,0,0,1,2.517-.6h.478v-.6q0-1.033-1.179-1.033a4.348,4.348,0,0,0-2.115.593V745.23a6.759,6.759,0,0,1,2.405-.46q2.6,0,2.6,2.073v2.937q0,.779.5.779a1.452,1.452,0,0,0,.235-.024l.042,1a3.558,3.558,0,0,1-1,.17,1.337,1.337,0,0,1-1.414-.864Zm0-.961v-1.348h-.423q-1.734,0-1.734,1.088a.856.856,0,0,0,.87.87A1.932,1.932,0,0,0,289.106,749.883Z" fill="#e27942"/>
        <path d="M293.131,751.557v-6.635h1.716v1.251a2.45,2.45,0,0,1,2.235-1.4,1.975,1.975,0,0,1,1.233.369,1.556,1.556,0,0,1,.592,1.033,2.679,2.679,0,0,1,2.248-1.4q1.819,0,1.818,2.007v4.779h-1.716v-4.193q0-1.179-.785-1.179-.8,0-1.565,1.16v4.212h-1.716v-4.193q0-1.185-.792-1.185t-1.553,1.166v4.212Z" fill="#e27942"/>
        <path d="M305.131,751.557v-9.541h1.788v4.157a2.413,2.413,0,0,1,4.052-.526,3.822,3.822,0,0,1,.686,2.411,4.211,4.211,0,0,1-.773,2.656,2.487,2.487,0,0,1-2.066.994,2.529,2.529,0,0,1-1.9-.822l-.332.671Zm1.788-1.734a1.877,1.877,0,0,0,1.39.726,1.191,1.191,0,0,0,1.052-.638,3.219,3.219,0,0,0,.393-1.7q0-2.036-1.311-2.036a1.982,1.982,0,0,0-1.523,1.021Z" fill="#e27942"/>
        <path d="M316.582,750.844a2.728,2.728,0,0,1-1.916.864,1.938,1.938,0,0,1-1.414-.532,1.843,1.843,0,0,1-.544-1.378,1.925,1.925,0,0,1,.88-1.694,4.467,4.467,0,0,1,2.517-.6h.478v-.6q0-1.033-1.179-1.033a4.348,4.348,0,0,0-2.115.593V745.23a6.759,6.759,0,0,1,2.405-.46q2.6,0,2.6,2.073v2.937q0,.779.5.779a1.452,1.452,0,0,0,.235-.024l.042,1a3.558,3.558,0,0,1-1,.17,1.337,1.337,0,0,1-1.414-.864Zm0-.961v-1.348h-.423q-1.734,0-1.734,1.088a.856.856,0,0,0,.87.87A1.932,1.932,0,0,0,316.582,749.883Z" fill="#e27942"/>
        <path d="M324.686,751.557v-8.943h1.861v7.675h4.03v1.269Z" fill="#e27942"/>
        <path d="M335.133,750.844a2.728,2.728,0,0,1-1.916.864,1.938,1.938,0,0,1-1.414-.532,1.843,1.843,0,0,1-.544-1.378,1.925,1.925,0,0,1,.88-1.694,4.467,4.467,0,0,1,2.517-.6h.478v-.6q0-1.033-1.179-1.033a4.348,4.348,0,0,0-2.115.593V745.23a6.759,6.759,0,0,1,2.405-.46q2.6,0,2.6,2.073v2.937q0,.779.5.779a1.452,1.452,0,0,0,.235-.024l.042,1a3.558,3.558,0,0,1-1,.17,1.337,1.337,0,0,1-1.414-.864Zm0-.961v-1.348h-.423q-1.734,0-1.734,1.088a.856.856,0,0,0,.87.87A1.932,1.932,0,0,0,335.133,749.883Z" fill="#e27942"/>
        <path d="M339.157,751.557v-6.635h1.788v1.251a2.248,2.248,0,0,1,2.115-1.4,1.572,1.572,0,0,1,.332.036v1.6a2.067,2.067,0,0,0-.707-.139,2,2,0,0,0-1.74,1.081v4.212Z" fill="#e27942"/>
        <path d="M344.831,753.617l.146-1.3a5.061,5.061,0,0,0,2.108.507,2.021,2.021,0,0,0,1.433-.423,1.833,1.833,0,0,0,.44-1.371v-.906a2.221,2.221,0,0,1-2.157,1.432,2.263,2.263,0,0,1-1.879-.885,3.785,3.785,0,0,1-.7-2.4,3.913,3.913,0,0,1,.78-2.547,2.536,2.536,0,0,1,2.072-.958,2.682,2.682,0,0,1,1.879.822l.188-.671h1.607v5.063a9.144,9.144,0,0,1-.185,2.188,2.316,2.316,0,0,1-.716,1.143,3.731,3.731,0,0,1-2.52.773A7.609,7.609,0,0,1,344.831,753.617Zm4.127-4.532v-2.447a1.828,1.828,0,0,0-1.354-.73,1.224,1.224,0,0,0-1.075.616,3.015,3.015,0,0,0-.4,1.655q0,1.945,1.25,1.946A1.97,1.97,0,0,0,348.958,749.085Z" fill="#e27942"/>
        <path d="M358.349,751.333a8.581,8.581,0,0,1-2.418.375,3.581,3.581,0,0,1-2.622-.943,3.44,3.44,0,0,1-.961-2.574,3.487,3.487,0,0,1,.879-2.48,3.037,3.037,0,0,1,2.324-.939,2.457,2.457,0,0,1,2.127.919,4.98,4.98,0,0,1,.671,2.906h-4.115a1.87,1.87,0,0,0,2.084,1.9,5.94,5.94,0,0,0,2.031-.417Zm-4.14-3.746h2.381q0-1.7-1.094-1.7Q354.384,745.889,354.209,747.587Z" fill="#e27942"/>
      </g>
      <g>
        <path d="M453.528,751.479v-1.535a6.632,6.632,0,0,0,2.472.6,1.812,1.812,0,0,0,1.133-.32,1.041,1.041,0,0,0,.414-.87,1.082,1.082,0,0,0-.26-.734,3.961,3.961,0,0,0-.985-.71l-.6-.332a5.879,5.879,0,0,1-1.7-1.3,2.248,2.248,0,0,1-.5-1.447,2.188,2.188,0,0,1,.813-1.776,3.267,3.267,0,0,1,2.148-.671,10.837,10.837,0,0,1,2.41.309v1.432a6.663,6.663,0,0,0-2.169-.514,1.622,1.622,0,0,0-.988.275.858.858,0,0,0-.371.722.913.913,0,0,0,.26.646,4.344,4.344,0,0,0,.979.684l.641.356a6.275,6.275,0,0,1,1.783,1.335,2.514,2.514,0,0,1-.436,3.438,4.105,4.105,0,0,1-2.55.707A12.293,12.293,0,0,1,453.528,751.479Z" fill="#e27942"/>
        <path d="M464.352,750.844a2.728,2.728,0,0,1-1.916.864,1.938,1.938,0,0,1-1.414-.532,1.843,1.843,0,0,1-.544-1.378,1.925,1.925,0,0,1,.88-1.694,4.467,4.467,0,0,1,2.517-.6h.478v-.6q0-1.033-1.179-1.033a4.348,4.348,0,0,0-2.115.593V745.23a6.759,6.759,0,0,1,2.405-.46q2.6,0,2.6,2.073v2.937q0,.779.5.779a1.452,1.452,0,0,0,.235-.024l.042,1a3.558,3.558,0,0,1-1,.17,1.337,1.337,0,0,1-1.414-.864Zm0-.961v-1.348h-.423q-1.734,0-1.734,1.088a.856.856,0,0,0,.87.87A1.932,1.932,0,0,0,464.352,749.883Z" fill="#e27942"/>
        <path d="M468.376,751.557v-6.635h1.716v1.251a2.45,2.45,0,0,1,2.235-1.4,1.975,1.975,0,0,1,1.233.369,1.556,1.556,0,0,1,.592,1.033,2.679,2.679,0,0,1,2.248-1.4q1.819,0,1.818,2.007v4.779H476.5v-4.193q0-1.179-.785-1.179-.8,0-1.565,1.16v4.212h-1.716v-4.193q0-1.185-.792-1.185t-1.553,1.166v4.212Z" fill="#e27942"/>
        <path d="M480.376,751.557v-9.541h1.788v4.157a2.413,2.413,0,0,1,4.052-.526,3.822,3.822,0,0,1,.686,2.411,4.211,4.211,0,0,1-.773,2.656,2.487,2.487,0,0,1-2.066.994,2.529,2.529,0,0,1-1.9-.822l-.332.671Zm1.788-1.734a1.877,1.877,0,0,0,1.39.726,1.191,1.191,0,0,0,1.052-.638,3.219,3.219,0,0,0,.393-1.7q0-2.036-1.311-2.036a1.982,1.982,0,0,0-1.523,1.021Z" fill="#e27942"/>
        <path d="M491.827,750.844a2.728,2.728,0,0,1-1.916.864,1.938,1.938,0,0,1-1.414-.532,1.843,1.843,0,0,1-.544-1.378,1.925,1.925,0,0,1,.88-1.694,4.467,4.467,0,0,1,2.517-.6h.478v-.6q0-1.033-1.179-1.033a4.348,4.348,0,0,0-2.115.593V745.23a6.759,6.759,0,0,1,2.405-.46q2.6,0,2.6,2.073v2.937q0,.779.5.779a1.452,1.452,0,0,0,.235-.024l.042,1a3.558,3.558,0,0,1-1,.17,1.337,1.337,0,0,1-1.414-.864Zm0-.961v-1.348H491.4q-1.734,0-1.734,1.088a.856.856,0,0,0,.87.87A1.932,1.932,0,0,0,491.827,749.883Z" fill="#e27942"/>
        <path d="M499.931,751.557v-8.943h5.589v1.227h-3.728v2.5h3.057v1.2h-3.057v2.756H505.8v1.269Z" fill="#e27942"/>
        <path d="M506.655,751.557l2.278-3.329-2.182-3.306h2.036l1.426,2.1,1.366-2.1h1.45l-2.079,3.257,2.229,3.378h-2.036l-1.486-2.193-1.522,2.193Z" fill="#e27942"/>
        <path d="M518.095,751.521a3.845,3.845,0,0,1-1.009.188q-2.328,0-2.327-2.176V746.04h-.743v-1.118h.743V743.8l1.789-.205v1.323h1.42v1.118h-1.42V749.3q0,1.22,1,1.221a2.2,2.2,0,0,0,.55-.085Z" fill="#e27942"/>
        <path d="M519.689,751.557v-6.635h1.788v1.251a2.248,2.248,0,0,1,2.115-1.4,1.572,1.572,0,0,1,.332.036v1.6a2.067,2.067,0,0,0-.707-.139,2,2,0,0,0-1.74,1.081v4.212Z" fill="#e27942"/>
        <path d="M528.566,750.844a2.728,2.728,0,0,1-1.916.864,1.938,1.938,0,0,1-1.414-.532,1.843,1.843,0,0,1-.544-1.378,1.925,1.925,0,0,1,.88-1.694,4.467,4.467,0,0,1,2.517-.6h.478v-.6q0-1.033-1.179-1.033a4.348,4.348,0,0,0-2.115.593V745.23a6.759,6.759,0,0,1,2.405-.46q2.6,0,2.6,2.073v2.937q0,.779.5.779a1.452,1.452,0,0,0,.235-.024l.042,1a3.558,3.558,0,0,1-1,.17,1.337,1.337,0,0,1-1.414-.864Zm0-.961v-1.348h-.423q-1.734,0-1.734,1.088a.856.856,0,0,0,.87.87A1.932,1.932,0,0,0,528.566,749.883Z" fill="#e27942"/>
      </g>
      <rect y="309" width="617" height="155.14" fill="url(#b)"/>
    </g>
  </g>
</svg>
