<svg xmlns="http://www.w3.org/2000/svg" width="617" height="618" viewBox="0 0 617 618">
  <title>Zeichenfläche 1</title>
  <g>
    <g>
      <rect width="617" height="154.692" fill="#e2001a"/>
      <g>
        <path d="M19.076,54.952H33.863l2.619,10.32,2.31,10.32L41.1,65.272l2.618-10.32H58.047v45.209H46.879V83.371l1.849-17.329L42.489,88.685H34.633L28.4,66.042l1.848,17.329v16.79H19.076Z" fill="#fff"/>
        <path d="M67.751,91.073H79.072V74.361H67.751V65.272H91.473v25.8h10.243v9.088H67.751Zm10.4-42.051H92.4v11.86H78.149Z" fill="#fff"/>
        <path d="M120.661,84.142V74.361H110.033V65.272h10.628V49.022h12.4v16.25h17.174v9.088H133.062V83.6c0,5.16.847,7.162,5.468,7.162a26.626,26.626,0,0,0,9.858-2.233V98a31.264,31.264,0,0,1-13.016,2.926C125.591,100.931,120.661,96.464,120.661,84.142Z" fill="#fff"/>
        <path d="M166.872,84.142V74.361H156.244V65.272h10.628V49.022h12.4v16.25h17.174v9.088H179.273V83.6c0,5.16.847,7.162,5.468,7.162a26.626,26.626,0,0,0,9.858-2.233V98a31.264,31.264,0,0,1-13.016,2.926C171.8,100.931,166.872,96.464,166.872,84.142Z" fill="#fff"/>
        <path d="M206.383,91.073H217.7V74.361H206.383V65.272H230.1v25.8h10.243v9.088H206.383Zm10.4-42.051h14.248v11.86H216.78Z" fill="#fff"/>
        <path d="M295.337,57.186h26.494v4.236H300.19V76.055h19.023v4.236H300.19V95.925h21.642v4.236H295.337Z" fill="#f08a00"/>
        <path d="M339.7,89.61h4.467c.462,4.159,3.62,7.162,11.245,7.162,5.237,0,8.857-1.386,8.857-5.391,0-4.39-4.467-5.083-12.169-6.932-6.238-1.463-11.321-3-11.321-9.087,0-6.624,5.854-9.243,13.324-9.243,7.855,0,13.709,2.927,14.325,10.475H363.96c-.925-5.545-5.93-6.315-9.935-6.315-5.7,0-8.626,1.54-8.626,4.775,0,4.159,4.852,4.544,12.323,6.315,6.7,1.617,11.168,3.388,11.168,9.627,0,7.394-6.239,9.935-13.786,9.935C345.939,100.931,340.162,97.157,339.7,89.61Z" fill="#f08a00"/>
        <path d="M394.458,86.992V71.048h-11.09V66.889h11.09v-15.4H399v15.4h16.328v4.159H399V86.221c0,7.471,1.695,10.551,7.856,10.551a27.234,27.234,0,0,0,7.624-1.232V99.7a22.773,22.773,0,0,1-7.779,1.232C398.772,100.931,394.458,97.85,394.458,86.992Z" fill="#f08a00"/>
        <path d="M431.2,91.612c0-7.7,6.778-9.55,12.862-9.55a36.575,36.575,0,0,1,9.781,1.386V80.368c0-5.622-.616-10.166-8.472-10.166-6.085,0-9.011,2.7-9.011,7.7h-4.544c0-9.781,8.164-11.784,13.94-11.784,8.857,0,12.631,4.7,12.631,12.939v16.1c0,1.309.462,1.695,1.925,1.695a18.622,18.622,0,0,0,4.159-.54v3.543a15.031,15.031,0,0,1-5.391,1.078c-3.851,0-4.621-2.388-4.621-4.39v-.616c-1.849,2.388-5.777,5.006-12.015,5.006C436.048,100.931,431.2,98.158,431.2,91.612Zm22.644,1.617V86.914a46.1,46.1,0,0,0-9.165-.924c-5.545,0-9.011,1.309-9.011,5.545,0,3.466,2.233,5.237,7.085,5.237A18,18,0,0,0,453.84,93.229Z" fill="#f08a00"/>
        <path d="M487.958,113.331l.925-2.926a9.524,9.524,0,0,0,3.928.925c2.08,0,3.158-.848,3.158-1.849,0-1.771-2.773-2.85-6.007-3.62l1.078-5.083c-6.624-.693-13.478-4.929-13.478-17.175,0-14.017,9.01-17.483,15.942-17.483,5.7,0,13.324,2.311,13.94,11.784h-4.621c-.616-5.854-4.314-7.625-9.165-7.625-7.317,0-11.476,4.082-11.476,13.17s4.159,13.323,11.476,13.323c4.851,0,8.549-1.848,9.165-7.7h4.621c-.616,9.087-7.779,11.63-13.4,11.86l-.54,2.619c4.159,1.232,7.009,3.158,7.009,6.161,0,2.7-2.156,4.929-6.7,4.929A12.789,12.789,0,0,1,487.958,113.331Z" fill="#f08a00"/>
        <path d="M523.617,91.612c0-7.7,6.778-9.55,12.862-9.55a36.57,36.57,0,0,1,9.781,1.386V80.368c0-5.622-.616-10.166-8.472-10.166-6.085,0-9.011,2.7-9.011,7.7h-4.544c0-9.781,8.164-11.784,13.94-11.784,8.857,0,12.631,4.7,12.631,12.939v16.1c0,1.309.462,1.695,1.925,1.695a18.622,18.622,0,0,0,4.159-.54v3.543a15.031,15.031,0,0,1-5.391,1.078c-3.851,0-4.622-2.388-4.622-4.39v-.616c-1.848,2.388-5.776,5.006-12.015,5.006C528.469,100.931,523.617,98.158,523.617,91.612Zm2.542-32.579c1.309-4.159,4.236-8.857,8.164-8.857,4.159,0,5.7,5.237,8.7,5.237,2.156,0,4-2.619,5.314-5.237l2.31,1.078c-1.309,4.159-4.236,8.857-8.164,8.857-4.159,0-5.7-5.237-8.7-5.237-2.156,0-4,2.619-5.314,5.237Zm20.1,34.2V86.914a46.1,46.1,0,0,0-9.165-.924c-5.545,0-9.011,1.309-9.011,5.545,0,3.466,2.233,5.237,7.085,5.237A18,18,0,0,0,546.26,93.229Z" fill="#f08a00"/>
        <path d="M569.982,83.6c0-13.632,8.24-17.483,15.48-17.483,7.317,0,15.326,3.928,15.326,17.329,0,13.631-8.24,17.482-15.48,17.482C577.992,100.931,569.982,97,569.982,83.6Zm26.109-.077c0-8.78-3.7-13.17-10.7-13.17s-10.706,4.39-10.706,13.17,3.7,13.17,10.706,13.17S596.091,92.306,596.091,83.526Z" fill="#f08a00"/>
      </g>
    </g>
    <g>
      <rect y="154.692" width="617" height="154.692" fill="#fdf3e5"/>
      <path d="M17.08,210.6c0-5.432,4.78-6.736,9.071-6.736a25.793,25.793,0,0,1,6.9.978v-2.173c0-3.965-.435-7.17-5.975-7.17-4.291,0-6.356,1.9-6.356,5.432h-3.2c0-6.9,5.757-8.311,9.832-8.311,6.247,0,8.909,3.314,8.909,9.126v11.353c0,.924.326,1.195,1.358,1.195a13.089,13.089,0,0,0,2.933-.38v2.5a10.582,10.582,0,0,1-3.8.761c-2.716,0-3.26-1.684-3.26-3.1v-.435c-1.3,1.684-4.074,3.531-8.474,3.531C20.5,217.169,17.08,215.213,17.08,210.6Zm15.97,1.14v-4.454a32.417,32.417,0,0,0-6.464-.652c-3.911,0-6.355.924-6.355,3.911,0,2.444,1.575,3.694,5,3.694A12.694,12.694,0,0,0,33.05,211.737Z"/>
      <path d="M54.177,213.638v2.987H51.624V182.3h3.205v13.363a8.873,8.873,0,0,1,6.953-3.042c5.16,0,9.724,3.531,9.724,12.222,0,8.855-4.781,12.331-9.832,12.331A9.385,9.385,0,0,1,54.177,213.638Zm14.015-8.746c0-5.486-2.118-9.289-7.115-9.289a8.57,8.57,0,0,0-6.247,2.5v13.579a8.57,8.57,0,0,0,6.247,2.5C66.073,214.182,68.192,210.379,68.192,204.893Z"/>
      <path d="M82.367,204.947c0-9.886,6.355-12.331,11.244-12.331,4.019,0,9.4,1.63,9.832,8.311h-3.26c-.434-4.128-3.041-5.378-6.464-5.378-5.16,0-8.093,2.88-8.093,9.289s2.933,9.4,8.093,9.4c3.423,0,6.03-1.3,6.464-5.432h3.26c-.435,6.682-5.975,8.366-9.995,8.366C88.4,217.169,82.367,214.562,82.367,204.947Z"/>
      <path d="M114.955,205c0-8.583,4.563-12.385,9.724-12.385a9.169,9.169,0,0,1,6.953,3.042V182.3h3.205v34.33h-2.553v-2.987a9.363,9.363,0,0,1-7.551,3.531C119.844,217.169,114.955,213.909,114.955,205Zm16.677,6.681V198.1a8.57,8.57,0,0,0-6.247-2.5c-5,0-7.115,3.8-7.115,9.289s2.118,9.289,7.115,9.289A8.57,8.57,0,0,0,131.631,211.682Z"/>
      <path d="M147.544,204.947c0-9.4,5.976-12.331,11.082-12.331,4.835,0,10.81,2.662,10.81,12.222v.76H150.749c.271,5.813,2.933,8.746,8.04,8.746,4.073,0,6.735-1.9,7.388-5.323h3.2c-.869,6.41-6.626,8.148-10.755,8.148C152.813,217.169,147.544,213.747,147.544,204.947Zm18.578-2.01c-.6-5.052-3.26-7.5-7.713-7.5s-7.116,2.444-7.605,7.5Z"/>
      <path d="M181.383,213.693h6.355v-17.6h-6.355v-2.933h6.355v-.435c0-6.627,4.509-10.7,12.982-10.7v2.933c-5.106,0-9.777,1.684-9.777,7.768v.435h9.777v2.933h-9.777v17.6h9.777v2.933H181.383Z"/>
      <path d="M212.939,218.744h3.205c0,3.748,2.064,5.324,6.464,5.324,6.084,0,6.79-2.933,6.79-6.573v-3.368a9.008,9.008,0,0,1-7.007,3.042c-5.106,0-9.669-3.531-9.669-12.222,0-8.855,4.781-12.331,9.832-12.331a9.473,9.473,0,0,1,7.5,3.531v-2.987H232.6v24.607c0,5.7-2.282,9.071-9.886,9.071C217.013,226.837,212.939,224.937,212.939,218.744Zm16.459-7.062V198.1a8.57,8.57,0,0,0-6.247-2.5c-5,0-7.115,3.8-7.115,9.289s2.118,9.289,7.115,9.289A8.57,8.57,0,0,0,229.4,211.682Z"/>
      <path d="M247.158,182.3h3.205v13.254c.978-1.14,2.716-2.933,6.9-2.933,3.965,0,7.985,1.576,7.985,9.615v14.395h-3.205v-13.58c0-4.889-1.032-7.55-5.432-7.55a8.016,8.016,0,0,0-6.246,2.553v18.577h-3.205Z"/>
      <path d="M278.877,213.693h8.691v-17.6h-8.691v-2.933h11.9v20.533h7.985v2.933H278.877Zm8.094-31.4h4.4v4.4h-4.4Z"/>
      <path d="M313.314,223.633c5.106,0,9.777-1.684,9.777-7.768V196.092h-9.125v-2.933H326.3v23.032c0,6.573-4.508,10.375-12.982,10.375Zm9.18-41.338h4.4v4.4h-4.4Z"/>
      <path d="M344.924,182.3h3.205v22.054l13.146-11.19h4.182l-10.538,8.855,11.027,14.612h-3.965l-9.289-12.766-4.562,3.8v8.962h-3.205Z"/>
      <path d="M376.644,213.693h8.311V185.228h-8.311V182.3H388.16v31.4h8.366v2.933H376.644Z"/>
      <path d="M406.191,193.159h2.553v3.476c.815-1.413,2.88-4.02,6.247-4.02a5.265,5.265,0,0,1,5.16,3.857c.924-1.412,2.88-3.857,6.247-3.857,3.313,0,5.7,2.391,5.7,7.225v16.785H428.9v-15.97c0-3.1-.869-5.16-3.259-5.16-2.282,0-3.912,1.792-4.889,3.422v17.708h-3.205v-15.97c0-3.1-.869-5.16-3.259-5.16-2.282,0-3.911,1.792-4.889,3.422v17.708h-3.205Z"/>
      <path d="M442.691,193.159h2.553v2.987c1.3-1.9,3.694-3.531,7.66-3.531,3.857,0,7.877,1.63,7.877,9.615v14.395h-3.205v-13.58c0-4.889-1.032-7.55-5.432-7.55a8.016,8.016,0,0,0-6.246,2.553v18.577h-3.205Z"/>
      <path d="M473.433,204.947c0-9.615,5.813-12.331,10.918-12.331,5.161,0,10.81,2.771,10.81,12.222,0,9.615-5.812,12.331-10.918,12.331C479.083,217.169,473.433,214.4,473.433,204.947Zm18.415-.054c0-6.193-2.607-9.289-7.55-9.289s-7.551,3.1-7.551,9.289,2.607,9.289,7.551,9.289S491.848,211.085,491.848,204.893Z"/>
      <path d="M507.868,193.159h2.553v2.987a9.363,9.363,0,0,1,7.551-3.531c4.889,0,9.778,3.26,9.778,12.168,0,8.583-4.563,12.385-9.724,12.385a9.169,9.169,0,0,1-6.953-3.042v12.168h-3.205Zm16.568,11.733c0-5.486-2.118-9.289-7.115-9.289a8.57,8.57,0,0,0-6.247,2.5v13.579a8.57,8.57,0,0,0,6.247,2.5C522.318,214.182,524.436,210.379,524.436,204.893Z"/>
      <path d="M539.589,213.693h6.247v-17.6h-6.247v-2.933h8.8v5.051a8.4,8.4,0,0,1,8.2-5.595,11.7,11.7,0,0,1,4.074.707v3.259a10.7,10.7,0,0,0-3.911-.706,8.488,8.488,0,0,0-7.713,4.562v13.255h10.429v2.933H539.589Z"/>
      <path d="M572.177,213.693h6.247v-17.6h-6.247v-2.933h8.8v5.051a8.4,8.4,0,0,1,8.2-5.595,11.7,11.7,0,0,1,4.074.707v3.259a10.7,10.7,0,0,0-3.911-.706,8.49,8.49,0,0,0-7.714,4.562v13.255h10.429v2.933H572.177Z"/>
      <path d="M26.152,251.494h3.8L40.709,281.8h-3.8l-2.553-7.551H21.7L19.09,281.8H15.4Zm-3.531,19.772h10.7l-1.846-5.486L28,255.079l-3.476,10.592Z"/>
      <path d="M51.624,251.494h8.691c5.976,0,10.538,2.879,10.538,8.093,0,2.716-1.249,5-4.454,6.518,3.151,1.087,5.7,3.368,5.7,7.225,0,5.215-4.726,8.473-10.81,8.473H51.624ZM55.046,264.8h4.78c4.835,0,7.5-1.467,7.5-5,0-3.151-2.173-5.324-7.224-5.324H55.046Zm0,14.015h6.247c5.16,0,7.279-2.607,7.279-5.7,0-3.422-2.607-5.324-7.5-5.324h-6.03Z"/>
      <path d="M81.769,266.7c0-10.267,4.237-15.807,12.277-15.807,4.617,0,10.266,1.847,10.592,9.724h-3.422c-.543-4.563-2.933-6.791-7.224-6.791-7.333,0-8.691,6.573-8.691,12.82s1.358,12.766,8.691,12.766c4.291,0,6.681-2.227,7.224-6.791h3.422c-.326,7.388-5.757,9.724-10.864,9.724C85.952,282.348,81.769,276.915,81.769,266.7Z"/>
      <path d="M116.8,251.494h8.04c9.777,0,12.439,6.79,12.439,15.1,0,8.528-2.824,15.21-12.439,15.21H116.8Zm3.422,27.323h4.618c8.148,0,8.908-6.9,8.908-12.168s-.76-12.168-8.908-12.168h-4.618Z"/>
      <path d="M149.391,251.494h18.686v2.987H152.813V264.8h13.418v2.987H152.813v11.027h15.264V281.8H149.391Z"/>
      <path d="M181.98,251.494h18.958v2.987H185.4v11.081h13.635v2.987H185.4V281.8H181.98Z"/>
      <path d="M212.179,266.595c0-10.1,4.128-15.7,11.461-15.7,4.509,0,9.887,2.118,10.213,10.538H230.43c-.489-4.943-2.771-7.605-6.844-7.605-6.03,0-7.877,5.976-7.877,12.657,0,6.464,1.738,12.929,8.039,12.929a9.144,9.144,0,0,0,6.627-2.88v-7.877h-7.5v-2.987H233.8V281.8h-2.607v-3.042c-.706,1.032-3.313,3.585-8.093,3.585C214.677,282.348,212.179,274.417,212.179,266.595Z"/>
      <path d="M247.158,251.494h3.422V264.8H261.77V251.494h3.422V281.8H261.77V267.79H250.58V281.8h-3.422Z"/>
      <path d="M279.692,278.817h7.388V254.482h-7.388v-2.987h18.2v2.987H290.5v24.335h7.388V281.8h-18.2Z"/>
      <path d="M310.815,272.19a11.921,11.921,0,0,1,.108-1.847h3.423a17.416,17.416,0,0,0-.109,1.956c0,4.02,1.793,7.007,6.682,7.007,5.106,0,6.681-3.205,6.681-8.8V251.494h3.422v19.012c0,7.713-2.987,11.842-10.049,11.842C313.8,282.348,310.815,278.11,310.815,272.19Z"/>
      <path d="M344.924,251.494h3.422V266.54l13.418-15.046h4.4L354.43,264.368,367.467,281.8h-4.291l-10.918-15.046-3.911,4.237V281.8h-3.422Z"/>
      <path d="M377.513,251.494h3.422v27.323h15.536V281.8H377.513Z"/>
      <path d="M408.256,251.494H413.2l3.857,11.026,2.118,6.682,2.119-6.682,3.857-11.026h4.835V281.8h-3.205V262.413l.162-7.714-6.355,18.415h-2.933L411.3,254.7l.163,7.714V281.8h-3.2Z"/>
      <path d="M442.691,251.494h4.943l10.158,26.888-.327-8.148V251.494h3.26V281.8h-4.943l-10.157-26.888.326,8.148V281.8h-3.26Z"/>
      <path d="M472.836,266.758c0-9.507,3.8-15.862,11.515-15.862,7.822,0,11.407,6.464,11.407,15.644,0,9.506-3.8,15.807-11.515,15.807C476.421,282.348,472.836,275.938,472.836,266.758Zm19.392-.109c0-6.355-1.575-12.711-7.93-12.711s-7.931,6.356-7.931,12.711,1.575,12.657,7.931,12.657S492.228,273,492.228,266.649Z"/>
      <path d="M507.868,251.494h8.04c7.713,0,12.385,2.987,12.385,9.234,0,6.138-4.617,9.235-12.385,9.235h-4.618V281.8h-3.422Zm3.422,15.481h4.672c6.41,0,8.8-2.39,8.8-6.247s-2.39-6.246-8.8-6.246h-4.672Z"/>
      <path d="M556.32,279.957a10.119,10.119,0,0,1-6.9,2.391c-7.877,0-11.407-6.464-11.407-15.59,0-9.4,3.748-15.862,11.57-15.862,7.768,0,11.353,6.41,11.353,15.644,0,4.726-.924,8.474-2.716,11.19l5.976,5.7h-4.183Zm-2.282-2.227-8.148-7.822h4.128l5.758,5.541c1.249-2.391,1.629-5.595,1.629-8.746,0-6.41-1.575-12.766-7.931-12.766s-7.93,6.356-7.93,12.711,1.575,12.657,7.93,12.657A6.554,6.554,0,0,0,554.038,277.73Z"/>
      <path d="M573.046,251.494h7.007c7.713,0,12.385,3.1,12.385,9.017,0,5-3.369,7.877-8.094,8.962l10.1,12.331H590.1l-9.451-11.95h-4.183V281.8h-3.422Zm3.422,15.481h3.64c6.41,0,8.8-2.716,8.8-6.247s-2.391-6.246-8.8-6.246h-3.64Z"/>
      <g>
        <path d="M617,214.163c-.5.048-1.029.073-1.587.073-5.378,0-7.605-2.119-7.931-5.052h-3.151c.327,5.324,4.4,7.985,10.864,7.985q.925,0,1.8-.077Z"/>
        <path d="M613.077,205.545c1.487.357,2.8.653,3.923.957v-3.141c-5.245-1.241-8.649-1.519-8.649-4.444,0-2.282,2.064-3.368,6.084-3.368a13.837,13.837,0,0,1,2.565.213v-2.979a18.662,18.662,0,0,0-2.511-.166c-5.269,0-9.4,1.847-9.4,6.518C605.091,203.425,608.677,204.512,613.077,205.545Z"/>
      </g>
      <g>
        <path d="M611.067,266.7,617,268.8v-3.5l-4.956-1.749c-2.77-.978-4.128-2.5-4.128-4.726,0-2.825,2.173-4.835,6.464-4.835A10.321,10.321,0,0,1,617,254.3V251.1a15.488,15.488,0,0,0-2.511-.2c-5.649,0-10.1,2.716-10.1,7.985C604.386,262.955,607.047,265.291,611.067,266.7Z"/>
        <path d="M617,279.067a12.993,12.993,0,0,1-2.239.184c-4.78,0-7.333-2.173-7.55-5.921h-3.422c0,6.029,4.454,9.017,10.863,9.017A18.806,18.806,0,0,0,617,282.2Z"/>
      </g>
    </g>
    <g>
      <rect y="309.384" width="617" height="308.616" fill="#f08a00"/>
      <path d="M17.509,359.487h8.667v-17.55H17.509v-2.926H29.372v20.475h7.962v2.926H17.509Zm8.071-31.309h4.388v4.388H25.58Z" fill="#e2001a"/>
      <path d="M55.587,353.15V341.937h-7.8v-2.926h7.8V328.178h3.2v10.834H70.267v2.926H58.783v10.67c0,5.255,1.192,7.421,5.526,7.421a19.155,19.155,0,0,0,5.362-.867v2.925a16.018,16.018,0,0,1-5.471.867C58.621,362.954,55.587,360.787,55.587,353.15Z" fill="#e2001a"/>
      <path d="M81.421,356.4c0-5.417,4.767-6.717,9.047-6.717a25.739,25.739,0,0,1,6.879.975v-2.167c0-3.954-.433-7.15-5.959-7.15-4.279,0-6.337,1.9-6.337,5.417h-3.2c0-6.879,5.742-8.287,9.8-8.287,6.229,0,8.884,3.3,8.884,9.1v11.32c0,.921.325,1.192,1.354,1.192a13.12,13.12,0,0,0,2.925-.379V362.2a10.574,10.574,0,0,1-3.791.758c-2.709,0-3.25-1.679-3.25-3.087v-.433c-1.3,1.679-4.062,3.52-8.45,3.52C84.835,362.954,81.421,361,81.421,356.4Zm15.926,1.138V353.1a32.406,32.406,0,0,0-6.446-.65c-3.9,0-6.338.921-6.338,3.9,0,2.438,1.571,3.683,4.983,3.683A12.667,12.667,0,0,0,97.347,357.538Z" fill="#e2001a"/>
      <path d="M115,359.487h8.288V331.1H115v-2.926h11.484v31.309h8.341v2.926H115Z" fill="#e2001a"/>
      <path d="M146.526,350.767c0-9.588,5.8-12.3,10.888-12.3,5.146,0,10.779,2.762,10.779,12.187,0,9.588-5.8,12.3-10.888,12.3C152.159,362.954,146.526,360.191,146.526,350.767Zm18.363-.054c0-6.175-2.6-9.263-7.529-9.263s-7.529,3.088-7.529,9.263,2.6,9.263,7.529,9.263S164.889,356.887,164.889,350.712Z" fill="#e2001a"/>
      <path d="M182,345.783h15.709v2.979H182Z" fill="#e2001a"/>
      <path d="M211.414,356.4c0-5.417,4.767-6.717,9.046-6.717a25.744,25.744,0,0,1,6.879.975v-2.167c0-3.954-.433-7.15-5.958-7.15-4.28,0-6.338,1.9-6.338,5.417h-3.2c0-6.879,5.741-8.287,9.8-8.287,6.23,0,8.884,3.3,8.884,9.1v11.32c0,.921.325,1.192,1.354,1.192a13.133,13.133,0,0,0,2.926-.379V362.2a10.584,10.584,0,0,1-3.792.758c-2.708,0-3.25-1.679-3.25-3.087v-.433c-1.3,1.679-4.062,3.52-8.45,3.52C214.827,362.954,211.414,361,211.414,356.4Zm15.925,1.138V353.1a32.4,32.4,0,0,0-6.446-.65c-3.9,0-6.338.921-6.338,3.9,0,2.438,1.571,3.683,4.983,3.683A12.665,12.665,0,0,0,227.339,357.538Z" fill="#e2001a"/>
      <path d="M241.961,339.012h2.547v3.467c.812-1.408,2.871-4.008,6.229-4.008a5.25,5.25,0,0,1,5.146,3.846c.921-1.409,2.871-3.846,6.23-3.846,3.3,0,5.687,2.383,5.687,7.2v16.738h-3.2V346.487c0-3.087-.867-5.146-3.25-5.146-2.275,0-3.9,1.788-4.875,3.412v17.659h-3.2V346.487c0-3.087-.867-5.146-3.25-5.146-2.275,0-3.9,1.788-4.875,3.412v17.659h-3.2Z" fill="#e2001a"/>
      <path d="M276.518,350.767c0-9.371,5.958-12.3,11.05-12.3,4.821,0,10.779,2.654,10.779,12.187v.759H279.714c.271,5.8,2.926,8.721,8.017,8.721,4.063,0,6.717-1.9,7.367-5.309h3.2c-.867,6.391-6.609,8.125-10.726,8.125C281.772,362.954,276.518,359.541,276.518,350.767Zm18.525-2c-.6-5.038-3.249-7.476-7.691-7.476s-7.1,2.438-7.584,7.476Zm-6.608-23.238h4.333l-6.5,10.347h-2Z" fill="#e2001a"/>
      <path d="M309.991,359.487h6.229v-17.55h-6.229v-2.926h8.775v5.038a8.37,8.37,0,0,1,8.179-5.579,11.658,11.658,0,0,1,4.062.7v3.25a10.656,10.656,0,0,0-3.9-.7,8.465,8.465,0,0,0-7.691,4.551v13.216h10.4v2.926H309.991Z" fill="#e2001a"/>
      <path d="M342.488,359.487h8.667v-17.55h-8.667v-2.926h11.863v20.475h7.962v2.926H342.488Zm8.071-31.309h4.388v4.388h-4.388Z" fill="#e2001a"/>
      <path d="M374.012,350.767c0-9.859,6.338-12.3,11.213-12.3,4.009,0,9.371,1.625,9.8,8.287h-3.25c-.433-4.117-3.033-5.362-6.446-5.362-5.146,0-8.071,2.871-8.071,9.263s2.926,9.371,8.071,9.371c3.412,0,6.012-1.3,6.446-5.417h3.25c-.433,6.662-5.959,8.341-9.967,8.341C380.024,362.954,374.012,360.354,374.012,350.767Z" fill="#e2001a"/>
      <path d="M406.4,356.4c0-5.417,4.767-6.717,9.047-6.717a25.739,25.739,0,0,1,6.879.975v-2.167c0-3.954-.433-7.15-5.959-7.15-4.279,0-6.337,1.9-6.337,5.417h-3.2c0-6.879,5.742-8.287,9.8-8.287,6.229,0,8.884,3.3,8.884,9.1v11.32c0,.921.325,1.192,1.354,1.192a13.12,13.12,0,0,0,2.925-.379V362.2a10.574,10.574,0,0,1-3.791.758c-2.709,0-3.25-1.679-3.25-3.087v-.433c-1.3,1.679-4.062,3.52-8.45,3.52C409.814,362.954,406.4,361,406.4,356.4Zm15.926,1.138V353.1a32.406,32.406,0,0,0-6.446-.65c-3.9,0-6.338.921-6.338,3.9,0,2.438,1.571,3.683,4.983,3.683A12.667,12.667,0,0,0,422.326,357.538Z" fill="#e2001a"/>
      <path d="M439.982,359.487h8.667v-17.55h-8.667v-2.926h11.863v20.475h7.962v2.926H439.982Zm8.071-31.309h4.388v4.388h-4.388Z" fill="#e2001a"/>
      <path d="M473.346,339.012h2.547v2.979c1.3-1.9,3.683-3.52,7.638-3.52,3.846,0,7.854,1.625,7.854,9.587v14.355h-3.2V348.871c0-4.876-1.029-7.53-5.417-7.53a8,8,0,0,0-6.229,2.546v18.526h-3.2Z" fill="#e2001a"/>
      <path d="M538.343,332.186h3.413v27.247h15.492v2.979h-18.9Z" fill="#e2001a"/>
      <path d="M569.973,359.487h8.667v-17.55h-8.667v-2.926h11.863v20.475H589.8v2.926H569.973Zm8.071-31.309h4.388v4.388h-4.388Z" fill="#e2001a"/>
      <path d="M17.076,418.008h8.559V401.649H17.076V398.02H29.914v19.988h7.8v3.629H17.076Zm7.963-30.931h5.47v5.471h-5.47Z" fill="#e2001a"/>
      <path d="M54.991,412.05v-10.4H47.245V398.02h7.746V387.078h4.28V398.02H70.862v3.629H59.271v10.238c0,4.821,1.029,6.609,5.146,6.609a16.246,16.246,0,0,0,5.741-1.03v3.63a15.952,15.952,0,0,1-6.337,1.082C58.133,422.179,54.991,420.066,54.991,412.05Z" fill="#e2001a"/>
      <path d="M80.88,415.516c0-5.471,4.821-6.825,9.371-6.825a25.275,25.275,0,0,1,6.77.92v-2.058c0-3.629-.487-6.5-5.579-6.5-3.9,0-5.9,1.679-5.9,4.929H81.421c0-6.771,5.58-8.5,10.347-8.5,6.229,0,9.534,3.033,9.534,9.209v10.725c0,.921.325,1.247,1.3,1.247a12,12,0,0,0,2.654-.38v3.033a10.866,10.866,0,0,1-4.116.867c-2.818,0-3.521-1.625-3.521-3.2v-.433c-1.246,1.625-3.9,3.629-8.613,3.629C84.455,422.179,80.88,420.175,80.88,415.516Zm16.142.813v-3.684a27.353,27.353,0,0,0-5.958-.6c-3.683,0-5.9.759-5.9,3.359,0,2.112,1.462,3.141,4.55,3.141A12.35,12.35,0,0,0,97.022,416.329Z" fill="#e2001a"/>
      <path d="M114.57,418.008h8.18V390.653h-8.18v-3.576h12.459v30.931h8.179v3.629H114.57Z" fill="#e2001a"/>
      <path d="M145.876,409.883c0-9.641,6.176-12.4,11.592-12.4s11.376,2.763,11.376,12.242c0,9.7-6.229,12.458-11.592,12.458C151.78,422.179,145.876,419.308,145.876,409.883Zm18.688-.054c0-5.959-2.546-8.776-7.2-8.776s-7.2,2.817-7.2,8.776c0,5.9,2.546,8.775,7.2,8.775S164.564,415.733,164.564,409.829Z" fill="#e2001a"/>
      <path d="M181.841,404.466h16.034v3.792H181.841Z" fill="#e2001a"/>
      <path d="M210.872,415.516c0-5.471,4.821-6.825,9.371-6.825a25.287,25.287,0,0,1,6.771.92v-2.058c0-3.629-.488-6.5-5.58-6.5-3.9,0-5.9,1.679-5.9,4.929h-4.116c0-6.771,5.579-8.5,10.346-8.5,6.229,0,9.534,3.033,9.534,9.209v10.725c0,.921.325,1.247,1.3,1.247a12.007,12.007,0,0,0,2.654-.38v3.033a10.872,10.872,0,0,1-4.118.867c-2.816,0-3.52-1.625-3.52-3.2v-.433c-1.247,1.625-3.9,3.629-8.613,3.629C214.448,422.179,210.872,420.175,210.872,415.516Zm16.143.813v-3.684a27.362,27.362,0,0,0-5.959-.6c-3.683,0-5.9.759-5.9,3.359,0,2.112,1.463,3.141,4.55,3.141A12.353,12.353,0,0,0,227.015,416.329Z" fill="#e2001a"/>
      <path d="M242.286,398.02h3.359v3.358c.649-1.246,2.491-3.9,5.849-3.9a4.833,4.833,0,0,1,4.876,3.684,6.636,6.636,0,0,1,5.742-3.684c3.412,0,5.362,2.654,5.362,7.584v16.575h-4.062V406.145c0-3.358-.6-4.875-2.438-4.875s-3.033,1.192-4.062,2.546v17.822h-4.063V406.145c0-3.358-.6-4.875-2.437-4.875s-3.033,1.192-4.063,2.546v17.822h-4.062Z" fill="#e2001a"/>
      <path d="M275.868,409.883c0-9.425,6.012-12.4,11.484-12.4,5.309,0,11.538,2.871,11.538,12.351v.867H280.147c.217,5.146,2.654,7.962,7.584,7.962,3.738,0,6.23-1.625,6.771-4.6h4.333c-.975,6.283-6.662,8.125-11.213,8.125C281.339,422.179,275.868,418.766,275.868,409.883Zm18.634-2.438c-.541-4.279-3.25-6.5-7.15-6.5s-6.609,2.221-7.15,6.5Zm-5.9-23.075h5.2l-6.825,10.508h-2.546Z" fill="#e2001a"/>
      <path d="M309.557,418.008h6.12V401.649h-6.12V398.02h9.7v5.362c.975-2.383,3.25-5.9,8.234-5.9a11.442,11.442,0,0,1,4.117.759v4.388a10.831,10.831,0,0,0-4.009-.7,8.829,8.829,0,0,0-7.637,3.9v12.188h10.237v3.629H309.557Z" fill="#e2001a"/>
      <path d="M342.055,418.008h8.559V401.649h-8.559V398.02h12.838v19.988h7.8v3.629H342.055Zm7.963-30.931h5.47v5.471h-5.47Z" fill="#e2001a"/>
      <path d="M373.362,409.829c0-9.8,6.5-12.351,11.808-12.351,4.551,0,10.13,1.842,10.563,8.884h-4.279c-.433-3.954-2.871-5.147-6.176-5.147-4.821,0-7.529,2.654-7.529,8.613,0,6.012,2.708,8.613,7.529,8.613,3.3,0,5.742-1.192,6.176-5.146h4.279c-.433,6.987-6.176,8.883-10.563,8.883C379.591,422.179,373.362,419.525,373.362,409.829Z" fill="#e2001a"/>
      <path d="M405.859,415.516c0-5.471,4.821-6.825,9.371-6.825a25.275,25.275,0,0,1,6.77.92v-2.058c0-3.629-.487-6.5-5.579-6.5-3.9,0-5.9,1.679-5.9,4.929H406.4c0-6.771,5.58-8.5,10.347-8.5,6.229,0,9.534,3.033,9.534,9.209v10.725c0,.921.325,1.247,1.3,1.247a12,12,0,0,0,2.654-.38v3.033a10.866,10.866,0,0,1-4.116.867c-2.818,0-3.521-1.625-3.521-3.2v-.433c-1.246,1.625-3.9,3.629-8.613,3.629C409.434,422.179,405.859,420.175,405.859,415.516Zm16.142.813v-3.684a27.353,27.353,0,0,0-5.958-.6c-3.683,0-5.9.759-5.9,3.359,0,2.112,1.462,3.141,4.55,3.141A12.35,12.35,0,0,0,422,416.329Z" fill="#e2001a"/>
      <path d="M439.549,418.008h8.559V401.649h-8.559V398.02h12.838v19.988h7.8v3.629H439.549Zm7.963-30.931h5.47v5.471h-5.47Z" fill="#e2001a"/>
      <path d="M472.7,398.02h3.575v3.142c1.138-1.68,3.521-3.684,7.746-3.684,3.954,0,7.962,1.788,7.962,9.642v14.517H487.7v-13.6c0-4.442-.812-6.988-4.929-6.988a7.266,7.266,0,0,0-5.8,2.491v18.093H472.7Z" fill="#e2001a"/>
      <path d="M537.747,391.087h6.013l9.587,26.163-.487-8.775V391.087h4.062v30.551H550.91l-9.587-26.163.487,8.775v17.388h-4.062Z" fill="#e2001a"/>
      <path d="M568.349,409.883c0-9.641,6.176-12.4,11.592-12.4s11.376,2.763,11.376,12.242c0,9.7-6.229,12.458-11.592,12.458C574.253,422.179,568.349,419.308,568.349,409.883Zm18.688-.054c0-5.959-2.546-8.776-7.2-8.776s-7.2,2.817-7.2,8.776c0,5.9,2.546,8.775,7.2,8.775S587.037,415.733,587.037,409.829Z" fill="#e2001a"/>
      <path d="M16.48,476.312h8.342V461.524H16.48v-4.6H30.618v19.392h7.638v4.55H16.48Zm7.747-30.5h7.1v6.554h-7.1Z" fill="#e2001a"/>
      <path d="M54.178,470.679v-9.155H46.541v-4.6h7.637v-11.1h5.8v11.1H71.729v4.6H59.975v8.938c0,4.5.867,6.067,4.875,6.067a15.561,15.561,0,0,0,5.959-1.192V480a17.417,17.417,0,0,1-7.2,1.408C57.429,481.4,54.178,479.021,54.178,470.679Z" fill="#e2001a"/>
      <path d="M80.121,474.579c0-5.525,4.93-6.988,9.859-6.988a25.262,25.262,0,0,1,6.555.867v-1.95c0-3.087-.542-5.525-4.983-5.525-3.359,0-5.309,1.354-5.309,4.171h-5.47c0-6.555,5.362-8.776,11.158-8.776,6.229,0,10.4,2.654,10.4,9.371v9.913c0,.921.325,1.246,1.3,1.246a11,11,0,0,0,2.275-.325v3.846a12.43,12.43,0,0,1-4.6.975c-3.033,0-3.9-1.57-3.9-3.358v-.433c-1.247,1.571-3.9,3.791-8.829,3.791C83.913,481.4,80.121,479.346,80.121,474.579Zm16.414.488v-3.033a25.574,25.574,0,0,0-5.309-.488c-3.2,0-5.308.6-5.308,2.871,0,1.841,1.354,2.654,4.008,2.654A10.847,10.847,0,0,0,96.535,475.067Z" fill="#e2001a"/>
      <path d="M113.974,476.312h7.962V450.366h-7.962v-4.55h13.759v30.5h8.017v4.55H113.974Z" fill="#e2001a"/>
      <path d="M145.009,468.891c0-9.641,6.662-12.513,12.35-12.513,6.067,0,12.35,2.762,12.35,12.513,0,9.588-6.662,12.513-12.35,12.513C151.293,481.4,145.009,478.588,145.009,468.891Zm18.8,0c0-5.362-2.329-7.746-6.446-7.746s-6.446,2.383-6.446,7.746c0,5.309,2.329,7.746,6.446,7.746S163.805,474.2,163.805,468.891Z" fill="#e2001a"/>
      <path d="M181.624,462.824h16.467v5.092H181.624Z" fill="#e2001a"/>
      <path d="M210.114,474.579c0-5.525,4.929-6.988,9.858-6.988a25.267,25.267,0,0,1,6.555.867v-1.95c0-3.087-.542-5.525-4.983-5.525-3.359,0-5.309,1.354-5.309,4.171h-5.471c0-6.555,5.363-8.776,11.159-8.776,6.229,0,10.4,2.654,10.4,9.371v9.913c0,.921.325,1.246,1.3,1.246a10.975,10.975,0,0,0,2.275-.325v3.846a12.417,12.417,0,0,1-4.6.975c-3.033,0-3.9-1.57-3.9-3.358v-.433c-1.246,1.571-3.9,3.791-8.83,3.791C213.906,481.4,210.114,479.346,210.114,474.579Zm16.413.488v-3.033a25.58,25.58,0,0,0-5.309-.488c-3.2,0-5.308.6-5.308,2.871,0,1.841,1.354,2.654,4.008,2.654A10.847,10.847,0,0,0,226.527,475.067Z" fill="#e2001a"/>
      <path d="M241.745,456.921h4.387v3.412a6.626,6.626,0,0,1,5.9-3.954,4.842,4.842,0,0,1,4.876,3.683,6.776,6.776,0,0,1,5.8-3.683c3.738,0,5.254,3.2,5.254,7.962v16.521h-5.146v-15.6c0-2.926-.541-4.117-2.058-4.117a4.533,4.533,0,0,0-3.3,2v17.713h-5.146v-15.6c0-2.926-.542-4.117-2.059-4.117a4.639,4.639,0,0,0-3.358,2v17.713h-5.146Z" fill="#e2001a"/>
      <path d="M275.056,469c0-9.588,6.391-12.621,12.3-12.621,6.121,0,12.3,3.033,12.3,12.513v1.3H280.906c.162,4.171,2.221,6.717,6.879,6.717,3.2,0,5.417-1.3,5.85-3.629h5.959c-1.138,6.176-6.718,8.125-11.918,8.125C280.743,481.4,275.056,477.991,275.056,469Zm18.634-2.871c-.488-3.683-3.2-5.255-6.338-5.255s-5.85,1.571-6.338,5.255ZM288.056,443h6.5L287.3,453.778H283.83Z" fill="#e2001a"/>
      <path d="M308.961,476.312h5.9V461.524h-5.9v-4.6H319.9v5.416c1.029-2.654,3.412-5.958,8.125-5.958a9.679,9.679,0,0,1,4.5,1.029v5.85a9.825,9.825,0,0,0-4.6-1.137,8.791,8.791,0,0,0-7.259,3.467v10.725h10.076v4.55H308.961Z" fill="#e2001a"/>
      <path d="M341.459,476.312H349.8V461.524h-8.342v-4.6H355.6v19.392h7.638v4.55H341.459Zm7.747-30.5h7.1v6.554h-7.1Z" fill="#e2001a"/>
      <path d="M372.5,468.891c0-9.858,6.608-12.513,12.567-12.513,5.362,0,11.267,2.167,11.7,9.75h-5.85c-.325-3.683-2.6-4.875-5.8-4.875-4.226,0-6.662,2.275-6.662,7.637,0,5.417,2.437,7.638,6.716,7.638,3.142,0,5.418-1.138,5.742-4.821h5.85c-.433,7.476-6.5,9.7-11.755,9.7C379,481.4,372.5,478.641,372.5,468.891Z" fill="#e2001a"/>
      <path d="M405.1,474.579c0-5.525,4.93-6.988,9.859-6.988a25.262,25.262,0,0,1,6.555.867v-1.95c0-3.087-.542-5.525-4.983-5.525-3.359,0-5.309,1.354-5.309,4.171h-5.47c0-6.555,5.362-8.776,11.158-8.776,6.229,0,10.4,2.654,10.4,9.371v9.913c0,.921.325,1.246,1.3,1.246a11,11,0,0,0,2.275-.325v3.846a12.43,12.43,0,0,1-4.6.975c-3.033,0-3.9-1.57-3.9-3.358v-.433c-1.247,1.571-3.9,3.791-8.829,3.791C408.893,481.4,405.1,479.346,405.1,474.579Zm16.414.488v-3.033a25.574,25.574,0,0,0-5.309-.488c-3.2,0-5.308.6-5.308,2.871,0,1.841,1.354,2.654,4.008,2.654A10.847,10.847,0,0,0,421.514,475.067Z" fill="#e2001a"/>
      <path d="M438.953,476.312H447.3V461.524h-8.342v-4.6h14.138v19.392h7.638v4.55H438.953Zm7.747-30.5h7.1v6.554h-7.1Z" fill="#e2001a"/>
      <path d="M471.83,456.921h5.037v3.249a8.778,8.778,0,0,1,7.421-3.791c4.55,0,8.558,1.95,8.558,9.7v14.788h-5.8v-13.65c0-3.9-.812-6.012-4.333-6.012a6.35,6.35,0,0,0-5.091,2.167v17.5h-5.8Z" fill="#e2001a"/>
      <path d="M535.147,449.878h7.476l2.925,8.991,1.95,6.826,1.842-6.826,2.925-8.991h7.259v30.984h-5.362V465.045l.649-9.534-5.362,16.955h-4.225l-5.362-16.955.649,9.534v15.817h-5.362Z" fill="#e2001a"/>
      <path d="M567.537,469c0-9.588,6.391-12.621,12.3-12.621,6.121,0,12.3,3.033,12.3,12.513v1.3H573.387c.162,4.171,2.22,6.717,6.879,6.717,3.2,0,5.417-1.3,5.85-3.629h5.958c-1.137,6.176-6.716,8.125-11.916,8.125C573.224,481.4,567.537,477.991,567.537,469Zm18.634-2.871c-.488-3.683-3.2-5.255-6.338-5.255s-5.85,1.571-6.338,5.255Z" fill="#e2001a"/>
      <path d="M15.939,534.616h8.179V521.346H15.939v-5.471H31.376v18.742H38.8v5.471H15.939Zm7.529-30.063h8.559v7.475H23.468Z" fill="#e2001a"/>
      <path d="M53.366,529.362v-8.016H45.837v-5.471h7.529V504.553h7.258v11.321H72.6v5.471H60.624v7.746c0,3.9.759,5.525,4.388,5.525a17.732,17.732,0,0,0,6.446-1.408V538.9a19.956,19.956,0,0,1-8.287,1.733C56.779,540.629,53.366,537.813,53.366,529.362Z" fill="#e2001a"/>
      <path d="M79.363,533.642c0-5.526,5.091-7.1,10.346-7.1a26.471,26.471,0,0,1,6.392.758v-1.842c0-2.6-.6-4.549-4.5-4.549-2.763,0-4.659.975-4.659,3.467H80.176c0-6.392,5.092-9.047,11.863-9.047,6.229,0,11.267,2.275,11.267,9.534v9.047c0,.92.379,1.246,1.3,1.246a9.412,9.412,0,0,0,1.9-.271v4.659a12.657,12.657,0,0,1-5.038,1.082c-3.2,0-4.225-1.516-4.225-3.467v-.487c-1.247,1.571-3.954,3.954-9.1,3.954C83.372,540.629,79.363,538.516,79.363,533.642Zm16.738.217v-2.492a31.8,31.8,0,0,0-4.713-.325c-2.762,0-4.767.433-4.767,2.383,0,1.57,1.3,2.221,3.467,2.221A10.291,10.291,0,0,0,96.1,533.858Z" fill="#e2001a"/>
      <path d="M113.433,534.616h7.8V510.079h-7.8v-5.526h15.058v30.063h7.8v5.471H113.433Z" fill="#e2001a"/>
      <path d="M144.142,528.062c0-9.913,7.042-12.729,13.379-12.729,6.392,0,13.055,2.871,13.055,12.513,0,9.913-7.042,12.783-13.379,12.783S144.142,537.758,144.142,528.062Zm18.9-.108c0-4.821-2.059-6.717-5.688-6.717s-5.688,1.9-5.688,6.717,2.059,6.717,5.688,6.717S163.047,532.775,163.047,527.954Z" fill="#e2001a"/>
      <path d="M181.407,521.237h16.9v6.338h-16.9Z" fill="#e2001a"/>
      <path d="M209.356,533.642c0-5.526,5.092-7.1,10.346-7.1a26.477,26.477,0,0,1,6.392.758v-1.842c0-2.6-.6-4.549-4.5-4.549-2.762,0-4.658.975-4.658,3.467h-6.771c0-6.392,5.092-9.047,11.863-9.047,6.23,0,11.267,2.275,11.267,9.534v9.047c0,.92.38,1.246,1.3,1.246a9.412,9.412,0,0,0,1.9-.271v4.659a12.657,12.657,0,0,1-5.038,1.082c-3.2,0-4.226-1.516-4.226-3.467v-.487c-1.246,1.571-3.954,3.954-9.1,3.954C213.364,540.629,209.356,538.516,209.356,533.642Zm16.738.217v-2.492a31.784,31.784,0,0,0-4.712-.325c-2.763,0-4.767.433-4.767,2.383,0,1.57,1.3,2.221,3.467,2.221A10.29,10.29,0,0,0,226.094,533.858Z" fill="#e2001a"/>
      <path d="M240.986,515.874H246.4v3.3a6.89,6.89,0,0,1,6.067-3.847,4.843,4.843,0,0,1,4.929,3.521,6.823,6.823,0,0,1,5.85-3.521c4.388,0,5.471,4.009,5.471,8.18v16.575h-6.229V524.27c0-2.167-.379-3.358-1.788-3.358a3.654,3.654,0,0,0-2.762,1.733v17.442h-6.176V524.27c0-2.167-.379-3.358-1.787-3.358a3.657,3.657,0,0,0-2.763,1.733v17.442h-6.229Z" fill="#e2001a"/>
      <path d="M274.3,528.116c0-9.75,6.771-12.784,13.271-12.784,6.717,0,12.838,3.2,12.838,12.621V529.2H281.664c0,3.467,1.679,5.959,6.121,5.959,2.709,0,4.712-.921,5.038-2.654H300.3c-1.3,6.067-6.717,8.125-12.567,8.125C280.2,540.629,274.3,537.216,274.3,528.116Zm18.634-3.3c-.758-3.088-3.141-4.009-5.579-4.009s-4.821.921-5.579,4.009Zm-5.579-23.13h7.8l-7.746,11.05h-4.279Z" fill="#e2001a"/>
      <path d="M308.42,534.616h5.687V521.346H308.42v-5.471h12.134v5.254c1.191-2.708,3.3-5.8,8.017-5.8a8.032,8.032,0,0,1,4.767,1.354v7.15a9.207,9.207,0,0,0-5.146-1.571,9.092,9.092,0,0,0-6.826,3.088v9.263h9.913v5.471H308.42Z" fill="#e2001a"/>
      <path d="M340.918,534.616H349.1V521.346h-8.179v-5.471h15.437v18.742h7.421v5.471H340.918Zm7.529-30.063h8.559v7.475h-8.559Z" fill="#e2001a"/>
      <path d="M371.628,527.954c0-9.859,6.771-12.621,13.326-12.621,6.175,0,12.4,2.438,12.837,10.509h-7.367c-.27-3.413-2.383-4.6-5.417-4.6-3.738,0-5.85,1.9-5.85,6.717s2.112,6.717,5.9,6.717c2.979,0,5.092-1.138,5.362-4.55h7.367c-.433,7.962-6.825,10.508-12.946,10.508C378.4,540.629,371.628,537.813,371.628,527.954Z" fill="#e2001a"/>
      <path d="M404.343,533.642c0-5.526,5.091-7.1,10.346-7.1a26.471,26.471,0,0,1,6.392.758v-1.842c0-2.6-.6-4.549-4.5-4.549-2.763,0-4.659.975-4.659,3.467h-6.771c0-6.392,5.092-9.047,11.863-9.047,6.229,0,11.267,2.275,11.267,9.534v9.047c0,.92.379,1.246,1.3,1.246a9.412,9.412,0,0,0,1.9-.271v4.659a12.657,12.657,0,0,1-5.038,1.082c-3.2,0-4.225-1.516-4.225-3.467v-.487c-1.247,1.571-3.954,3.954-9.1,3.954C408.351,540.629,404.343,538.516,404.343,533.642Zm16.738.217v-2.492a31.8,31.8,0,0,0-4.713-.325c-2.762,0-4.767.433-4.767,2.383,0,1.57,1.3,2.221,3.467,2.221A10.291,10.291,0,0,0,421.081,533.858Z" fill="#e2001a"/>
      <path d="M438.412,534.616h8.179V521.346h-8.179v-5.471h15.437v18.742h7.421v5.471H438.412Zm7.529-30.063H454.5v7.475h-8.559Z" fill="#e2001a"/>
      <path d="M470.964,515.874h6.446v3.25a9.031,9.031,0,0,1,7.8-3.792c4.333,0,8.5,2.221,8.5,9.75v15h-7.258v-13.7c0-3.412-.867-4.983-3.791-4.983a5.948,5.948,0,0,0-4.442,1.733v16.955h-7.258Z" fill="#e2001a"/>
      <path d="M535.96,508.724h11.754c7.855,0,12.3,3.467,12.3,8.775a6.754,6.754,0,0,1-4.17,6.447c2.437.975,5.255,2.87,5.255,6.987,0,5.417-4.876,9.155-12.4,9.155H535.96Zm7.529,12.621H546.9c4.279,0,5.308-1.354,5.308-3.2,0-1.733-.92-3.358-5.2-3.358h-3.52Zm0,12.621h4.55c4.333,0,5.255-1.841,5.255-3.52,0-1.842-1.084-3.467-5.309-3.467h-4.5Z" fill="#e2001a"/>
      <path d="M566.615,528.062c0-9.913,7.042-12.729,13.379-12.729,6.392,0,13.055,2.871,13.055,12.513,0,9.913-7.042,12.783-13.379,12.783S566.615,537.758,566.615,528.062Zm18.9-.108c0-4.821-2.059-6.717-5.688-6.717s-5.688,1.9-5.688,6.717,2.059,6.717,5.688,6.717S585.52,532.775,585.52,527.954Z" fill="#e2001a"/>
      <path d="M15.4,592.92H23.36V581.166H15.4v-6.392H32.08V592.92h7.2v6.392H15.4Zm7.312-29.575H32.73v8.341H22.709Z" fill="#e2001a"/>
      <path d="M52.608,588.045v-6.879H45.133v-6.392h7.476V563.345h8.72v11.429h12.08v6.392H61.329v6.5c0,3.629.6,5.038,3.847,5.038a18.733,18.733,0,0,0,6.934-1.571V597.8a21.987,21.987,0,0,1-9.155,2.058C56.075,599.854,52.608,596.712,52.608,588.045Z" fill="#e2001a"/>
      <path d="M78.605,592.758c0-5.633,4.875-7.258,10.887-7.258a24.055,24.055,0,0,1,6.229.812v-1.9c0-2.167-.7-3.576-4.116-3.576-2.113,0-3.954.542-3.954,2.709H79.58c0-6.23,4.821-9.317,12.621-9.317,6.175,0,12.079,1.95,12.079,9.75v8.179c0,.921.379,1.246,1.3,1.246a5.63,5.63,0,0,0,1.517-.217v5.471a12.986,12.986,0,0,1-5.471,1.191c-3.358,0-4.387-1.679-4.387-3.791v-.325c-1.247,1.57-4.551,4.116-9.859,4.116C82.18,599.854,78.605,597.417,78.605,592.758Zm17.116-.162v-1.95a30.8,30.8,0,0,0-4.17-.271c-2.33,0-4.226.325-4.226,1.95,0,1.3,1.192,1.842,2.98,1.842A10.549,10.549,0,0,0,95.722,592.6Z" fill="#e2001a"/>
      <path d="M112.891,592.92h7.584V569.737h-7.584v-6.392h16.3V592.92h7.584v6.392H112.891Z" fill="#e2001a"/>
      <path d="M143.33,587.179c0-10.021,7.421-12.946,14.246-12.946,6.771,0,13.813,2.871,13.813,12.621,0,10.021-7.421,13-14.246,13C150.371,599.854,143.33,596.929,143.33,587.179Zm19.013-.162c0-4.279-1.788-5.688-4.983-5.688s-4.983,1.409-4.983,5.688,1.788,5.741,4.983,5.741S162.343,591.3,162.343,587.016Z" fill="#e2001a"/>
      <path d="M181.191,579.7h17.334v7.475H181.191Z" fill="#e2001a"/>
      <path d="M208.6,592.758c0-5.633,4.876-7.258,10.888-7.258a24.069,24.069,0,0,1,6.23.812v-1.9c0-2.167-.7-3.576-4.118-3.576-2.112,0-3.954.542-3.954,2.709h-8.071c0-6.23,4.821-9.317,12.621-9.317,6.175,0,12.079,1.95,12.079,9.75v8.179c0,.921.379,1.246,1.3,1.246a5.63,5.63,0,0,0,1.517-.217v5.471a12.989,12.989,0,0,1-5.471,1.191c-3.358,0-4.388-1.679-4.388-3.791v-.325c-1.246,1.57-4.549,4.116-9.858,4.116C212.172,599.854,208.6,597.417,208.6,592.758Zm17.118-.162v-1.95a30.829,30.829,0,0,0-4.171-.271c-2.329,0-4.226.325-4.226,1.95,0,1.3,1.192,1.842,2.979,1.842A10.554,10.554,0,0,0,225.715,592.6Z" fill="#e2001a"/>
      <path d="M240.282,574.774h6.392v3.359a7.086,7.086,0,0,1,6.229-3.9,4.887,4.887,0,0,1,4.929,3.52,7.035,7.035,0,0,1,6.013-3.52c4.875,0,5.579,4.6,5.579,8.5v16.575h-7.259V583.224c0-1.679-.433-2.491-1.408-2.491a3.154,3.154,0,0,0-2.275,1.3v17.279h-7.258V583.224c0-1.679-.433-2.491-1.409-2.491a3.153,3.153,0,0,0-2.275,1.3v17.279h-7.259Z" fill="#e2001a"/>
      <path d="M273.539,587.233c0-9.913,7.367-13,13.813-13,7.746,0,13.813,3.412,13.813,13.163v1.029h-18.85c0,2.492,1.3,5.2,5.471,5.2,2.221,0,4.009-.758,4.225-1.9H301c-1.462,5.958-6.717,8.125-13.217,8.125C279.66,599.854,273.539,596.441,273.539,587.233Zm18.742-3.629c-.6-2.6-2.925-3.3-4.929-3.3s-4.333.7-4.929,3.3Zm-5.633-23.022h9.1l-8.017,11.05h-5.091Z" fill="#e2001a"/>
      <path d="M307.878,592.92h5.471V581.166h-5.471v-6.392H321.2v5.2c1.354-2.925,3.412-5.741,7.855-5.741a8.09,8.09,0,0,1,5.146,1.679v8.5a10.19,10.19,0,0,0-5.9-2,9.01,9.01,0,0,0-6.229,2.654v7.854h9.7v6.392H307.878Z" fill="#e2001a"/>
      <path d="M340.376,592.92h7.963V581.166h-7.963v-6.392H357.06V592.92h7.2v6.392H340.376Zm7.312-29.575H357.71v8.341H347.688Z" fill="#e2001a"/>
      <path d="M370.762,587.016c0-9.859,6.934-12.784,14.084-12.784,6.988,0,13.542,2.762,13.976,11.32h-8.884c-.216-3.141-2.112-4.279-4.983-4.279-3.251,0-5.092,1.517-5.092,5.742s1.788,5.8,5.092,5.8c2.816,0,4.767-1.138,4.983-4.279h8.884c-.433,8.45-7.151,11.32-14.138,11.32C377.8,599.854,370.762,596.983,370.762,587.016Z" fill="#e2001a"/>
      <path d="M403.585,592.758c0-5.633,4.875-7.258,10.887-7.258a24.055,24.055,0,0,1,6.229.812v-1.9c0-2.167-.7-3.576-4.116-3.576-2.113,0-3.954.542-3.954,2.709h-8.071c0-6.23,4.821-9.317,12.621-9.317,6.175,0,12.079,1.95,12.079,9.75v8.179c0,.921.379,1.246,1.3,1.246a5.63,5.63,0,0,0,1.517-.217v5.471a12.986,12.986,0,0,1-5.471,1.191c-3.358,0-4.387-1.679-4.387-3.791v-.325c-1.247,1.57-4.551,4.116-9.859,4.116C407.159,599.854,403.585,597.417,403.585,592.758ZM420.7,592.6v-1.95a30.8,30.8,0,0,0-4.17-.271c-2.33,0-4.226.325-4.226,1.95,0,1.3,1.192,1.842,2.98,1.842A10.549,10.549,0,0,0,420.7,592.6Z" fill="#e2001a"/>
      <path d="M437.87,592.92h7.963V581.166H437.87v-6.392h16.684V592.92h7.2v6.392H437.87Zm7.312-29.575H455.2v8.341H445.182Z" fill="#e2001a"/>
      <path d="M470.1,574.774h7.854v3.3a9.2,9.2,0,0,1,7.855-3.846c4.55,0,8.721,2.491,8.721,9.858v15.221h-8.721V585.553c0-2.87-.921-3.954-3.2-3.954a5.266,5.266,0,0,0-3.792,1.354v16.359H470.1Z" fill="#e2001a"/>
      <path d="M535.094,567.516h12.892c8.4,0,12.946,3.575,12.946,8.991a7.359,7.359,0,0,1-3.629,6.555,7.34,7.34,0,0,1,4.659,6.879c0,5.526-4.984,9.371-13,9.371H535.094Zm9.046,12.513h2.925c4.009,0,4.55-1.409,4.55-2.654s-.541-2.654-4.55-2.654h-2.925Zm0,12.079h3.954c4.008,0,4.549-1.57,4.549-2.817s-.541-2.817-4.549-2.817h-3.954Z" fill="#e2001a"/>
      <path d="M567.861,592.92h7.584V569.737h-7.584v-6.392h16.3V592.92h7.584v6.392H567.861Z" fill="#e2001a"/>
      <g>
        <polygon points="600.902 534.616 600.902 540.087 617 540.087 617 534.616 615.96 534.616 615.96 504.553 600.902 504.553 600.902 510.079 608.702 510.079 608.702 534.616 600.902 534.616" fill="#e2001a"/>
        <path d="M617,418.008h-4.56V405.82a8.793,8.793,0,0,1,4.56-3.428v-4.423a9.193,9.193,0,0,0-5.265,5.413V398.02h-9.7v3.629h6.12v16.359h-6.12v3.629H617Z" fill="#e2001a"/>
        <path d="M611.355,369.834c-4.387,0-6.446-1.571-6.446-5.309h-3.2c0,6.176,4.062,8.071,9.75,8.071a14.287,14.287,0,0,0,5.536-.911v-3.75C616.063,369.109,614.373,369.834,611.355,369.834Z" fill="#e2001a"/>
        <path d="M611.139,362.954A9.168,9.168,0,0,0,617,360.993v-2.566a8.681,8.681,0,0,1-5.1,1.548c-4.983,0-7.1-3.791-7.1-9.263s2.112-9.263,7.1-9.263A8.681,8.681,0,0,1,617,343v-2.707a9.661,9.661,0,0,0-5.7-1.82c-5.038,0-9.8,3.467-9.8,12.3C601.5,359.434,606.047,362.954,611.139,362.954Z" fill="#e2001a"/>
        <path d="M617,574.745a21,21,0,0,0-4.832-.512c-7.8,0-12.621,3.087-12.621,9.317h8.071c0-2.167,1.841-2.709,3.954-2.709,3.412,0,4.116,1.409,4.116,3.576v1.9a24.055,24.055,0,0,0-6.229-.812c-6.012,0-10.887,1.625-10.887,7.258,0,4.659,3.575,7.1,8.775,7.1A12.805,12.805,0,0,0,617,595.982ZM615.689,592.6a10.549,10.549,0,0,1-5.416,1.571c-1.788,0-2.98-.542-2.98-1.842,0-1.625,1.9-1.95,4.226-1.95a30.8,30.8,0,0,1,4.17.271Z" fill="#e2001a"/>
        <path d="M609.947,481.4A9.855,9.855,0,0,0,617,478.678v-4.122a7.644,7.644,0,0,1-5.265,2.027c-4.117,0-5.85-3.088-5.85-7.692s1.733-7.691,5.85-7.691A7.648,7.648,0,0,1,617,463.226v-3.914a9.585,9.585,0,0,0-7.053-2.934c-5.2,0-10.021,3.683-10.021,12.513S604.639,481.4,609.947,481.4Z" fill="#e2001a"/>
      </g>
    </g>
  </g>
</svg>
