<svg xmlns="http://www.w3.org/2000/svg" width="293" height="147" viewBox="0 0 293 147">
  <title>Zeichenfläche 1</title>
  <g>
    <rect width="293" height="147" fill="#c8705f"/>
    <g opacity="0.4">
      <path d="M180.321,49.477c-2.151,1.97-3.34,2.2-3.34,2.2s.232,1.163,1.978,1.163c6.865,0,17.686-5.468,17.686-12.1,0-1.038-.824-1.967-2.012-2.768C194.422,43.5,186.78,48.168,180.321,49.477Z" fill="#39464b"/>
      <path d="M169.466,61.853c-.064.722-.07,1.43-.07,2.187.116,4.654,2.443,10.239,2.676,10.82,0,0-1.629,1.28-5.934,1.28a9.048,9.048,0,0,1-5.845-1.8c.864,2.861,3.586,4.8,7.845,4.8,4.3,0,5.934-1.28,5.934-1.28-.232-.582-2.56-6.167-2.676-10.82a16.484,16.484,0,0,1,.232-3.374,19.793,19.793,0,0,1,9.657-2.443,8.071,8.071,0,0,1,6.067,2.433,9.106,9.106,0,0,0-4.042-4.521c-.171,0-.34-.007-.512-.007A34.745,34.745,0,0,0,169.466,61.853Z" fill="#39464b"/>
      <path d="M67.962,78.674c0-23.386,9.54-39.559,22.92-39.559,5.369,0,9.948,2.609,13.51,7.237C100.7,40,95.535,36.283,89.278,36.131c-.995.034-1.974.089-2.923.185C74.317,38.224,65.962,53.789,65.962,75.674c0,12.944,2.926,22.958,7.8,29.326C70.1,98.663,67.962,89.738,67.962,78.674Z" fill="#39464b"/>
      <path d="M145.661,90.8c0,12.326.641,17.224,3.126,18.657-.858-2.834-1.126-7.693-1.126-15.657,0-21.059,2.792-61.548,2.792-63.992a2.447,2.447,0,0,0-2.016-2.462C148.219,32.685,145.661,70.637,145.661,90.8Z" fill="#39464b"/>
      <path d="M187.034,85.765a21.035,21.035,0,0,0-7.96-1.389c-.523,0-1.019.027-1.52.048-3.661,1.591-6.507,6.116-6.413,10.8.069,3.3,1.12,6.027,2.9,7.709a13.289,13.289,0,0,1-.9-4.709c-.116-5.817,4.3-11.4,9.191-11.4a11.465,11.465,0,0,1,6.207,1.618c.062-.456.12-.91.171-1.361A14.065,14.065,0,0,0,187.034,85.765Z" fill="#39464b"/>
      <path d="M237.461,42.748c0,20.128-6.516,46.307-6.516,46.307l-1.527.153.037,3.2,3.49-.349s6.516-26.178,6.516-46.307c0-5.744-1.157-9.831-3.568-12.278A23.024,23.024,0,0,1,237.461,42.748Z" fill="#39464b"/>
      <path d="M203.253,73.231c0,2.21-.116,5.468-2.327,21.99a22.975,22.975,0,0,0-.232,4.887c.09,4.979,1.38,7.417,2.879,8.64a17.454,17.454,0,0,1-.879-5.64,22.975,22.975,0,0,1,.232-4.887c2.211-16.521,2.327-19.779,2.327-21.99a15.789,15.789,0,0,0-3.7-10.345A16.976,16.976,0,0,1,203.253,73.231Z" fill="#39464b"/>
      <path d="M208.466,111.323a12.084,12.084,0,0,1-9.518,4.375,8.495,8.495,0,0,1-6.5-2.766c1.589,3.3,4.227,5.766,8.5,5.766,7.33,0,11.635-5.7,11.635-9.541a2.407,2.407,0,0,0-.582-1.629A21.124,21.124,0,0,1,208.466,111.323Z" fill="#39464b"/>
      <path d="M219.038,33.631c-.172.119-.342.236-.519.365a15.611,15.611,0,0,1,2.581,2.715A25.96,25.96,0,0,0,219.038,33.631Z" fill="#39464b"/>
      <path d="M125.881,75.674c0,20.212-12.226,36.955-31.159,39.819a17.893,17.893,0,0,1-3.84.412c-.151,0-.3-.011-.448-.015-.514.02-1.029.039-1.552.039a34.921,34.921,0,0,1-28.8-14.319,35.017,35.017,0,0,0,30.8,17.319c22.223,0,37-18.034,37-40.256,0-10.845-2.806-21.188-8.56-28.969C123.724,57.053,125.881,66.171,125.881,75.674Z" fill="#39464b"/>
      <path d="M188.317,100.707a19.592,19.592,0,0,1-1.235,2.606C184.813,109.5,179.809,115.7,172.3,115.7a11.941,11.941,0,0,1-9.2-4.774c2.406,4.5,6.366,7.774,11.2,7.774,7.557,0,12.583-6.29,14.829-12.517A31.219,31.219,0,0,1,188.317,100.707Z" fill="#39464b"/>
      <path d="M235.281,104.258a9.582,9.582,0,0,1,.551,2.714c0,5-2.909,8.493-7.679,8.493a5.814,5.814,0,0,1-3.943-1.484,6.315,6.315,0,0,0,5.943,4.484c4.77,0,7.679-3.49,7.679-8.493A8.145,8.145,0,0,0,235.281,104.258Z" fill="#39464b"/>
      <path d="M153.284,111a12.018,12.018,0,0,1-9.718,4.7,9.377,9.377,0,0,1-7.042-2.643c1.479,3.283,4.179,5.643,9.042,5.643,7.33,0,11.635-5.817,11.635-9.657a2.412,2.412,0,0,0-.581-1.629A22.2,22.2,0,0,1,153.284,111Z" fill="#39464b"/>
      <path d="M133.91,31.346a11.288,11.288,0,0,0-3.082.908c-1.839,1.236-3.063,2.705-3.063,4.418,0,.7.232,1.047.465,1.047a22.641,22.641,0,0,1,5.536-2.823C133.814,33.407,133.862,32.189,133.91,31.346Z" fill="#39464b"/>
    </g>
    <g>
      <path d="M87.882,32.091c25.132,0,37,20.245,37,42.583,0,22.223-14.776,40.256-37,40.256S51,96.9,51,74.674C51,52.335,62.285,32.091,87.882,32.091ZM64.962,74.674c0,23.386,9.54,37.231,22.92,37.231s21.874-13.846,21.874-37.231-8.494-39.559-21.874-39.559S64.962,51.288,64.962,74.674Z" fill="#dad2d0"/>
      <path d="M147.453,25.808c0,2.443-2.792,42.933-2.792,63.992,0,12.915.7,17.685,3.49,18.848a23.016,23.016,0,0,0,5.469-5.236,2.412,2.412,0,0,1,.581,1.629c0,3.84-4.3,9.657-11.635,9.657-12.914,0-10.587-16.638-10.587-23.037,0-11.635.465-53.171.931-61.315-1.164,0-5.585,1.745-7.68,3.374-.232,0-.465-.349-.465-1.047,0-6.4,16.986-9.424,19.9-9.424A2.568,2.568,0,0,1,147.453,25.808Z" fill="#dad2d0"/>
      <path d="M187.826,83.982a92.3,92.3,0,0,0,.581-10.122c-.232-8.959-2.443-16.638-10.122-16.638a19.793,19.793,0,0,0-9.657,2.443,16.484,16.484,0,0,0-.232,3.374c.116,4.654,2.443,10.239,2.676,10.82,0,0-1.629,1.28-5.934,1.28-5.119,0-8.027-2.792-8.145-6.632-.116-7.912,12.217-13.38,22.8-13.38,12.217,0,22.223,5.119,22.455,17.1,0,2.21-.116,5.468-2.327,21.99a22.975,22.975,0,0,0-.232,4.887c.116,6.4,2.211,8.61,4.188,9.424a20.737,20.737,0,0,0,5.119-5,2.407,2.407,0,0,1,.582,1.629c0,3.839-4.3,9.541-11.635,9.541-8.61,0-10.588-10.006-10.7-16.754-1.163,7.214-6.632,16.754-15.939,16.754-7.912,0-13.5-8.726-13.729-17.336-.116-10.82,6.05-16.987,18.5-16.987C182.474,80.375,185.964,82.47,187.826,83.982Zm-.116,2.094a11.5,11.5,0,0,0-8.378-3.257c-4.887,0-9.308,5.584-9.191,11.4.116,5.585,3.025,9.541,7.563,9.541C184.1,103.761,186.778,94.337,187.71,86.076ZM175.958,48.845c-1.745,0-1.978-1.163-1.978-1.163s1.279-.233,3.606-2.443c3.49-3.258,5.469-8.959,5.469-14.543,0,0,10.588,2.327,10.588,6.05C193.644,43.376,182.823,48.845,175.958,48.845Z" fill="#dad2d0"/>
      <path d="M236.461,41.748c0,20.128-6.516,46.307-6.516,46.307l-3.49.349-.232-20.245c-.117-11.053-1.4-19.546-3.142-25.48-2.677-8.727-7.1-12.333-7.562-12.682,4.3-3.142,6.98-3.258,9.89-3.258C232.971,26.739,236.461,31.742,236.461,41.748Zm-1.629,64.225c0,5-2.909,8.493-7.679,8.493-3.956,0-6.283-3.49-6.516-7.213,0-4.887,2.908-8.494,7.563-8.494C232.156,98.758,234.6,102.016,234.832,105.972Z" fill="#dad2d0"/>
    </g>
  </g>
</svg>
