<svg xmlns="http://www.w3.org/2000/svg" width="293" height="147" viewBox="0 0 293 147">
  <title>Zeichenfläche 1</title>
  <g>
    <rect width="293" height="147" fill="#dbd2b9"/>
    <path d="M260.514,64h4.178a7.539,7.539,0,0,1,3.128.686,8.952,8.952,0,0,1,2.657,1.815,10.888,10.888,0,0,1,1.918,2.585,9.69,9.69,0,0,1,1.039,3,2.7,2.7,0,0,0,.75.423,1.815,1.815,0,0,0,1.382-.138,1.688,1.688,0,0,0,.932-1.023,1.715,1.715,0,0,0-.322-1.5q-.407-.57-.193-.908a.56.56,0,0,1,.268-.232.592.592,0,0,1,.407.021,1.38,1.38,0,0,1,.5.338A2.964,2.964,0,0,1,278,71.281a3.289,3.289,0,0,1-.986,2.248,3.042,3.042,0,0,1-2.229.918h-1.329a8.615,8.615,0,0,1-.75,2.469,11.709,11.709,0,0,1-1.2,2.111l-.835,4.939a1.162,1.162,0,0,1-.429.728,1.234,1.234,0,0,1-.814.306h-2.143a.872.872,0,0,1-.9-1.034l.257-1.477a7.231,7.231,0,0,1-1.95.3h-4.178a7.837,7.837,0,0,1-1.393-.168l-.235,1.351a1.162,1.162,0,0,1-.429.728,1.234,1.234,0,0,1-.814.306H255.5a.872.872,0,0,1-.9-1.034l.557-3.314a10.411,10.411,0,0,1-2.743-3.693l-3.407-1.119a1.538,1.538,0,0,1-.707-.549,1.388,1.388,0,0,1-.3-.844V73.392a1.011,1.011,0,0,1,.311-.749,1.043,1.043,0,0,1,.761-.306h2.657a9.3,9.3,0,0,1,1.2-3.5l-2.379-2.005q-.343-.3-.268-.5t.525-.2h4.35A8.081,8.081,0,0,1,260.514,64Zm4.092,2h-5.357a.518.518,0,0,0-.375.158.5.5,0,0,0-.161.369v1.055a.5.5,0,0,0,.161.369.518.518,0,0,0,.375.158h5.357a.518.518,0,0,0,.375-.158.5.5,0,0,0,.161-.369V66.533a.5.5,0,0,0-.161-.369A.518.518,0,0,0,264.606,66Z" fill="#817965"/>
    <path d="M260.514,100h4.178a7.539,7.539,0,0,1,3.128.686,8.952,8.952,0,0,1,2.657,1.815,10.888,10.888,0,0,1,1.918,2.585,9.69,9.69,0,0,1,1.039,3,2.7,2.7,0,0,0,.75.423,1.815,1.815,0,0,0,1.382-.138,1.688,1.688,0,0,0,.932-1.023,1.715,1.715,0,0,0-.322-1.5q-.407-.57-.193-.908a.56.56,0,0,1,.268-.232.592.592,0,0,1,.407.021,1.38,1.38,0,0,1,.5.338,2.964,2.964,0,0,1,.835,2.216,3.289,3.289,0,0,1-.986,2.248,3.042,3.042,0,0,1-2.229.918h-1.329a8.615,8.615,0,0,1-.75,2.469,11.709,11.709,0,0,1-1.2,2.111l-.835,4.939a1.162,1.162,0,0,1-.429.728,1.234,1.234,0,0,1-.814.306h-2.143a.872.872,0,0,1-.9-1.034l.257-1.477a7.231,7.231,0,0,1-1.95.3h-4.178a7.837,7.837,0,0,1-1.393-.168l-.235,1.351a1.162,1.162,0,0,1-.429.728,1.234,1.234,0,0,1-.814.306H255.5a.872.872,0,0,1-.9-1.034l.557-3.314a10.411,10.411,0,0,1-2.743-3.693l-3.407-1.119a1.538,1.538,0,0,1-.707-.549,1.388,1.388,0,0,1-.3-.844v-1.055a1.011,1.011,0,0,1,.311-.749,1.043,1.043,0,0,1,.761-.306h2.657a9.3,9.3,0,0,1,1.2-3.5l-2.379-2.005q-.343-.3-.268-.5t.525-.2h4.35A8.081,8.081,0,0,1,260.514,100Zm4.092,2h-5.357a.518.518,0,0,0-.375.158.5.5,0,0,0-.161.369v1.055a.5.5,0,0,0,.161.369.518.518,0,0,0,.375.158h5.357a.518.518,0,0,0,.375-.158.5.5,0,0,0,.161-.369v-1.055a.5.5,0,0,0-.161-.369A.518.518,0,0,0,264.606,102Z" fill="#817965"/>
    <path d="M16.668,68.266c-.56-.056-1.372-.168-1.848-.252a8.276,8.276,0,0,1-.028-2.632c2.072-.252,6.16-.5,8.092-.5,6.5,0,10.92,3.024,10.92,9.744,0,7.308-4.984,10.5-9.828,10.5-2.632,0-7.056-.084-9.744-.252a10.066,10.066,0,0,1,.56-2.52,12.293,12.293,0,0,1,1.876-.42Zm4.312,14c.616.056,1.568.084,2.184.084,3.7,0,6.216-2.072,6.216-7.28,0-5.152-2.66-7.448-6.664-7.448-.476,0-1.26.056-1.736.112Z" fill="#514937"/>
    <path d="M47.272,82.266a6.4,6.4,0,0,1,.5-1.512,12.588,12.588,0,0,1,3-.252v4.424H36.548a8.992,8.992,0,0,1,.476-2.212,6.59,6.59,0,0,1,1.6-.812v-9.38a8.3,8.3,0,0,1-1.82-.42,8.374,8.374,0,0,1-.084-2.352H50.38v4.284a12.61,12.61,0,0,1-2.94-.364,5.1,5.1,0,0,1-.588-1.316h-4.06v3.64h2.94a2.7,2.7,0,0,1,.644-.868,9.488,9.488,0,0,1,2.3-.308v4.9a7.708,7.708,0,0,1-2.464-.168,3.352,3.352,0,0,1-.42-1.036h-3v3.752Z" fill="#514937"/>
    <path d="M62.028,71.85a3.985,3.985,0,0,0-1.344-.224c-1.176,0-1.736.532-1.736,1.316,0,2.94,7.728,1.54,7.728,7.252,0,3.612-2.884,5.292-6.58,5.292a11.932,11.932,0,0,1-5.768-1.372,7.277,7.277,0,0,1-.112-1.4,9.286,9.286,0,0,1,.364-2.548,13.3,13.3,0,0,1,3.864.56v1.736a5.116,5.116,0,0,0,2.1.42c1.316,0,1.988-.56,1.988-1.652,0-3.248-7.756-1.624-7.756-7.336,0-2.884,2.268-4.7,5.88-4.7a11.971,11.971,0,0,1,5.488,1.232c.028.224.056.7.056.952a9.95,9.95,0,0,1-.392,2.632,8.651,8.651,0,0,1-3.78-.84Z" fill="#514937"/>
    <path d="M77.987,75.91,79.779,73.7a7.4,7.4,0,0,1,1.288-1.176,5.1,5.1,0,0,1-1.2-.448,7.5,7.5,0,0,1-.392-2.324h7.42a9.116,9.116,0,0,1-.448,2.492,8.26,8.26,0,0,1-1.54.42L81.151,76.89a38.006,38.006,0,0,0,4.788,5.292l1.6-.14a2.556,2.556,0,0,1,.028.42A7.244,7.244,0,0,1,87,85.01a22.654,22.654,0,0,1-3.444.42c-1.4-.952-3.724-3.752-5.88-6.972H76.2v3.584a7,7,0,0,1,1.792.56,7.208,7.208,0,0,1,.084,2.324h-8.12a8.992,8.992,0,0,1,.476-2.212,6.59,6.59,0,0,1,1.6-.812v-9.38a8.3,8.3,0,0,1-1.82-.42,8.374,8.374,0,0,1-.084-2.352h7.672a9.838,9.838,0,0,1-.084,2.38,5.689,5.689,0,0,1-1.512.392V75.91Z" fill="#514937"/>
    <path d="M99.492,72.27v9.744a14.15,14.15,0,0,1,2.548.588,6.522,6.522,0,0,1,.112,2.324h-9.38a7.542,7.542,0,0,1,.588-2.156,10.974,10.974,0,0,1,1.96-.784V72.27H93.08a8.374,8.374,0,0,1-.532,2.072,9.446,9.446,0,0,1-3.08.532V69.75h15.848v5.1a9.339,9.339,0,0,1-3.053-.532,7.648,7.648,0,0,1-.56-2.044Z" fill="#514937"/>
    <path d="M124.72,77.226c0,5.236-3.276,8.26-8.26,8.26-5.376,0-8.345-2.856-8.345-8.26,0-4.9,3.612-7.9,8.345-7.9C121.388,69.33,124.72,72.13,124.72,77.226ZM116.46,82.8c2.575,0,3.92-2.128,3.92-5.572,0-3-1.568-5.236-3.92-5.236-2.576,0-4,2.072-4,5.236C112.456,80.586,113.968,82.8,116.46,82.8Z" fill="#514937"/>
    <path d="M130.291,72.522a9.3,9.3,0,0,1-1.764-.252,9.054,9.054,0,0,1,0-2.464c1.456-.14,5.04-.308,6.692-.308,4.731,0,7.476,1.2,7.476,4.816s-3.192,5.124-6.58,5.124a14.175,14.175,0,0,1-1.652-.084v2.632a13.206,13.206,0,0,1,2.465.588,6.654,6.654,0,0,1,.111,2.352h-8.819a8.949,8.949,0,0,1,.476-2.212,6.6,6.6,0,0,1,1.6-.812Zm4.088,4.2a14.079,14.079,0,0,0,1.6.084c1.54,0,2.38-.672,2.38-2.352a2.293,2.293,0,0,0-2.576-2.324,11.727,11.727,0,0,0-1.4.084Z" fill="#514937"/>
    <path d="M23.472,117.37a27.965,27.965,0,0,1,.7-5.32l2.968-11.228h3.92l2.856,11.256a26.682,26.682,0,0,1,.616,5.068h.336a22.42,22.42,0,0,1,.784-5.1l1.54-5.152a13.486,13.486,0,0,1,1.26-2.94,8.514,8.514,0,0,1-1.652-.28,11.244,11.244,0,0,1-.364-2.6h6.888a10.375,10.375,0,0,1-.392,2.688,7.949,7.949,0,0,1-1.428.224l-5.6,17.248h-3.64L29.408,109.5a26.416,26.416,0,0,1-.56-4.676h-.336a24.471,24.471,0,0,1-.616,4.7l-3.08,11.732H20.784l-5.152-17.3a7.351,7.351,0,0,1-1.4-.336,11.764,11.764,0,0,1-.448-2.548h8.232a10.254,10.254,0,0,1-.476,2.688,9.516,9.516,0,0,1-1.848.224,11.816,11.816,0,0,1,1.232,2.912l1.4,5.152a25.389,25.389,0,0,1,.812,5.32Z" fill="#514937"/>
    <path d="M55,118.266a6.4,6.4,0,0,1,.5-1.512,12.588,12.588,0,0,1,3-.252v4.424H44.275a8.992,8.992,0,0,1,.476-2.212,6.59,6.59,0,0,1,1.6-.812v-9.38a8.3,8.3,0,0,1-1.82-.42,8.374,8.374,0,0,1-.084-2.352H58.107v4.284a12.61,12.61,0,0,1-2.94-.364,5.1,5.1,0,0,1-.588-1.316H50.52v3.64h2.94a2.7,2.7,0,0,1,.644-.868,9.488,9.488,0,0,1,2.3-.308v4.9a7.708,7.708,0,0,1-2.464-.168,3.352,3.352,0,0,1-.42-1.036h-3v3.752Z" fill="#514937"/>
    <path d="M63.9,108.466a9.869,9.869,0,0,1-1.82-.308,8.508,8.508,0,0,1-.028-2.38c1.932-.168,5.068-.28,7.112-.28,4.34,0,7.392,1.148,7.392,4.032a3.206,3.206,0,0,1-2.716,3.192v.252c2.1.392,3.556,1.568,3.556,3.248,0,3.528-3.3,4.928-7.532,4.928-2.52,0-5.684-.084-8.008-.252a8.994,8.994,0,0,1,.476-2.3,6.6,6.6,0,0,1,1.568-.756Zm4.172,3.3h1.54c1.708,0,2.632-.5,2.632-1.96,0-1.232-1.2-1.764-2.94-1.764-.364,0-.924.028-1.232.056Zm0,6.664a14.582,14.582,0,0,0,1.624.084c2.212,0,3.332-.532,3.332-2.128,0-1.456-1.316-2.1-3.248-2.1H68.076Z" fill="#514937"/>
    <path d="M89.439,112.414a2.628,2.628,0,0,1,.644-.924,8.255,8.255,0,0,1,2.3-.336v5.236a6.953,6.953,0,0,1-2.464-.2,4.584,4.584,0,0,1-.42-1.232H86.723v3.024a14.039,14.039,0,0,1,2.436.588,6.654,6.654,0,0,1,.112,2.352H80.479a8.992,8.992,0,0,1,.476-2.212,6.59,6.59,0,0,1,1.6-.812v-9.38a8.3,8.3,0,0,1-1.82-.42,8.374,8.374,0,0,1-.084-2.352H93.919v4.424a11.289,11.289,0,0,1-2.94-.392,5.682,5.682,0,0,1-.588-1.4H86.723v4.032Z" fill="#514937"/>
    <path d="M113.379,113.226c0,5.236-3.276,8.26-8.26,8.26-5.376,0-8.345-2.856-8.345-8.26,0-4.9,3.612-7.9,8.345-7.9C110.047,105.33,113.379,108.13,113.379,113.226Zm-8.26,5.572c2.575,0,3.92-2.128,3.92-5.572,0-3-1.568-5.236-3.92-5.236-2.576,0-4,2.072-4,5.236C101.115,116.586,102.627,118.8,105.12,118.8Z" fill="#514937"/>
    <path d="M128.527,112.75a11.889,11.889,0,0,1,1.6,3.556h.337v-7.784a12.168,12.168,0,0,1-2.269-.42,7.466,7.466,0,0,1-.112-2.352h7.112a4.884,4.884,0,0,1,.056.756,13.117,13.117,0,0,1-.111,1.624,7.163,7.163,0,0,1-1.652.392V121.01l-3.976.42-5.656-8.26a11.877,11.877,0,0,1-1.456-3.164h-.336v7.98a7.809,7.809,0,0,1,1.9.56,7.583,7.583,0,0,1,.084,2.38H116.8a8.949,8.949,0,0,1,.476-2.212,6.6,6.6,0,0,1,1.6-.812v-9.38a8.29,8.29,0,0,1-1.819-.42,8.338,8.338,0,0,1-.084-2.352h6.523Z" fill="#514937"/>
    <path d="M147.51,108.27v9.744a14.166,14.166,0,0,1,2.548.588,6.5,6.5,0,0,1,.111,2.324h-9.379a7.574,7.574,0,0,1,.588-2.156,11.019,11.019,0,0,1,1.96-.784V108.27H141.1a8.4,8.4,0,0,1-.532,2.072,9.443,9.443,0,0,1-3.08.532V105.75h15.847v5.1a9.332,9.332,0,0,1-3.052-.532,7.648,7.648,0,0,1-.56-2.044Z" fill="#514937"/>
    <g>
      <path d="M156.2,82.256A2.473,2.473,0,0,1,153.62,85a2.419,2.419,0,0,1-2.66-2.744,2.47,2.47,0,0,1,2.66-2.548A2.388,2.388,0,0,1,156.2,82.256Z" fill="#817965"/>
      <path d="M172.8,82.256A2.473,2.473,0,0,1,170.224,85a2.419,2.419,0,0,1-2.66-2.744,2.47,2.47,0,0,1,2.66-2.548A2.388,2.388,0,0,1,172.8,82.256Z" fill="#817965"/>
      <path d="M189.4,82.256A2.473,2.473,0,0,1,186.827,85a2.419,2.419,0,0,1-2.66-2.744,2.47,2.47,0,0,1,2.66-2.548A2.388,2.388,0,0,1,189.4,82.256Z" fill="#817965"/>
      <path d="M206.006,82.256A2.473,2.473,0,0,1,203.431,85a2.419,2.419,0,0,1-2.66-2.744,2.47,2.47,0,0,1,2.66-2.548A2.388,2.388,0,0,1,206.006,82.256Z" fill="#817965"/>
      <path d="M222.609,82.256A2.473,2.473,0,0,1,220.034,85a2.419,2.419,0,0,1-2.66-2.744,2.47,2.47,0,0,1,2.66-2.548A2.388,2.388,0,0,1,222.609,82.256Z" fill="#817965"/>
      <path d="M239.214,82.256A2.474,2.474,0,0,1,236.638,85a2.419,2.419,0,0,1-2.66-2.744,2.47,2.47,0,0,1,2.66-2.548A2.389,2.389,0,0,1,239.214,82.256Z" fill="#817965"/>
    </g>
    <g>
      <path d="M172.8,118.256A2.473,2.473,0,0,1,170.224,121a2.419,2.419,0,0,1-2.66-2.744,2.47,2.47,0,0,1,2.66-2.548A2.388,2.388,0,0,1,172.8,118.256Z" fill="#817965"/>
      <path d="M189.4,118.256A2.473,2.473,0,0,1,186.827,121a2.419,2.419,0,0,1-2.66-2.744,2.47,2.47,0,0,1,2.66-2.548A2.388,2.388,0,0,1,189.4,118.256Z" fill="#817965"/>
      <path d="M206.006,118.256A2.473,2.473,0,0,1,203.431,121a2.419,2.419,0,0,1-2.66-2.744,2.47,2.47,0,0,1,2.66-2.548A2.388,2.388,0,0,1,206.006,118.256Z" fill="#817965"/>
      <path d="M222.609,118.256A2.473,2.473,0,0,1,220.034,121a2.419,2.419,0,0,1-2.66-2.744,2.47,2.47,0,0,1,2.66-2.548A2.388,2.388,0,0,1,222.609,118.256Z" fill="#817965"/>
      <path d="M239.214,118.256A2.474,2.474,0,0,1,236.638,121a2.419,2.419,0,0,1-2.66-2.744,2.47,2.47,0,0,1,2.66-2.548A2.389,2.389,0,0,1,239.214,118.256Z" fill="#817965"/>
    </g>
    <path d="M289.063,37.749l-3.9,1.95c-4.142,2.072-11.141,2.072-15.284,0l-3.9-1.95c-4.663-2.332-12.252-2.333-16.917,0l-3.9,1.95c-4.142,2.072-11.141,2.072-15.284,0l-3.9-1.95c-4.663-2.332-12.252-2.333-16.917,0l-3.9,1.95c-4.142,2.072-11.142,2.072-15.284,0l-3.9-1.95c-4.664-2.332-12.252-2.332-16.916,0l-3.9,1.95c-4.143,2.071-11.141,2.071-15.283,0l-3.9-1.95c-4.664-2.332-12.252-2.332-16.916,0l-3.9,1.95c-4.143,2.071-11.141,2.071-15.283,0l-3.9-1.95c-4.664-2.332-12.252-2.332-16.916,0l-3.9,1.95c-4.143,2.071-11.141,2.071-15.283,0l-3.9-1.95c-4.664-2.332-12.252-2.332-16.916,0l-3.9,1.95c-4.143,2.071-11.141,2.071-15.283,0l-3.9-1.95c-4.664-2.332-12.252-2.332-16.916,0l-3.9,1.95A15.723,15.723,0,0,1,0,41.108v1.84a17.722,17.722,0,0,0,5.979-1.616l3.9-1.95c4.143-2.071,11.141-2.071,15.283,0l3.9,1.95c4.664,2.332,12.252,2.332,16.916,0l3.9-1.95c4.143-2.071,11.141-2.071,15.283,0l3.9,1.95c4.664,2.332,12.252,2.332,16.916,0l3.9-1.95c4.143-2.071,11.141-2.071,15.283,0l3.9,1.95c4.664,2.332,12.252,2.332,16.916,0l3.9-1.95c4.143-2.071,11.141-2.071,15.283,0l3.9,1.95c4.664,2.332,12.252,2.332,16.916,0l3.9-1.95c4.143-2.071,11.141-2.071,15.283,0l3.9,1.95c4.663,2.332,12.252,2.332,16.917,0l3.9-1.95c4.142-2.07,11.141-2.072,15.284,0l3.9,1.95c4.663,2.332,12.252,2.333,16.917,0l3.9-1.95c4.142-2.07,11.141-2.072,15.284,0l3.9,1.95c4.664,2.332,12.253,2.333,16.917,0l3.9-1.95A13.8,13.8,0,0,1,293,38.316V36.441A15.982,15.982,0,0,0,289.063,37.749Z" fill="#817965"/>
    <path d="M0,38.54a18.024,18.024,0,0,0,6.371-1.654l3.9-1.95c4.143-2.071,11.141-2.071,15.283,0l3.9,1.95c4.663,2.333,12.251,2.333,16.916,0l3.9-1.95c4.143-2.071,11.141-2.071,15.283,0l3.9,1.95c4.664,2.333,12.252,2.333,16.916,0l3.9-1.95c4.143-2.071,11.141-2.071,15.283,0l3.9,1.95c4.663,2.333,12.251,2.333,16.916,0l3.9-1.95c4.143-2.071,11.141-2.071,15.283,0l3.9,1.95c4.664,2.333,12.252,2.333,16.916,0l3.9-1.95c4.143-2.071,11.141-2.071,15.283,0l3.9,1.95c4.663,2.333,12.251,2.333,16.916,0l3.9-1.95c4.143-2.071,11.141-2.071,15.283,0l3.9,1.95c4.664,2.333,12.252,2.333,16.916,0l3.9-1.95c4.143-2.071,11.141-2.071,15.283,0l3.9,1.95c4.663,2.333,12.251,2.333,16.916,0l3.9-1.95A13.369,13.369,0,0,1,293,33.958V0H0Z" fill="#817965"/>
    <g>
      <path d="M80.678,7.161c-1.64,0-2.56-.68-2.56-2.879V0H72.355c-.078,1.875-.116,3.7-.116,5.121,0,4.679,1.919,6.559,5.759,6.559a13.011,13.011,0,0,0,5.438-1.28,7.327,7.327,0,0,0,.96-3.279,2.5,2.5,0,0,0-.04-.48A16.968,16.968,0,0,1,80.678,7.161Z" fill="#dbd2b9"/>
      <path d="M61.878,0c.023.355.039.724.039,1.122,0,4.08-1.48,6.639-5.079,6.639a5.308,5.308,0,0,1-2.4-.56V0H48.759V16.439a9.613,9.613,0,0,0-2.319,1.12,11.272,11.272,0,0,0-.64,2.919H58.6a8.867,8.867,0,0,0-.24-3.12,17.686,17.686,0,0,0-3.8-.84V10.64a6.411,6.411,0,0,0,3.72,1.04C64.2,11.68,68,7.281,68,.362c0-.126-.011-.239-.013-.362Z" fill="#dbd2b9"/>
      <path d="M95.117,7.161V0h-5.8V6.96A8.938,8.938,0,0,0,87,8.081,11.272,11.272,0,0,0,86.358,11H98.116a6.185,6.185,0,0,0,.04-.88,10.706,10.706,0,0,0-.2-2.24A12.308,12.308,0,0,0,95.117,7.161Z" fill="#dbd2b9"/>
      <path d="M36.489,0C35.812,4.939,33.6,7.84,29.8,7.84,26.2,7.84,23.814,4.877,23.058,0H16.467c1.05,7.733,5.707,11.8,13.33,11.8,7.1,0,12.022-4.279,13.175-11.8Z" fill="#dbd2b9"/>
      <path d="M143.994,7.121c.158-2.179.263-4.725.3-7.121h-5.861V6.96a7.316,7.316,0,0,0-1.879,1.12A13.673,13.673,0,0,0,136.035,11h10.958a7.073,7.073,0,0,0,.04-.92,10.932,10.932,0,0,0-.2-2.2A12.915,12.915,0,0,0,143.994,7.121Z" fill="#dbd2b9"/>
      <path d="M162.147,0H150.683c2.22,4.122,8.791,3.256,8.791,6.281,0,1.28-.84,1.84-2.319,1.84a6.045,6.045,0,0,1-2.68-.68v-2.2a14.059,14.059,0,0,0-4.6-.64,13.179,13.179,0,0,0-.4,3.4,11.338,11.338,0,0,0,.2,2.16,15.006,15.006,0,0,0,7.2,1.52c4.439,0,8.279-1.68,8.279-6.479A5.461,5.461,0,0,0,162.147,0Z" fill="#dbd2b9"/>
      <path d="M131.517,7.161V0h-5.8V6.96a9.613,9.613,0,0,0-2.319,1.12,11.272,11.272,0,0,0-.64,2.919h11.518a11.37,11.37,0,0,0-.159-3.12A10.359,10.359,0,0,0,131.517,7.161Z" fill="#dbd2b9"/>
      <path d="M114.437,0c.023.3.038.606.038.922,0,4.319-1.28,7-4.039,7-2.56,0-4.119-2.759-4.119-7,0-.317.013-.623.033-.922H100.4c-.021.3-.04.607-.04.922C100.357,8,104,11.68,110.437,11.68c6.079,0,10.038-3.879,10.038-10.758,0-.316-.018-.62-.036-.922Z" fill="#dbd2b9"/>
    </g>
    <g>
      <path d="M57.184,144.522V147h4.088v-2.786a11.707,11.707,0,0,1,1.4-.084,2.293,2.293,0,0,1,2.576,2.324,4.066,4.066,0,0,1-.037.546h4.334a5.631,5.631,0,0,0,.043-.686c0-3.612-2.744-4.816-7.476-4.816-1.652,0-5.236.168-6.692.308a9.093,9.093,0,0,0,0,2.464A9.3,9.3,0,0,0,57.184,144.522Z" fill="#514937"/>
      <path d="M40.02,144.522V147h4.088v-2.786a11.707,11.707,0,0,1,1.4-.084,2.293,2.293,0,0,1,2.576,2.324,4.066,4.066,0,0,1-.037.546h4.334a5.631,5.631,0,0,0,.043-.686c0-3.612-2.744-4.816-7.476-4.816-1.652,0-5.236.168-6.692.308a9.093,9.093,0,0,0,0,2.464A9.3,9.3,0,0,0,40.02,144.522Z" fill="#514937"/>
      <path d="M22.138,147l.8-2.17a19.063,19.063,0,0,0,1.092-4h.336a17.375,17.375,0,0,0,.924,3.948L26.135,147h4.407l-4.185-10.262h-3.22L18.788,147Z" fill="#514937"/>
    </g>
    <g>
      <path d="M237.334,147c.039-.184.1-.374.121-.553h1.329a3.042,3.042,0,0,0,2.228-.918,3.289,3.289,0,0,0,.986-2.248,2.964,2.964,0,0,0-.835-2.216,1.381,1.381,0,0,0-.5-.338.592.592,0,0,0-.407-.021.56.56,0,0,0-.268.232q-.215.339.193.908a1.715,1.715,0,0,1,.322,1.5,1.688,1.688,0,0,1-.932,1.023,1.815,1.815,0,0,1-1.382.138,2.7,2.7,0,0,1-.75-.423,9.69,9.69,0,0,0-1.039-3,10.889,10.889,0,0,0-1.918-2.585,8.953,8.953,0,0,0-2.657-1.815,7.54,7.54,0,0,0-3.128-.686h-4.178a8.081,8.081,0,0,0-5.357,2.132h-4.35q-.45,0-.525.2t.268.5l2.379,2.005a9.3,9.3,0,0,0-1.2,3.5h-2.657a1.043,1.043,0,0,0-.761.306,1.011,1.011,0,0,0-.311.749v1.055a1.312,1.312,0,0,0,.141.553Zm-14.621-8.467a.5.5,0,0,1,.161-.369.518.518,0,0,1,.375-.158h5.357a.518.518,0,0,1,.375.158.5.5,0,0,1,.161.369v1.055a.5.5,0,0,1-.161.369.518.518,0,0,1-.375.158h-5.357a.518.518,0,0,1-.375-.158.5.5,0,0,1-.161-.369Z" fill="#817965"/>
      <path d="M273.334,147c.039-.184.1-.374.121-.553h1.329a3.042,3.042,0,0,0,2.228-.918,3.289,3.289,0,0,0,.986-2.248,2.964,2.964,0,0,0-.835-2.216,1.381,1.381,0,0,0-.5-.338.592.592,0,0,0-.407-.021.56.56,0,0,0-.268.232q-.215.339.193.908a1.715,1.715,0,0,1,.322,1.5,1.688,1.688,0,0,1-.932,1.023,1.815,1.815,0,0,1-1.382.138,2.7,2.7,0,0,1-.75-.423,9.69,9.69,0,0,0-1.039-3,10.889,10.889,0,0,0-1.918-2.585,8.953,8.953,0,0,0-2.657-1.815,7.54,7.54,0,0,0-3.128-.686h-4.178a8.081,8.081,0,0,0-5.357,2.132h-4.35q-.45,0-.525.2t.268.5l2.379,2.005a9.3,9.3,0,0,0-1.2,3.5h-2.657a1.043,1.043,0,0,0-.761.306,1.011,1.011,0,0,0-.311.749v1.055a1.312,1.312,0,0,0,.141.553Zm-14.621-8.467a.5.5,0,0,1,.161-.369.518.518,0,0,1,.375-.158h5.357a.518.518,0,0,1,.375.158.5.5,0,0,1,.161.369v1.055a.5.5,0,0,1-.161.369.518.518,0,0,1-.375.158h-5.357a.518.518,0,0,1-.375-.158.5.5,0,0,1-.161-.369Z" fill="#817965"/>
      <path d="M201.334,147c.039-.184.1-.374.121-.553h1.329a3.042,3.042,0,0,0,2.228-.918,3.289,3.289,0,0,0,.986-2.248,2.964,2.964,0,0,0-.835-2.216,1.381,1.381,0,0,0-.5-.338.592.592,0,0,0-.407-.021.56.56,0,0,0-.268.232q-.215.339.193.908a1.715,1.715,0,0,1,.322,1.5,1.688,1.688,0,0,1-.932,1.023,1.815,1.815,0,0,1-1.382.138,2.7,2.7,0,0,1-.75-.423,9.69,9.69,0,0,0-1.039-3,10.889,10.889,0,0,0-1.918-2.585,8.953,8.953,0,0,0-2.657-1.815,7.54,7.54,0,0,0-3.128-.686h-4.178a8.081,8.081,0,0,0-5.357,2.132h-4.35q-.45,0-.525.2t.268.5l2.379,2.005a9.3,9.3,0,0,0-1.2,3.5h-2.657a1.043,1.043,0,0,0-.761.306,1.011,1.011,0,0,0-.311.749v1.055a1.312,1.312,0,0,0,.141.553Zm-14.621-8.467a.5.5,0,0,1,.161-.369.518.518,0,0,1,.375-.158h5.357a.518.518,0,0,1,.375.158.5.5,0,0,1,.161.369v1.055a.5.5,0,0,1-.161.369.518.518,0,0,1-.375.158h-5.357a.518.518,0,0,1-.375-.158.5.5,0,0,1-.161-.369Z" fill="#817965"/>
    </g>
  </g>
</svg>
