<svg xmlns="http://www.w3.org/2000/svg" width="293" height="147" viewBox="0 0 293 147">
  <title>Typefaces</title>
  <g>
    <rect width="293" height="147" fill="#afced6"/>
    <path d="M38.706,92.739A40.627,40.627,0,0,1,43.55,72.688c4.844-8.561,13.292-14.53,25.345-14.53,13.967,0,21.852,7.885,21.852,23.654,0,7.66-1.8,15.432-5.744,21.627-4.844,7.66-13.066,12.954-24.669,12.954C46.141,116.394,38.706,108.509,38.706,92.739Zm32.779,5.97c2.027-4.618,2.7-10.926,2.7-16.559,0-9.349-1.915-13.4-6.759-13.4-4.055,0-7.209,2.929-9.124,7.209-2.253,4.957-2.929,11.489-2.929,16.784,0,9.236,2.366,12.953,7.1,12.953C66.754,105.692,69.683,102.877,71.486,98.709Z" fill="#164258"/>
    <path d="M118.117,97.92c0,4.168,1.239,6.984,4.506,6.984,3.829,0,7.659-3.38,9.8-6.421l3.717-27.371-6.983.563c0-2.027,1.352-8.223,2.815-9.687,3.38-2.027,8.786-3.154,13.855-3.154a28.09,28.09,0,0,1,6.758,1.014l-4.055,42.128a6.855,6.855,0,0,0,.45,1.915l7.772-.789a25.182,25.182,0,0,1-3.041,10.138c-3.83,1.577-12.616,3.154-17.234,3.154a30.08,30.08,0,0,1-2.929-9.687h-1.014c-2.7,4.731-7.435,9.688-16.783,9.688-6.984,0-14.193-3.717-14.193-15.545,0-6.42,2.816-22.189,4.281-29.736l-7.886.676c0-2.027,1.353-8.336,2.816-9.8,3.492-2.027,9.124-3.154,14.418-3.154a30.8,30.8,0,0,1,6.983,1.014C121.045,68.184,118.117,92.063,118.117,97.92Z" fill="#164258"/>
    <path d="M162.833,71.788c0-2.027,1.352-8.336,2.816-9.8,3.491-2.027,9.124-3.154,14.418-3.154a30.8,30.8,0,0,1,6.983,1.014L182.1,101.976a6.855,6.855,0,0,0,.45,1.915l7.885-.789a25.182,25.182,0,0,1-3.041,10.138c-3.83,1.577-12.391,3.154-17.121,3.154-2.141-2.027-5.182-7.66-5.182-10.363l5.632-34.918ZM190.43,38c0,6.533-4.055,10.362-9.462,10.362-6.308,0-9.687-3.491-9.687-10.362a9.412,9.412,0,0,1,9.687-9.687C186.6,28.309,190.43,31.8,190.43,38Z" fill="#164258"/>
    <path d="M215.773,101.976a6.855,6.855,0,0,0,.45,1.915l7.885-.789a25.182,25.182,0,0,1-3.041,10.138c-3.83,1.577-12.391,3.154-17.121,3.154-2.141-2.027-5.182-7.66-5.182-10.363L207.1,44.078l-7.659.789c0-2.141,1.352-8.336,2.929-9.8,3.492-2.028,9.124-3.154,14.306-3.154a30.749,30.749,0,0,1,6.983,1.014Z" fill="#164258"/>
    <path d="M249.113,101.976a6.855,6.855,0,0,0,.45,1.915l7.885-.789a25.182,25.182,0,0,1-3.041,10.138c-3.83,1.577-12.391,3.154-17.121,3.154-2.141-2.027-5.182-7.66-5.182-10.363l8.335-61.952-7.659.789c0-2.141,1.352-8.336,2.929-9.8,3.492-2.028,9.124-3.154,14.306-3.154A30.749,30.749,0,0,1,257,32.927Z" fill="#164258"/>
    <path d="M293,101.482a10.071,10.071,0,0,1-6.943,2.971c-3.492,0-5.632-2.7-5.632-10.588,0-5.744,1.352-13.968,4.5-18.7A15.977,15.977,0,0,1,293,68.754V58.372a29.634,29.634,0,0,0-20.573,11.276,41.714,41.714,0,0,0-8.335,25.345c0,15.094,6.871,21.4,15.77,21.4A16.834,16.834,0,0,0,293,110.552Z" fill="#164258"/>
    <path d="M17.195,72.688V71.675c7.659-2.365,12.841-10.25,12.841-18.36C30.036,39.672,17.267,33.472,0,33.382V44.053c8.288.576,13.139,4.362,13.139,11.29,0,8.363-4.953,11.869-13.139,12.331V78.526c8.12.6,13.7,4.458,13.7,12.3,0,8.357-4.894,12.507-13.7,13.428v10.87c15.9-1.067,30.937-8.36,30.937-25.649C30.937,80.8,25.53,75.055,17.195,72.688Z" fill="#164258"/>
  </g>
</svg>
